<svg width="60" height="60" viewBox="0 0 60 60" fill="none" xmlns="http://www.w3.org/2000/svg">
<path d="M44.0054 12.9395C44.2229 12.4859 44.7383 11.9438 45.1508 11.7353C46.2512 11.1788 46.6806 11.2502 48.2601 12.2519C54.5952 16.2695 58.2879 24.251 57.4164 32.0417C56.7327 38.1533 52.8683 44.3603 47.9549 47.2397C46.2791 48.2219 45.0179 47.9822 44.1632 46.5191C43.3088 45.056 43.8245 43.8932 46.0445 42.2762C50.1107 39.3155 52.3508 34.829 52.3508 29.6471C52.3508 24.4361 49.9463 19.67 45.9176 16.8953C43.9745 15.557 43.3598 14.2856 44.0054 12.9395Z" fill="#BA0855"/>
<path d="M18.5586 23.9833V21.4333V18.8833H26.0586H33.5586V21.4333V23.9833H26.0586H18.5586Z" fill="#BA0855"/>
<path d="M40.7586 21.3958C40.7586 20.3698 41.2668 19.5022 42.0531 19.1854C42.4137 19.0402 42.7467 18.9127 42.7932 18.9022C42.8397 18.892 43.3158 19.0663 43.8513 19.2901C45.3588 19.9198 47.529 22.2964 48.6195 24.5116C49.5486 26.3989 49.6086 26.7124 49.6086 29.6833C49.6086 32.6464 49.5471 32.971 48.6315 34.8304C46.5099 39.1405 42.8505 41.5003 41.286 39.568C40.3311 38.389 40.6011 37.3516 42.2178 35.9887C46.482 32.3932 46.482 26.9734 42.2178 23.3779C41.1876 22.5094 40.7586 21.9265 40.7586 21.3958Z" fill="#BA0855"/>
<path d="M36.2586 29.6833C36.2586 28.7059 36.4479 28.2481 37.1355 27.5602C37.8234 26.8726 38.2812 26.6833 39.2586 26.6833C40.236 26.6833 40.6938 26.8726 41.3817 27.5602C42.0693 28.2481 42.2586 28.7059 42.2586 29.6833C42.2586 32.4166 39.0681 33.7387 37.1355 31.8064C36.4479 31.1185 36.2586 30.6607 36.2586 29.6833Z" fill="#BA0855"/>
<path d="M18.5586 40.4833V33.8833V27.2833H26.0586H33.5586V29.8333V32.3833H29.3586H25.1586V36.4333V40.4833H21.8586H18.5586Z" fill="#BA0855"/>
<path fill-rule="evenodd" clip-rule="evenodd" d="M19.3085 8.23222C15.1229 9.15352 11.6171 11.1014 8.50848 14.2322C3.58788 19.1882 1.45278 26.0858 2.79228 32.6987C3.43668 35.8793 4.16778 37.6475 5.99238 40.4366L7.43028 42.6347L5.89428 46.5074C4.57188 49.8413 4.40568 50.4836 4.69818 51.1256C5.35788 52.5734 6.25727 52.4375 10.859 50.1962L15.1085 48.1262L17.2085 48.8714C19.2263 49.5875 19.6493 49.6208 28.0085 49.7246C33.7106 49.7954 36.9977 49.7222 37.5479 49.5122C39.3062 48.8414 39.578 45.8015 37.9571 44.9339C37.5236 44.702 35.1908 44.6141 30.6752 44.6597C22.1648 44.7458 19.7702 44.4431 16.5524 42.8747C10.9916 40.1648 7.75848 34.9772 7.75848 28.7654C7.75848 25.5632 8.48597 23.0078 10.1066 20.5166C12.2093 17.2841 15.0566 15.0824 18.8585 13.7498C20.6762 13.1126 21.3575 13.061 28.9085 12.9905C33.3635 12.9488 37.3211 12.8363 37.7033 12.7406C38.1263 12.635 38.5679 12.1604 38.8322 11.5274C39.212 10.6187 39.2114 10.3562 38.8271 9.43641C38.567 8.81421 38.0672 8.26251 37.6034 8.08641C36.4037 7.63011 21.5036 7.74892 19.3085 8.23222Z" fill="#25005A"/>
<path fill-rule="evenodd" clip-rule="evenodd" d="M19.3085 8.23222C15.1229 9.15352 11.6171 11.1014 8.50848 14.2322C3.58788 19.1882 1.45278 26.0858 2.79228 32.6987C3.43668 35.8793 4.16778 37.6475 5.99238 40.4366L7.43028 42.6347L5.89428 46.5074C4.57188 49.8413 4.40568 50.4836 4.69818 51.1256C5.35788 52.5734 6.25727 52.4375 10.859 50.1962L15.1085 48.1262L17.2085 48.8714C19.2263 49.5875 19.6493 49.6208 28.0085 49.7246C33.7106 49.7954 36.9977 49.7222 37.5479 49.5122C39.3062 48.8414 39.578 45.8015 37.9571 44.9339C37.5236 44.702 35.1908 44.6141 30.6752 44.6597C22.1648 44.7458 19.7702 44.4431 16.5524 42.8747C10.9916 40.1648 7.75848 34.9772 7.75848 28.7654C7.75848 25.5632 8.48597 23.0078 10.1066 20.5166C12.2093 17.2841 15.0566 15.0824 18.8585 13.7498C20.6762 13.1126 21.3575 13.061 28.9085 12.9905C33.3635 12.9488 37.3211 12.8363 37.7033 12.7406C38.1263 12.635 38.5679 12.1604 38.8322 11.5274C39.212 10.6187 39.2114 10.3562 38.8271 9.43641C38.567 8.81421 38.0672 8.26251 37.6034 8.08641C36.4037 7.63011 21.5036 7.74892 19.3085 8.23222Z" fill="#25005A"/>
</svg>
