<svg width="500" height="500" viewBox="0 0 500 500" fill="none" xmlns="http://www.w3.org/2000/svg">
<g clip-path="url(#clip0_243_94)">
<path opacity="0.5" d="M474.37 417.091H25.63C23.901 417.091 22.5 418.492 22.5 420.221C22.5 421.95 23.901 423.351 25.63 423.351H474.37C476.099 423.351 477.5 421.95 477.5 420.221C477.5 418.493 476.099 417.091 474.37 417.091Z" fill="#FFC0A9"/>
<path d="M170.215 183.862L204.295 189.333L186.619 212.71L200.193 214.889L168.857 249.374L175.19 220.127L164.664 218.438L170.215 183.862Z" fill="#BA0855"/>
<path d="M186.619 212.71L204.295 189.333L199.785 188.609L182.109 211.986L186.619 212.71Z" fill="#FFE79F"/>
<path d="M170.474 241.907L168.857 249.374L200.193 214.889L195.683 214.165L170.474 241.907Z" fill="#FFE79F"/>
<path d="M53.1893 394.895L47.0943 400.804C44.7833 403.045 44.7263 406.735 46.9663 409.046L60.4113 422.914C61.5873 424.127 63.6123 423.792 64.3353 422.265C64.7523 421.385 64.6003 420.342 63.9513 419.617L62.7523 418.331C58.6343 413.916 58.3633 405.479 61.7893 400.507L53.1893 394.895Z" fill="#FFC0A9"/>
<path d="M64.3353 422.264C64.7523 421.384 64.6003 420.341 63.9513 419.616L62.7523 418.33C59.4653 414.805 58.4963 409.837 59.9783 405.446C57.2663 406.536 54.0083 406.314 51.3493 403.744C49.7763 402.223 49.0883 400.545 49.0433 398.915L47.0953 400.803C44.7843 403.044 44.7273 406.734 46.9673 409.045L60.4123 422.913C61.5873 424.126 63.6123 423.79 64.3353 422.264Z" fill="#15052D"/>
<path d="M89.6372 276.711L107.861 312.71C110.004 316.943 109.761 321.991 107.223 325.998L62.8552 402.414L49.0352 393.414C49.0352 393.414 75.1422 335.71 82.7232 327.71L72.8372 314.377L70.9712 276.71H89.6372V276.711Z" fill="#EB3434"/>
<path d="M101.409 408.849L101.132 417.333C101.027 420.55 103.55 423.243 106.767 423.349L126.072 423.979C127.76 424.034 128.984 422.386 128.442 420.786C128.13 419.864 127.296 419.219 126.326 419.148L124.57 419.057C118.541 418.743 112.483 412.865 111.492 406.91L101.409 408.849Z" fill="#FFC0A9"/>
<path d="M128.443 420.785C128.131 419.863 127.297 419.218 126.327 419.147L124.571 419.056C119.758 418.806 115.608 415.906 113.622 411.719C112.43 414.388 109.932 416.492 106.234 416.492C104.046 416.492 102.385 415.763 101.22 414.622L101.132 417.333C101.027 420.55 103.55 423.243 106.767 423.349L126.072 423.979C127.761 424.033 128.985 422.385 128.443 420.785Z" fill="#15052D"/>
<path d="M82.5542 208.961L98.4552 198.981L107.117 226.211C107.117 226.211 110.987 223.103 113.015 221.033C115.053 218.964 116.986 216.872 118.791 214.849C120.598 212.826 122.23 210.836 123.712 208.977C124.441 208.037 125.141 207.137 125.806 206.28C126.476 205.425 127.089 204.598 127.534 203.735C128.41 201.999 128.977 200.366 129.749 199.219C130.477 198.043 131.246 197.244 131.851 196.749C132.445 196.246 132.865 196.056 132.865 196.056L133.045 195.974C133.487 195.777 133.976 195.664 134.49 195.656C136.525 195.625 138.201 197.25 138.231 199.286C138.231 199.286 138.239 199.782 138.046 200.558C137.865 201.343 137.473 202.415 136.705 203.61C135.98 204.832 134.716 206.068 133.457 207.601C132.836 208.373 132.306 209.28 131.762 210.248C131.203 211.207 130.615 212.216 130.001 213.268C128.761 215.379 127.417 217.667 125.996 220.086C124.562 222.515 123.003 225.064 121.278 227.677C119.539 230.283 117.686 232.981 115.438 235.647C114.296 236.97 113.092 238.32 111.623 239.627C110.882 240.282 108.843 242.965 105.107 243.292C101.371 243.619 98.5762 241.678 94.5722 237.128C90.5682 232.579 82.5542 208.961 82.5542 208.961Z" fill="#FFC0A9"/>
<path d="M37.0211 273.025C37.0211 273.025 36.1391 289.4 40.9701 296.044C56.9701 318.044 72.8791 340.532 75.3361 354.044C79.5191 377.044 98.0181 412.027 98.0181 412.027C104.348 411.339 113.715 406.555 113.715 406.555C113.715 406.555 93.9881 347.231 89.1971 329.508C84.4071 311.784 76.1341 283.053 73.4021 272.973C73.0921 271.831 72.8251 270.763 72.5771 269.732C62.9901 272.929 37.0211 273.025 37.0211 273.025Z" fill="#FB523A"/>
<path d="M46.0503 178.552C57.0963 177.461 54.9453 162.463 54.9453 162.463L62.8543 167.912L70.7183 168.155C70.7183 168.155 69.6593 178.15 81.4173 178.506C85.2383 178.621 92.9053 191.032 92.9053 191.032H38.9893C38.9893 191.032 42.9803 181.787 46.0503 178.552Z" fill="#FFC0A9"/>
<path d="M34.3112 211.208L24.2202 208.272C27.4172 194 29.6692 187.352 35.1612 183.213C40.7192 179.024 47.6372 178.085 47.6372 178.085C47.6372 178.085 50.6192 187.469 62.9352 187.469C75.2512 187.469 77.9172 178.047 77.9172 178.047C77.9172 178.047 85.8832 177.554 90.8462 182.434C95.8092 187.313 96.6832 188.627 99.7142 199.612L91.5602 207.208C91.5602 207.208 89.1502 226.544 89.8252 245.249C90.5002 263.954 92.0512 277.786 92.0512 277.786C92.0512 277.786 83.4802 282.17 65.8322 282.17C43.2982 282.17 34.2432 278.549 34.2432 278.549L34.3112 211.208Z" fill="#15052D"/>
<path d="M87.0613 145.13C86.3723 135.309 80.4153 129.967 69.3083 129.457C62.6883 129.153 56.4233 132.487 52.6183 137.913L52.0693 138.697C48.9233 143.182 47.7583 150.551 49.0453 155.876L56.1203 167.138L53.9643 181.988C53.9643 181.988 65.8813 187.573 69.5643 180.289L69.5603 171.554C69.5603 171.554 75.6973 174.406 80.4533 172.172C82.9403 171.002 88.4663 165.172 87.0613 145.13Z" fill="#FFC0A9"/>
<path d="M75.6632 161.749C75.0882 161.855 74.8252 162.573 75.2402 162.986C76.4532 164.193 78.2132 164.809 80.0242 164.475C81.8032 164.147 83.2092 162.982 83.9242 161.462C84.1902 160.896 83.7342 160.262 83.1192 160.375L75.6632 161.749Z" fill="white"/>
<path d="M40.0483 282.151C40.2393 283.814 40.2233 285.311 40.5723 286.45C40.6923 286.924 40.8483 287.333 41.0143 287.703C43.6333 286.058 45.8043 283.937 47.7903 281.619C47.5923 281.192 47.3903 280.753 47.1933 280.284C46.8753 279.511 46.6843 278.649 46.5373 277.727C46.3743 276.809 46.2023 275.844 46.0233 274.837C45.3063 270.808 44.6733 266.055 43.9673 260.969C43.6073 258.428 43.2363 255.802 42.8583 253.134C42.4483 250.474 41.9813 247.786 41.4783 245.106L41.0913 243.1L41.0423 242.85L41.0193 242.692L40.9773 242.38L40.9213 241.756C40.8663 240.951 40.9123 240.045 41.0283 239.363C41.2053 238.084 41.3793 236.816 41.5523 235.562C41.7233 234.26 41.8913 232.973 42.0573 231.707C42.7203 226.645 43.2833 221.916 43.7213 217.859C43.8973 216.32 44.1743 213.55 44.1743 213.55L27.0883 209.105C27.0883 209.105 26.8603 214.127 26.7473 216.487C26.5283 220.562 26.3243 225.32 26.1663 230.423C26.1273 231.699 26.0863 232.996 26.0453 234.309C26.0123 235.671 25.9783 237.05 25.9443 238.44C25.9183 240.431 26.1033 242.235 26.4863 244.104C26.5803 244.565 26.6913 245.023 26.8093 245.478L27.0003 246.157L27.1793 246.735L27.8233 248.674C28.6953 251.257 29.6033 253.83 30.5473 256.351C31.5233 258.863 32.4833 261.335 33.4133 263.727C35.2853 268.508 37.0583 272.964 38.4033 276.828C38.7393 277.794 39.0623 278.72 39.3683 279.6C39.6933 280.476 39.9473 281.321 40.0483 282.151Z" fill="#FFC0A9"/>
<path d="M51.4763 159.747C51.4763 159.747 45.7203 150.711 43.9703 146.711C42.2203 142.711 40.3033 132.878 51.3483 126.378C59.8323 121.385 72.1043 110.939 75.0373 122.825C75.0373 122.825 80.1013 114.485 87.2853 117.848C94.4703 121.211 97.0883 129.881 92.9043 135.296C88.7203 140.711 62.4703 141.286 62.4703 141.286C62.4703 141.286 63.7203 153.048 59.4703 153.63C55.2213 154.211 51.9823 147.532 51.4763 159.747Z" fill="#426DC0"/>
<path d="M58.7763 152.904C58.7763 155.02 57.0613 156.735 54.9453 156.735C52.8293 156.735 51.1143 155.02 51.1143 152.904C51.1143 150.788 52.8293 149.073 54.9453 149.073C57.0613 149.073 58.7763 150.788 58.7763 152.904Z" fill="#FFC0A9"/>
<path d="M127.954 211.249L123.906 205.872C123.564 205.418 123.479 204.821 123.679 204.289L129.508 188.824C129.969 187.601 131.599 187.367 132.385 188.412L136.433 193.789C136.775 194.243 136.86 194.84 136.66 195.372L130.831 210.837C130.37 212.06 128.74 212.294 127.954 211.249Z" fill="#15052D"/>
<path d="M130.207 191.127L125.69 203.243L129.426 208.271L134.077 195.939L130.207 191.127Z" fill="#D3E3F8"/>
<path d="M71.2512 172.184C71.2512 172.184 66.8752 171.625 64.3752 170.375C64.3752 170.375 68.8772 174.952 72.6882 174.851L71.2512 172.184Z" fill="#FFAD94"/>
<path d="M235.907 75.998C219.767 75.998 207.747 91.079 211.792 107.918C214.194 117.918 222.818 125.162 233.018 126.471C241.803 127.599 248.505 124.568 253.848 119.143L260.293 128.326V99.586C260.294 86.414 249.316 75.998 235.907 75.998Z" fill="#C177CD"/>
<path d="M241.155 111.25H226.853C225.125 111.25 223.724 109.849 223.724 108.121V98.8841C223.724 97.1561 225.125 95.7551 226.853 95.7551H229.535L229.043 94.9141C228.137 93.3641 227.659 91.6011 227.659 89.8061V89.3021C227.659 87.9861 228.726 86.9191 230.042 86.9191C231.34 86.9191 232.4 87.9581 232.424 89.2571C232.435 90.4451 232.861 91.5921 233.629 92.4981C234.859 93.9501 236.666 94.7871 238.569 94.7871H241.156V111.25H241.155Z" fill="white"/>
<path d="M242.633 111.874H245.923C247.333 111.874 248.476 110.731 248.476 109.321V96.2351C248.476 94.8251 247.333 93.6821 245.923 93.6821H242.633C241.223 93.6821 240.08 94.8251 240.08 96.2351V109.32C240.08 110.731 241.223 111.874 242.633 111.874Z" fill="#15052D"/>
<path d="M143.334 113.895C155.965 113.895 165.967 124.134 165.967 136.765C165.967 149.396 155.609 159.635 142.979 159.635C136.603 159.635 131.255 157.023 127.109 152.814L121 161.097V135.173C121 123.291 131.239 113.895 143.334 113.895Z" fill="#FB523A"/>
<path d="M143.752 146.929L133.609 136.786C131.624 134.801 131.624 131.583 133.609 129.597C135.594 127.612 138.813 127.612 140.798 129.597L143.752 132.551L146.706 129.597C148.692 127.612 151.91 127.612 153.895 129.597C155.88 131.582 155.88 134.801 153.895 136.786L143.752 146.929Z" fill="#FB523A"/>
<path d="M143.334 113.895C155.965 113.895 165.967 124.134 165.967 136.765C165.967 149.396 155.609 159.635 142.979 159.635C136.603 159.635 131.255 157.023 127.109 152.814L121 161.097V135.173C121 123.291 131.239 113.895 143.334 113.895Z" fill="#6212A2"/>
<path d="M143.752 146.929L133.609 136.786C131.624 134.801 131.624 131.583 133.609 129.597C135.594 127.612 138.813 127.612 140.798 129.597L143.752 132.551L146.706 129.597C148.692 127.612 151.91 127.612 153.895 129.597C155.88 131.582 155.88 134.801 153.895 136.786L143.752 146.929Z" fill="white"/>
<path d="M195.271 280.64C201.056 280.64 205.745 275.951 205.745 270.166C205.745 264.381 201.056 259.692 195.271 259.692C189.486 259.692 184.797 264.381 184.797 270.166C184.797 275.951 189.486 280.64 195.271 280.64Z" fill="#6212A1"/>
<path d="M175 381.765L196.144 381.839L217.288 381.765L228.761 403.933C228.761 403.933 213.66 418.432 196.144 418.432C178.628 418.432 163.527 403.933 163.527 403.933L175 381.765Z" fill="#70A7EE"/>
<path d="M166.067 414.758L159.836 410.808C157.473 409.31 154.344 410.011 152.846 412.374L143.858 426.551C143.072 427.791 143.766 429.434 145.203 429.735C146.031 429.908 146.882 429.568 147.363 428.873L148.206 427.598C151.101 423.222 156.649 421.447 161.546 423.332L166.067 414.758Z" fill="#E89A49"/>
<path d="M145.204 429.736C146.032 429.909 146.883 429.569 147.364 428.874L148.207 427.599C150.518 424.106 154.519 422.277 158.531 422.638C157.059 420.568 156.585 417.77 158.216 415.001C159.181 413.363 160.46 412.441 161.828 412.072L159.837 410.81C157.474 409.312 154.345 410.013 152.847 412.376L143.859 426.553C143.073 427.792 143.767 429.435 145.204 429.736Z" fill="#15052D"/>
<path d="M214.86 323.886C203.221 323.534 204.27 313.64 204.27 313.64L196.485 313.4L188.7 313.64C188.7 313.64 189.749 323.534 178.11 323.886C174.328 324 166.738 336.285 166.738 336.285H220.109C220.109 336.285 216.601 323.939 214.86 323.886Z" fill="#E89A49"/>
<path d="M188.329 316.722C188.104 317.644 187.747 318.67 187.17 319.654C190.815 327.56 200.916 328.564 205.454 319.112C205.106 318.528 204.854 317.626 204.674 316.722H188.329Z" fill="#E88620"/>
<path d="M179.021 290.224C180.058 279.173 188.143 272.83 196.098 272.958C204.053 273.085 211.981 279.685 212.749 290.766C213.199 297.256 211.786 304.251 210.768 308.272C210.163 310.665 209.03 312.839 207.459 314.556C203.859 318.491 199.183 321.629 195.507 321.57C191.831 321.511 187.233 318.225 183.73 314.175C182.202 312.408 181.123 310.198 180.575 307.787C179.656 303.734 178.413 296.697 179.021 290.224Z" fill="#E89A49"/>
<path d="M176.261 344.626C176.261 344.626 176.024 344.876 175.579 345.344C175.143 345.802 174.508 346.468 173.672 347.283C172.834 348.096 171.817 349.084 170.651 350.217C169.482 351.35 168.11 352.576 166.598 353.917C165.082 355.256 163.388 356.661 161.526 358.139C159.64 359.61 157.617 361.106 155.105 362.636C154.47 363.019 153.796 363.402 153.019 363.781C152.619 363.972 152.245 364.159 151.757 364.353C151.519 364.449 151.309 364.539 151.045 364.635L150.193 364.914L149.979 364.979L149.926 364.995C148.807 365.284 149.599 365.078 149.342 365.143L149.284 365.152L149.022 365.194C148.093 365.369 146.929 365.336 146.47 365.242C145.815 365.158 145.329 365.012 144.811 364.844C144.348 364.679 143.919 364.488 143.545 364.294C142.096 363.512 141.263 362.722 140.535 362C139.822 361.271 139.266 360.581 138.771 359.908C138.272 359.234 137.831 358.574 137.438 357.916C136.64 356.602 135.965 355.313 135.343 354.03C134.129 351.451 133.128 348.894 132.289 346.344C131.441 343.801 130.697 341.299 130.052 338.864C129.4 336.432 128.857 334.066 128.361 331.822C127.856 329.581 127.434 327.45 127.054 325.478C126.675 323.503 126.487 321.663 125.9 320.093C125.349 318.513 124.928 317.08 124.857 315.84C124.754 314.605 124.92 313.583 125.119 312.887C125.311 312.191 125.537 311.822 125.537 311.822C126.458 310.319 128.422 309.846 129.926 310.767C130.296 310.994 130.604 311.283 130.843 311.614L131.106 311.982C131.106 311.982 131.306 312.261 131.521 312.778C131.738 313.295 131.984 314.054 132.123 315.072C132.291 316.085 132.264 317.377 132.287 318.901C132.284 320.433 132.853 322.074 133.431 323.864C134.572 327.453 136.278 331.558 138.355 335.799C139.388 337.92 140.508 340.079 141.708 342.205C142.922 344.321 144.159 346.441 145.463 348.389C146.1 349.368 146.757 350.304 147.413 351.121C148.056 351.926 148.728 352.683 149.164 352.998C149.357 353.154 149.519 353.175 149.197 352.969C149.106 352.914 148.971 352.843 148.803 352.784C148.588 352.698 148.402 352.655 148.062 352.592C147.914 352.561 147.064 352.492 146.448 352.661L146.646 352.608L146.703 352.593C146.465 352.654 147.277 352.446 146.176 352.728L146.177 352.724L146.183 352.71C146.191 352.692 146.201 352.679 146.211 352.67L146.35 352.572L146.743 352.306C147.048 352.093 147.415 351.829 147.792 351.543C149.325 350.382 150.943 348.901 152.449 347.495C153.972 346.083 155.389 344.653 156.713 343.342C158.03 342.007 159.237 340.784 160.307 339.7C161.372 338.601 162.3 337.642 163.064 336.853C164.567 335.287 165.427 334.392 165.427 334.392L165.481 334.336C168.331 331.367 173.049 331.271 176.018 334.121C178.974 336.96 179.079 341.655 176.261 344.626Z" fill="#E89A49"/>
<path d="M229.244 336.162C229.244 336.162 231.206 340.326 233.97 346.662C235.338 349.83 236.934 353.527 238.644 357.488C239.484 359.459 240.353 361.496 241.235 363.566C241.673 364.577 242.115 365.596 242.559 366.618L243.364 368.417C243.572 368.887 243.877 369.841 243.928 370.287C244.033 370.839 244.068 371.407 244.064 371.972C244.036 373.092 243.789 374.124 243.455 374.973C242.772 376.638 241.907 377.634 241.158 378.413C240.397 379.174 239.688 379.726 238.998 380.189C237.629 381.095 236.368 381.732 235.139 382.271C232.679 383.324 230.344 383.989 228.086 384.538C225.837 385.091 223.683 385.519 221.645 385.877C219.618 386.212 217.701 386.528 215.932 386.82C215.054 386.964 214.213 387.101 213.412 387.232C212.614 387.369 211.844 387.434 211.15 387.626C209.767 388.025 208.635 388.752 207.61 388.949C205.583 389.467 204.234 388.695 204.234 388.695C202.508 387.708 201.908 385.508 202.895 383.782C202.984 383.626 203.083 383.48 203.19 383.343L203.303 383.202C203.303 383.202 203.537 382.908 204.013 382.595C204.486 382.266 205.203 381.937 206.172 381.787C207.129 381.588 208.398 381.803 209.759 381.574C211.099 381.255 212.558 380.675 214.157 380.112C215.744 379.5 217.448 378.807 219.2 377.977C220.954 377.162 222.774 376.263 224.575 375.282C225.474 374.79 226.37 374.279 227.233 373.743C228.1 373.22 228.956 372.695 229.723 372.143C230.499 371.613 231.209 371.065 231.678 370.586C231.901 370.351 232.07 370.149 232.093 370.062C232.119 369.991 231.944 370.035 231.676 370.618C231.539 370.923 231.404 371.383 231.389 371.925C231.37 372.202 231.398 372.481 231.435 372.751C231.448 372.91 231.637 373.595 231.757 373.792L231.653 373.602L231.627 373.555C231.471 373.244 231.825 373.952 231.782 373.869L231.767 373.843L231.707 373.741L231.467 373.332L230.989 372.513C230.389 371.467 229.807 370.431 229.262 369.414C228.175 367.385 227.106 365.388 226.071 363.455C224.06 359.584 222.218 355.968 220.681 352.85C217.595 346.622 215.701 342.39 215.701 342.39L215.697 342.382C214.016 338.625 215.698 334.216 219.455 332.535C223.168 330.875 227.517 332.503 229.244 336.162Z" fill="#E89A49"/>
<path d="M191.534 309.377C190.869 309.377 190.427 310.126 190.806 310.673C191.914 312.274 193.756 313.325 195.851 313.325C197.909 313.325 199.722 312.311 200.836 310.759C201.25 310.181 200.871 309.377 200.16 309.377H191.534Z" fill="white"/>
<path d="M167.878 327.774C172.791 322.944 181.236 323.366 181.236 323.366C181.236 323.366 184.467 332.948 196.144 333.099C207.821 332.948 211.052 323.366 211.052 323.366C211.052 323.366 219.496 322.944 224.41 327.774C229.323 332.604 232.351 339.96 232.351 339.96L220.109 353.822L218.447 350.15C218.447 350.15 216.294 373.934 217.394 381.69C217.394 381.69 208.796 385.949 196.145 385.949C183.495 385.949 174.896 381.69 174.896 381.69C175.996 373.934 173.807 349.086 173.807 349.086L169.709 351.023L157.785 337.521C157.785 337.521 162.965 332.603 167.878 327.774Z" fill="#D3E3F8"/>
<path d="M162.741 424.549L236.017 414.973C243.832 413.752 249.008 406.206 247.333 398.476L247.331 398.469C245.656 390.739 237.821 386.012 230.202 388.136L159.89 410.515L162.741 424.549Z" fill="#91BAEE"/>
<path d="M160.867 415.323L159.89 410.516L179.122 404.395C183.814 408.656 189.747 411.858 195.283 414.198C199.319 415.904 204.053 417.623 208.87 418.522L179.904 422.307C173.331 421.43 166.941 418.635 160.867 415.323Z" fill="#70A7EE"/>
<path d="M219.623 415.071C209.09 409.597 197.908 405.741 186.686 401.987L199.688 397.849C204.823 399.486 209.9 401.228 214.971 403.206C221.123 405.605 228.733 407.635 232.489 411.088C234.492 412.929 236.62 413.919 238.721 414.263C237.862 414.584 236.96 414.828 236.017 414.975L222.141 416.788C221.377 416.133 220.541 415.548 219.623 415.071Z" fill="#70A7EE"/>
<path d="M226.173 414.758L232.404 410.808C234.767 409.31 237.896 410.011 239.394 412.374L248.382 426.551C249.168 427.791 248.474 429.434 247.037 429.735C246.209 429.908 245.358 429.568 244.877 428.873L244.034 427.598C241.139 423.222 235.591 421.447 230.694 423.332L226.173 414.758Z" fill="#E89A49"/>
<path d="M247.036 429.736C246.208 429.909 245.357 429.569 244.876 428.874L244.033 427.599C241.722 424.106 237.721 422.277 233.709 422.638C235.181 420.568 235.655 417.77 234.024 415.001C233.059 413.363 231.78 412.441 230.412 412.072L232.403 410.81C234.766 409.312 237.895 410.013 239.393 412.376L248.381 426.553C249.168 427.792 248.473 429.435 247.036 429.736Z" fill="#15052D"/>
<path d="M229.5 424.549L156.224 414.973C148.409 413.752 143.233 406.206 144.908 398.476L144.91 398.469C146.585 390.739 154.42 386.012 162.039 388.136L232.351 410.515L229.5 424.549Z" fill="#91BAEE"/>
<path d="M203.483 292.014C207.473 292.571 210.192 297.054 211.115 300.975C211.341 301.934 211.423 302.946 211.879 303.82C212.335 304.694 213.324 305.404 214.271 305.131C215.334 304.825 215.728 303.55 215.927 302.461C217.107 295.996 217.281 289.202 215.193 282.971C213.104 276.741 208.504 271.14 202.307 268.952C193.845 265.965 183.805 270.21 178.97 277.771C174.136 285.332 176.003 304.197 178.86 304.343C181.716 304.488 178.86 301.081 182.753 294.785C184.313 292.262 187.329 281.079 187.329 281.079C187.329 281.079 193.526 290.625 203.483 292.014Z" fill="#6212A2"/>
<path d="M222.857 392.847H173.394C171.859 392.847 170.615 391.603 170.615 390.068V360.981C170.615 359.446 171.859 358.202 173.394 358.202H222.857C224.392 358.202 225.636 359.446 225.636 360.981V390.068C225.635 391.603 224.391 392.847 222.857 392.847Z" fill="#15052D"/>
<path d="M198.688 368.286L200.803 372.572L205.533 373.259C206.048 373.334 206.254 373.967 205.881 374.33L202.458 377.666L203.266 382.377C203.354 382.89 202.815 383.281 202.355 383.039L198.125 380.815L193.894 383.039C193.433 383.281 192.895 382.89 192.983 382.377L193.791 377.666L190.368 374.33C189.995 373.967 190.201 373.334 190.716 373.259L195.446 372.572L197.561 368.286C197.792 367.82 198.458 367.82 198.688 368.286Z" fill="white"/>
<path d="M285.039 416.846C284.777 415.318 284.521 413.79 284.301 412.262C284.059 410.734 283.875 409.205 283.661 407.676C283.445 406.148 283.285 404.618 283.094 403.089C282.902 401.56 282.736 400.031 282.583 398.502L282.108 393.914L281.704 389.325C281.575 387.795 281.42 386.266 281.322 384.736L280.994 380.146C280.761 377.086 280.58 374.026 280.486 370.964C280.443 369.433 280.414 367.902 280.405 366.37L280.424 361.775L280.549 352.584C280.545 349.521 280.545 346.458 280.395 343.397C280.376 343.007 280.401 342.625 280.465 342.256L280.562 341.725C280.842 340.181 281.085 338.575 281.286 336.984C281.498 335.389 281.652 333.782 281.832 332.181L282.818 322.564C283.151 319.363 283.365 316.145 283.602 312.941C283.818 309.733 284.065 306.539 284.187 303.34C284.322 300.143 284.426 296.957 284.492 293.796C284.525 290.632 284.495 287.487 284.408 284.412C284.367 282.876 284.261 281.355 284.155 279.873C284.039 278.392 283.914 276.944 283.716 275.588C283.517 274.241 283.271 272.96 282.973 272.025C282.823 271.554 282.637 271.196 282.485 271.117C282.372 271.063 282.106 271.138 282.543 272.727C279.156 264.26 283.275 254.651 291.741 251.265C300.208 247.878 309.817 251.997 313.203 260.463C314.229 263.563 314.265 265.243 314.364 266.791C314.425 268.317 314.364 269.575 314.273 270.721C314.105 273.021 313.802 274.98 313.465 276.868C313.127 278.747 312.776 280.529 312.385 282.274C312.003 284.017 311.575 285.718 311.175 287.4C310.367 290.76 309.485 294.035 308.595 297.28C307.732 300.526 306.836 303.739 305.914 306.93L303.187 316.47L300.414 325.944L297.638 335.385L296.23 340.096C295.771 341.674 295.347 343.237 294.942 344.857L295.11 343.185C295.049 346.249 295.138 349.311 295.222 352.373L295.614 361.557L295.766 366.15C295.801 367.681 295.817 369.213 295.818 370.744C295.813 373.807 295.72 376.872 295.577 379.937L295.382 384.535C295.329 386.067 295.219 387.601 295.134 389.133L294.863 393.732L294.522 398.332C294.413 399.865 294.292 401.398 294.144 402.932C293.998 404.466 293.882 405.999 293.71 407.533C293.54 409.067 293.401 410.601 293.203 412.135C293.027 413.669 292.816 415.204 292.599 416.739C292.302 418.832 290.364 420.287 288.272 419.99C286.587 419.748 285.315 418.438 285.039 416.846Z" fill="#E89A49"/>
<path d="M293.509 410.15L293.758 417.793C293.853 420.691 291.58 423.117 288.681 423.212L271.291 423.779C269.77 423.829 268.668 422.344 269.156 420.903C269.437 420.072 270.188 419.491 271.062 419.428L272.644 419.346C278.075 419.063 283.532 413.768 284.425 408.403L293.509 410.15Z" fill="#E89A49"/>
<path d="M269.156 420.902C269.437 420.071 270.188 419.49 271.062 419.427L272.644 419.345C276.98 419.119 280.718 416.507 282.507 412.736C283.581 415.14 285.831 417.035 289.162 417.035C291.133 417.035 292.629 416.378 293.679 415.351L293.758 417.793C293.853 420.691 291.58 423.117 288.681 423.212L271.291 423.779C269.771 423.828 268.669 422.344 269.156 420.902Z" fill="#15052D"/>
<path d="M311.89 395.177L319.017 397.948C321.72 398.999 323.059 402.042 322.008 404.744L315.703 420.961C315.151 422.379 313.353 422.81 312.219 421.796C311.565 421.212 311.326 420.293 311.611 419.464L312.156 417.977C314.028 412.871 312.787 408.27 306.795 403.076L311.89 395.177Z" fill="#E89A49"/>
<path d="M312.22 421.796C311.566 421.212 311.327 420.293 311.612 419.464L312.157 417.977C313.652 413.901 312.717 409.437 309.95 406.311C312.583 406.267 315.209 404.942 316.517 401.878C317.291 400.065 317.274 398.431 316.741 397.063L319.019 397.949C321.722 399 323.061 402.043 322.01 404.745L315.705 420.962C315.152 422.379 313.354 422.81 312.22 421.796Z" fill="#15052D"/>
<path d="M307.318 403.804C306.035 402.541 304.786 401.253 303.546 399.958C302.295 398.671 301.093 397.349 299.865 396.046L296.252 392.084L292.68 388.091C287.963 382.734 283.364 377.29 278.855 371.78C276.586 369.035 274.379 366.246 272.25 363.398C271.184 361.975 270.13 360.544 269.109 359.088C268.087 357.633 267.044 356.193 266.04 354.725C264.014 351.802 261.998 348.871 259.933 345.976C258.897 344.531 257.847 343.097 256.771 341.681C255.7 340.262 254.609 338.858 253.489 337.474C251.835 335.43 251.439 332.776 252.203 330.451L252.517 329.522C253.355 327.037 254.023 324.481 254.747 321.949C255.472 319.417 256.148 316.865 256.843 314.321C258.209 309.222 259.532 304.106 260.776 298.957C261.409 296.387 262.006 293.802 262.606 291.219L264.319 283.432L265.119 279.515C265.378 278.206 265.66 276.907 265.899 275.59C266.393 272.962 266.881 270.333 267.287 267.669C268.84 257.49 278.351 250.498 288.53 252.051C298.709 253.604 305.701 263.115 304.148 273.294C303.684 276.336 302.455 279.16 300.764 281.49C299.173 283.664 297.664 285.873 296.16 288.083C295.401 289.185 294.684 290.305 293.944 291.415L291.748 294.755L287.469 301.482C286.072 303.736 284.671 305.989 283.307 308.258C280.556 312.785 277.885 317.345 275.256 321.922C273.954 324.216 272.633 326.501 271.36 328.807C270.086 331.112 268.757 333.395 267.598 335.747L266.626 327.796C267.615 329.276 268.632 330.734 269.669 332.178C270.701 333.626 271.76 335.054 272.832 336.472C274.983 339.303 277.184 342.098 279.374 344.9C280.478 346.295 281.543 347.718 282.63 349.126C283.717 350.533 284.771 351.965 285.814 353.405C287.902 356.283 289.911 359.218 291.859 362.199C295.783 368.14 299.617 374.148 303.333 380.242L306.086 384.838L308.798 389.464C309.678 391.024 310.584 392.564 311.441 394.14C312.31 395.708 313.169 397.283 313.994 398.883C315.057 400.944 314.247 403.478 312.186 404.54C310.536 405.395 308.576 405.039 307.318 403.804Z" fill="#E89A49"/>
<path d="M254.314 339.524L279.233 374.537L282.562 406.672L294.502 407.56L295.345 392.292L304.089 400.814L309.06 387.676L296.632 368.857C296.632 368.857 295.567 345.777 296.632 342.936C297.697 340.095 312.966 295.355 316.161 283.283C319.357 271.21 317.581 261.268 313.675 249.906L270.527 244.536C270.527 244.536 266.805 257.717 265.385 270.145C264.391 278.841 256.148 304.814 251.288 319.628C249.076 326.365 250.202 333.746 254.314 339.524ZM270.356 332.282L282.784 310.622C282.784 310.622 278.788 333.986 278.518 341.526C278.497 342.089 270.356 332.282 270.356 332.282Z" fill="#BA0855"/>
<path d="M275.334 200.429C275.334 200.429 275.045 200.674 274.505 201.133C273.975 201.574 273.218 202.228 272.219 203.011C270.221 204.577 267.403 206.834 263.814 209.349C262.023 210.612 260.052 211.957 257.875 213.314C255.697 214.676 253.354 216.084 250.662 217.412C249.308 218.078 247.882 218.736 246.229 219.346C245.395 219.649 244.508 219.942 243.478 220.197C242.438 220.437 241.275 220.67 239.682 220.682C238.86 220.672 237.961 220.622 236.82 220.323C236.548 220.254 236.274 220.175 235.959 220.056L235.509 219.881L235.287 219.787C235.09 219.694 235.571 219.928 234.819 219.566L234.791 219.55L234.567 219.417L234.226 219.216L233.786 218.936L233.359 218.638L233.09 218.425L232.602 218.011C232.332 217.758 232.048 217.485 231.827 217.242C231.374 216.75 230.999 216.283 230.685 215.85C229.436 214.109 228.707 212.65 228.01 211.206C226.68 208.338 225.691 205.651 224.763 203.005C223.885 200.402 223.021 197.84 222.184 195.36C221.342 192.922 220.496 190.606 219.626 188.463C218.752 186.323 217.82 184.372 216.857 182.673C216.372 181.826 215.888 181.034 215.406 180.309C214.935 179.577 214.433 178.931 213.85 178.45C212.663 177.501 211.498 177.017 210.772 176.464C210.012 175.942 209.528 175.455 209.196 175.046C208.863 174.648 208.696 174.331 208.696 174.331L208.092 173.19C207.269 171.635 207.862 169.708 209.417 168.885C209.787 168.689 210.189 168.573 210.582 168.531C210.582 168.531 210.704 168.518 210.941 168.494C211.174 168.484 211.531 168.468 211.963 168.533C212.84 168.63 214.094 169.002 215.344 169.887C215.981 170.316 216.589 170.88 217.177 171.542C217.754 172.208 218.304 172.967 218.891 173.732C219.471 174.502 220.153 175.235 220.87 176.005C221.573 176.784 222.272 177.623 222.971 178.512C224.378 180.284 225.782 182.248 227.209 184.337C228.641 186.423 230.06 188.655 231.466 190.964C232.866 193.275 234.28 195.655 235.658 198.033C236.332 199.204 237.011 200.383 237.693 201.568C238.354 202.729 239.021 203.862 239.686 204.886C240.327 205.899 241.01 206.874 241.48 207.335C241.594 207.453 241.679 207.511 241.71 207.519C241.729 207.528 241.708 207.483 241.692 207.467C241.667 207.435 241.64 207.406 241.61 207.379L241.546 207.326C241.478 207.272 241.408 207.22 241.336 207.172C241.264 207.123 241.189 207.078 241.113 207.036C241.054 207.001 240.901 206.929 240.994 206.972L241.231 207.079L241.261 207.092L240.853 206.895L240.753 206.846L240.547 206.761L240.184 206.638C239.713 206.516 239.512 206.497 239.377 206.481C239.165 206.453 239.358 206.413 239.634 206.291C239.921 206.18 240.314 206.011 240.734 205.809C241.585 205.399 242.548 204.855 243.502 204.269C245.42 203.076 247.359 201.743 249.175 200.418C250.99 199.081 252.716 197.767 254.301 196.527C257.46 194.03 260.112 191.909 261.915 190.379C263.703 188.888 264.724 188.036 264.724 188.036L264.83 187.948C268.29 185.063 273.434 185.529 276.319 188.989C279.188 192.427 278.74 197.535 275.334 200.429Z" fill="#FFC0A9"/>
<path d="M311.965 184.617C299.9 184.252 300.987 173.996 300.987 173.996L292.918 173.747L286.283 171.432C286.283 171.432 285.936 184.252 273.871 184.617C269.95 184.735 262.083 197.469 262.083 197.469H317.405C317.405 197.469 313.77 184.671 311.965 184.617Z" fill="#FFC0A9"/>
<path d="M268.58 186.167C271.776 184.569 276.759 184.451 276.759 184.451C276.759 184.451 280.155 194.01 292.54 194.166C304.925 194.009 308.26 184.036 308.26 184.036C308.26 184.036 313.82 183.024 318.912 188.031C324.004 193.037 318.246 202.012 318.246 202.012C318.246 202.012 311.455 225.048 314.553 244.533C314.553 244.533 306.018 248.947 292.54 248.947C279.062 248.947 270.527 244.533 270.527 244.533C273.551 229.663 269.113 221.851 268.048 215.194C266.982 208.537 272.841 201.613 268.58 186.167Z" fill="#5493E3"/>
<path opacity="0.6" d="M282.606 310.711C282.606 310.711 287.87 285.153 285.802 276.535C285.802 276.535 282.251 301.657 270.356 332.282L282.606 310.711Z" fill="#FFAA03"/>
<path d="M271.005 147.012C271.763 137.679 277.478 132.651 288.033 132.263C294.324 132.032 300.24 135.256 303.796 140.449L304.309 141.199C307.25 145.491 308.278 152.508 306.999 157.561C306.999 157.561 306.017 157.747 302.78 163.818C299.543 169.89 301.66 180.64 301.66 180.64C301.66 180.64 290.672 187.554 287.251 180.596L287.347 172.29C287.347 172.29 281.487 174.949 276.994 172.783C274.646 171.65 269.458 166.058 271.005 147.012Z" fill="#FFC0A9"/>
<path d="M281.295 146.037C284.43 148.812 287.226 150.968 287.426 155.916C287.626 160.864 290.686 162.283 292.88 159.397C293.478 158.61 295.41 156.094 296.382 155.916C297.784 155.659 297.803 158.637 298.181 160.011C298.559 161.385 298.349 162.845 298.463 164.266C298.577 165.687 299.168 167.246 300.49 167.779C306.771 166.14 311.224 160.012 312.184 153.592C313.144 147.172 311.099 140.608 307.879 134.971C306.29 132.189 304.337 129.499 301.6 127.834C295.918 124.377 289.082 124.139 281.719 127.014C278.391 128.314 271.355 133.004 272.344 137.764C273.157 141.668 278.525 143.584 281.295 146.037Z" fill="#15052D"/>
<path d="M309.496 264.359L294.26 267.092L285.451 237.636L307.516 233.677L309.496 264.359Z" fill="#E89A49"/>
<path d="M309.252 256.858L308.161 241.101L287.426 244.821L291.881 259.974L309.252 256.858Z" fill="white"/>
<path d="M307.581 236.092L286.228 239.923C285.684 240.021 285.165 239.659 285.067 239.115L284.376 235.261C284.278 234.717 284.64 234.198 285.184 234.1L306.537 230.269C307.081 230.171 307.6 230.533 307.698 231.077L308.389 234.931C308.487 235.474 308.125 235.994 307.581 236.092Z" fill="#FFE79F"/>
<path d="M296.764 255.059C297.052 255.245 297.357 255.385 297.669 255.481L298.099 255.61C298.099 255.61 298.574 255.754 299.316 255.741C300.049 255.725 301.081 255.575 302.307 255.057C303.549 254.589 304.973 253.525 306.886 253.249C308.789 252.971 310.952 252.677 313.343 252.531C315.73 252.348 318.341 252.321 321.099 252.312C323.86 252.322 326.772 252.377 329.778 252.509C331.275 252.566 332.797 252.624 334.337 252.683C335.098 252.711 335.864 252.74 336.634 252.768L337.838 252.815L337.989 252.821L338.027 252.822C338.044 252.822 337.991 252.825 338.042 252.824L338.158 252.825H338.625L339.562 252.789C342.063 252.614 344.577 251.907 346.86 250.705C347.148 250.559 347.426 250.395 347.707 250.235L348.593 249.673L348.851 249.506C349.099 249.335 349.442 249.054 349.716 248.808C350.292 248.281 350.811 247.676 351.235 247.037C352.084 245.76 352.525 244.435 352.74 243.341C352.955 242.237 352.987 241.298 352.964 240.473C352.902 238.83 352.64 237.582 352.349 236.437C352.052 235.305 351.71 234.3 351.352 233.349C350.633 231.456 349.845 229.776 349.035 228.167C347.414 224.963 345.691 222.071 343.957 219.347C340.506 213.902 337.045 209.144 334.021 205.113C330.967 201.111 328.351 197.855 326.498 195.581C324.586 193.318 323.494 192.025 323.494 192.025C322.631 191.003 319.269 187.715 318.114 187.232C315.056 187.875 312.641 202.98 315.775 208.181C317.582 210.318 318.335 211.253 321.299 214.995C324.296 218.733 327.738 223.144 331.121 227.913C332.793 230.3 334.465 232.782 335.918 235.251C336.638 236.481 337.301 237.716 337.814 238.846C337.93 239.101 338.035 239.348 338.132 239.586C338.114 239.591 338.099 239.6 338.081 239.605L337.814 239.673L337.678 239.702L337.644 239.71C337.67 239.71 337.592 239.714 337.584 239.715L337.547 239.719L337.397 239.735L336.199 239.863C335.412 239.95 334.544 240.042 333.731 240.151C332.104 240.386 330.514 240.602 328.951 240.89C325.829 241.461 322.827 242.077 319.992 242.721C317.155 243.364 314.493 244.082 312.032 244.705C310.804 245.038 309.626 245.356 308.507 245.659C307.387 245.99 306.328 246.271 305.334 246.595C303.357 247.224 301.428 247.104 299.93 247.479C299.18 247.671 298.527 247.904 297.981 248.157C297.432 248.411 296.993 248.751 296.649 249.016C295.963 249.568 295.676 250.013 295.676 250.013C294.583 251.708 295.07 253.967 296.764 255.059ZM339.976 238.683C339.972 238.686 339.966 238.688 339.962 238.692C340.025 238.629 340.083 238.562 340.149 238.504C340.268 238.391 340.459 238.247 340.54 238.196L340.304 238.392C340.194 238.483 340.228 238.457 340.21 238.476C340.197 238.49 340.207 238.495 340.177 238.52C340.109 238.572 340.046 238.634 339.976 238.683Z" fill="#FFC0A9"/>
<path d="M301.305 159.747C301.305 161.863 299.59 163.578 297.474 163.578C295.358 163.578 293.643 161.863 293.643 159.747C293.643 157.631 295.358 155.916 297.474 155.916C299.589 155.915 301.305 157.631 301.305 159.747Z" fill="#FFC0A9"/>
<path d="M306.258 140.014C311.712 140.014 316.133 135.593 316.133 130.139C316.133 124.685 311.712 120.264 306.258 120.264C300.804 120.264 296.383 124.685 296.383 130.139C296.383 135.593 300.804 140.014 306.258 140.014Z" fill="#15052D"/>
<path d="M286.154 172.741L285.451 175.778C285.451 175.778 291.209 174.18 292.715 170.347C292.715 170.347 287.98 172.233 286.154 172.741Z" fill="#FFAD94"/>
<path d="M275.157 163.866C274.674 163.876 274.364 164.428 274.648 164.819C275.479 165.964 276.833 166.699 278.355 166.665C279.85 166.633 281.151 165.867 281.935 164.722C282.227 164.296 281.939 163.718 281.422 163.729L275.157 163.866Z" fill="white"/>
<path d="M424.53 370.249L446.853 423H449.483L432.662 362.719L424.53 370.249Z" fill="#FB523A"/>
<path d="M392.719 370.249L370.396 423H367.767L384.587 362.719L392.719 370.249Z" fill="#FB523A"/>
<path d="M361.234 358.772C352.267 366.514 370.767 386.725 399.767 388.869C428.767 391.014 452.883 371.737 469.421 338.271C485.96 304.806 487.219 258.472 438.993 277.742C390.767 297.013 391.882 357.145 391.882 357.145L361.234 358.772Z" fill="#BA0855"/>
<path d="M407.038 293.581C405.095 295.594 403.006 297.704 400.78 299.846C398.969 301.565 397.098 303.316 395.166 304.964C393.242 306.611 391.239 308.168 389.332 309.451C388.381 310.087 387.443 310.64 386.644 311.023C385.863 311.424 385.15 311.605 385.177 311.642C385.167 311.657 385.189 311.662 385.226 311.668C385.251 311.68 385.281 311.697 385.352 311.708C385.381 311.716 385.41 311.727 385.438 311.741L385.459 311.752C385.886 311.861 385.559 311.779 385.646 311.802L385.614 311.797L385.487 311.775C385.35 311.753 385.048 311.692 385.162 311.728C385.266 311.79 385.125 311.776 385.016 311.761C384.904 311.745 384.779 311.713 384.644 311.676C384.106 311.487 383.36 311.146 382.625 310.594C381.101 309.533 379.533 307.934 378.177 306.26C376.819 304.57 375.565 302.81 374.55 301.088C373.511 299.374 372.689 297.707 371.98 296.215C371.165 294.754 371.334 293.179 371.126 292.018C370.928 290.85 370.496 290.021 370.056 289.496C369.835 289.234 369.64 289.041 369.482 288.921C369.33 288.794 369.236 288.756 369.236 288.756L367.802 288.172C367.759 288.155 367.715 288.138 367.671 288.122C365.834 287.465 363.812 288.422 363.156 290.259C363.156 290.259 363.115 290.372 363.037 290.592C362.964 290.8 362.898 291.094 362.85 291.465C362.756 292.206 362.849 293.232 363.371 294.407C363.885 295.589 364.972 296.846 365.306 298.601C365.747 300.324 366.304 302.256 366.939 304.398C367.598 306.529 368.317 308.881 369.365 311.364C370.43 313.842 371.704 316.505 373.852 319.212C374.951 320.536 376.275 321.92 378.074 323.095C378.53 323.388 379.003 323.672 379.512 323.936C380.024 324.196 380.516 324.437 381.271 324.707L381.93 324.947L382.051 324.992L382.081 325.003C382.189 325.031 381.882 324.956 382.331 325.069L382.478 325.103L383.07 325.226C383.478 325.311 383.85 325.355 384.219 325.387C384.6 325.427 384.965 325.447 385.3 325.445C386.696 325.462 387.906 325.288 388.968 325.053C390.042 324.818 391.013 324.523 391.901 324.197C393.697 323.548 395.247 322.796 396.711 322.012C399.632 320.446 402.174 318.701 404.587 316.945C406.991 315.183 409.244 313.398 411.34 311.608C412.505 310.624 413.62 309.648 414.701 308.683C411.895 303.766 409.283 298.78 407.038 293.581Z" fill="#DB8832"/>
<path d="M386.971 328.264L352.885 306.028L351.138 332.709L383.346 346.764L395.721 338.514L386.971 328.264Z" fill="#325290"/>
<path d="M329.625 411.164L328.218 405.39L317.935 407.04C318.026 409.237 317.51 411.339 316.531 413.176C320.562 415.968 326.911 415.581 329.625 411.164Z" fill="#E89A49"/>
<path d="M329.443 410.417C328.352 412.587 326.23 414.254 323.158 414.254C320.204 414.254 318.351 412.73 317.512 410.701C316.406 414.747 313.231 418.034 309.002 419.151L307.415 419.57C306.541 419.82 305.903 420.57 305.794 421.472C305.606 423.038 307.039 424.31 308.572 423.937L326.095 419.668C329.016 418.957 330.806 416.012 330.095 413.092L329.443 410.417Z" fill="#15052D"/>
<path d="M308.616 386.739C311.108 387.307 313.247 385.996 315.12 384.417L315.864 378.326L305.66 376.243C305.056 378.071 304.038 379.665 302.746 380.957C303.476 383.678 305.851 386.108 308.616 386.739Z" fill="#E89A49"/>
<path d="M315.237 383.462C313.451 385.108 310.877 385.919 308.003 384.835C305.239 383.793 304.043 381.713 303.973 379.518C301.511 382.914 297.381 384.869 293.029 384.423L291.396 384.256C290.49 384.182 289.628 384.658 289.208 385.464C288.479 386.863 289.372 388.559 290.938 388.75L308.841 390.937C311.825 391.301 314.539 389.178 314.904 386.194L315.237 383.462Z" fill="#15052D"/>
<path d="M345.401 353.126C344.281 358.627 342.999 364.097 341.578 369.541C340.154 374.985 330.344 410.682 330.342 410.686C330.342 410.686 320.885 410.67 316.643 407.787C316.451 400.252 325.209 355.047 326.16 349.515C326.631 346.748 327.185 343.997 327.742 341.246C328.349 338.504 328.943 335.76 329.724 333.052C331.161 328.066 336.057 325.014 341.053 325.754L341.48 325.818C341.48 325.818 341.865 334.504 346.293 326.509C350.72 318.514 401.469 340.014 401.469 340.014C412.491 341.635 421.971 348.295 420.35 359.317C418.729 370.339 408.48 377.96 397.458 376.339C395.633 376.071 393.813 375.521 392.201 374.815L347.282 343.583C346.99 345.232 345.738 351.484 345.401 353.126Z" fill="#426DC0"/>
<path d="M458.33 292.245C455.146 287.171 453.042 285.457 447.011 281.254L437.912 277.93C433.716 275.17 430.436 275 427.829 275H427.826C424.764 275 419.571 280.096 419.571 280.096C419.571 280.096 418.682 281.035 417.126 282.776C415.538 284.54 413.254 287.044 410.46 290.012C409.042 291.53 407.487 293.15 405.829 294.846C407.076 297.171 408.267 299.515 409.42 301.884C406.65 310.481 403.494 313.038 398.75 320.861L386.251 327.477C386.251 327.477 386.251 340.104 419.369 362.357C425.493 350.536 429.77 344.757 437.471 335.513C449.318 321.29 464.137 301.502 458.33 292.245Z" fill="#15052D"/>
<path d="M415.879 243.023C417.044 233.144 423.311 228.037 434.546 228.054C441.241 228.064 447.405 231.728 450.986 237.386L451.503 238.203C454.464 242.88 455.287 250.373 453.733 255.686L446.207 267.594L447.52 281.804C447.52 281.804 435.225 286.871 431.856 279.344L432.278 270.528C432.278 270.528 425.947 273.113 421.255 270.631C418.801 269.333 413.502 263.184 415.879 243.023Z" fill="#E89A49"/>
<path d="M347.848 302.96C345.261 301.533 342.154 301.14 339.393 302.19C337.295 302.988 335.443 304.479 334.216 306.565C332.787 308.995 331.528 311.505 330.259 314.01C329.035 316.536 327.815 319.063 326.671 321.626C324.375 326.748 304.655 368.358 302.968 375.704C306.361 379.552 315.517 381.917 315.517 381.917C315.519 381.914 343.335 330.964 346.895 326.985C350.455 323.006 363.705 325.885 363.705 325.885L353.092 306.152L347.848 302.96Z" fill="#325290"/>
<path d="M377.813 306.993L370.984 302.983C370.408 302.644 370.045 302.035 370.022 301.367L369.358 281.932C369.306 280.394 370.97 279.404 372.297 280.183L379.126 284.193C379.702 284.531 380.066 285.141 380.088 285.809L380.752 305.244C380.803 306.781 379.139 307.772 377.813 306.993Z" fill="#2D0E5A"/>
<path d="M422.101 313.816C420.497 315.505 418.817 317.217 417.045 318.895C415.051 320.793 412.906 322.61 410.843 324.094C409.819 324.827 408.797 325.447 407.984 325.837C407.583 326.032 407.251 326.152 407.078 326.218C406.902 326.289 406.926 326.286 407.195 326.38C407.026 326.472 405.888 326.106 404.825 325.555C403.727 324.997 402.518 324.311 401.335 323.536C398.946 321.994 396.529 320.255 394.253 318.46C391.968 316.668 389.783 314.84 387.735 313.064C385.685 311.288 383.812 309.523 382.105 307.868C381.261 307.029 380.453 306.225 379.684 305.461C378.911 304.699 378.197 303.956 377.645 303.158C376.555 301.548 375.784 300.001 374.872 298.961C374 297.888 373.135 297.193 372.472 296.78C371.819 296.357 371.378 296.222 371.378 296.222L371.189 296.163C370.725 296.024 370.226 295.974 369.715 296.032C367.692 296.261 366.238 298.087 366.468 300.11C366.468 300.11 366.524 300.603 366.814 301.348C367.094 302.103 367.62 303.117 368.534 304.203C369.409 305.323 370.82 306.387 372.265 307.747C372.98 308.434 373.621 309.266 374.284 310.156C374.961 311.036 375.673 311.961 376.416 312.926C377.916 314.862 379.54 316.959 381.259 319.178C382.991 321.404 384.863 323.733 386.907 326.105C388.965 328.468 391.147 330.907 393.717 333.264C395.018 334.43 396.385 335.615 398.009 336.724C398.828 337.279 399.7 337.827 400.703 338.352C401.215 338.617 401.725 338.861 402.359 339.119L402.928 339.329L403.425 339.501L403.71 339.598L403.853 339.647C403.674 339.603 404.129 339.718 404.12 339.716L404.204 339.736L404.373 339.774C406.213 340.194 407.864 340.147 409.265 339.967C410.672 339.778 411.883 339.451 412.974 339.082C415.145 338.334 416.929 337.428 418.579 336.494C421.859 334.62 424.58 332.551 427.126 330.524C428.51 329.417 429.812 328.301 431.057 327.193C427.962 322.814 425.078 318.283 422.101 313.816Z" fill="#E89A49"/>
<path d="M432.279 270.528L439.757 268.049L431.962 275.341L432.279 270.528Z" fill="#D18536"/>
<path d="M422.078 235.337C422.078 235.337 417.795 237.478 415.654 245.24C415.654 245.24 410.836 232.928 424.755 229.448L422.078 235.337Z" fill="#D3E3F8"/>
<path d="M419.046 260.757C418.392 260.749 417.949 261.48 418.314 262.022C419.384 263.608 421.18 264.663 423.239 264.688C425.261 264.713 427.054 263.739 428.167 262.227C428.581 261.664 428.218 260.87 427.52 260.861L419.046 260.757Z" fill="white"/>
<path d="M429.471 216.749C424.188 217.75 414.849 222.264 418.253 234.227C418.982 236.788 421.449 238.769 424.111 238.818C426.836 238.869 429.962 237.242 432.037 239.01C433.7 240.428 433.377 243.017 433.128 245.188C432.879 247.359 433.247 250.149 435.337 250.789C436.827 251.246 438.495 250.294 439.968 250.804C441.442 251.314 442.078 253.051 442.234 254.602C442.39 256.153 442.279 257.805 443.027 259.173C443.876 260.725 445.686 261.579 447.451 261.687C450.721 261.888 450.307 265.279 454.504 264.638C457.721 264.146 457.096 260.774 459.96 258.271C461.912 256.565 464.104 254.868 464.617 252.326C465.609 247.412 461.283 242.938 460.967 237.935C460.766 234.758 461.928 232.784 460.84 229.448C459.752 226.111 457.349 224.063 453.251 222.973C444.637 220.68 443.471 214.097 429.471 216.749Z" fill="#D3E3F8"/>
<path d="M446.841 266.593L448.221 257.817L452.221 260.775L446.841 266.593Z" fill="#D3E3F8"/>
<path d="M386.51 152.964C370.37 152.964 358.35 168.045 362.395 184.884C364.797 194.884 373.421 202.128 383.621 203.437C392.406 204.565 399.108 201.534 404.451 196.109L410.896 205.292V176.552C410.896 163.38 399.919 152.964 386.51 152.964Z" fill="#BA0855"/>
<path d="M394.409 187.518V189.415H387.958H387.72H381.269V187.518C381.269 187.059 381.49 186.783 381.933 186.687C382.153 186.648 383.536 186.53 386.081 186.333V172.53C386.081 171.994 386.098 171.43 386.13 170.838L382.714 173.696C382.572 173.817 382.426 173.899 382.279 173.942C382.131 173.986 381.986 174.008 381.844 174.008C381.624 174.008 381.425 173.962 381.245 173.868C381.064 173.775 380.93 173.669 380.842 173.548L379.561 171.79L386.804 165.63H390.138V186.374C392.338 186.546 393.54 186.65 393.745 186.686C394.188 186.782 394.409 187.059 394.409 187.518Z" fill="white"/>
</g>
<defs>
<clipPath id="clip0_243_94">
<rect width="500" height="500" fill="white"/>
</clipPath>
</defs>
</svg>
