<svg width="420" height="400" viewBox="0 0 420 400" fill="none" xmlns="http://www.w3.org/2000/svg">
<g clip-path="url(#clip0_23_839)">
<mask id="mask0_23_839" style="mask-type:luminance" maskUnits="userSpaceOnUse" x="0" y="0" width="420" height="400">
<path d="M420 0H0V400H420V0Z" fill="white"/>
</mask>
<g mask="url(#mask0_23_839)">
<path d="M-19.7886 179.978C-6.0277 213.678 38.0236 238.954 75.4002 245.302C88.3715 247.505 101.801 247.526 114.371 251.289C139.431 258.79 158.266 282.157 159.308 307.142C160.199 328.525 149.734 349.972 165.478 368.761C174.837 379.929 190.555 385.935 205.424 384.026C237.059 379.962 259.252 356.602 293.19 367.773C317.698 375.841 343.417 402.811 328.926 428.576H-19.7886V179.978Z" fill="#0C001D"/>
</g>
<mask id="mask1_23_839" style="mask-type:luminance" maskUnits="userSpaceOnUse" x="0" y="0" width="420" height="400">
<path d="M420 0H0V400H420V0Z" fill="white"/>
</mask>
<g mask="url(#mask1_23_839)">
<path d="M448.842 -30.0905H223.145C207.648 -11.3825 199.116 13.2943 203.661 36.7279C208.206 60.1607 227.202 81.3719 251.709 86.1735C268.593 89.4816 286.528 85.2247 303.14 89.6047C322.742 94.7735 337.789 112.802 338.654 132.155C339.091 141.917 336.276 151.585 336.36 161.355C336.482 175.738 343.232 189.957 354.487 199.546C365.742 209.136 381.329 213.947 396.351 212.468C419.23 210.215 438.152 194.562 452.757 177.639L448.842 -30.0905Z" fill="#0C001D"/>
</g>
<mask id="mask2_23_839" style="mask-type:luminance" maskUnits="userSpaceOnUse" x="0" y="0" width="420" height="400">
<path d="M420 0H0V400H420V0Z" fill="white"/>
</mask>
<g mask="url(#mask2_23_839)">
<path d="M186.111 59.0404C188.622 49.0191 182.127 38.9568 171.605 36.5655C161.082 34.1743 150.517 40.3597 148.006 50.381C145.495 60.4023 151.99 70.4646 162.512 72.8558C173.035 75.247 183.6 69.0616 186.111 59.0404Z" fill="#2B398E" fill-opacity="0.9"/>
<path d="M177.531 50.8217C177.2 49.1449 173.406 49.7625 171.379 50.2185C170.856 50.3361 170.4 49.8665 170.566 49.3793C171.137 47.7113 171.87 44.7121 170.227 43.6585C169.817 43.3961 169.257 43.6657 169.191 44.1321C168.955 45.7865 168.069 49.5265 164.81 51.1409L162.812 52.0921C162.579 52.2033 162.431 52.4313 162.431 52.6801V59.5505C162.431 59.8449 162.634 60.1033 162.931 60.1825C164.596 60.6265 170.122 61.9361 175.031 61.2113C175.089 61.2025 175.146 61.1897 175.2 61.1697C178.279 60.0337 177.978 53.0993 177.531 50.8217Z" fill="white"/>
<path d="M160.344 52.2744H156.986C156.605 52.2744 156.296 52.5688 156.296 52.9312V59.436C156.296 59.7992 156.606 60.0928 156.986 60.0928H160.344C160.725 60.0928 161.033 59.7984 161.033 59.436V52.9312C161.033 52.568 160.724 52.2744 160.344 52.2744Z" fill="white"/>
</g>
<mask id="mask3_23_839" style="mask-type:luminance" maskUnits="userSpaceOnUse" x="0" y="0" width="420" height="400">
<path d="M420 0H0V400H420V0Z" fill="white"/>
</mask>
<g mask="url(#mask3_23_839)">
<path d="M286.134 166.33C286.134 166.33 311.09 174.701 323.943 186.097C329.23 190.784 331.73 196.563 335.01 202.419C339.222 209.938 346.557 215.622 351.131 223.089C355.941 230.942 359.374 239.564 361.175 248.495C363.135 258.215 367.029 261.489 374.972 267.397C382.994 273.363 391.016 279.33 399.037 285.296C410.469 293.799 421.901 302.302 433.352 310.819C433.352 310.819 432.51 342.081 399.264 357.712C386.639 350.498 333.452 305.773 333.452 305.773C285.639 303.121 273.78 259.96 266.573 255.319C260.912 211.46 286.134 166.33 286.134 166.33Z" fill="#FDB49A"/>
<path opacity="0.5" d="M373.308 307.39C357.98 311.599 342.816 300.128 337.689 294.776C332.563 289.424 331.002 274.799 331.002 274.799L290.614 287.515C300.287 296.779 313.842 304.684 333.453 305.772C333.453 305.772 351.688 321.106 369.339 335.265C370.35 334.93 371.066 334.606 371.335 334.307C373.256 332.171 388.637 303.18 373.308 307.39Z" fill="#FDB49A"/>
<path d="M282.832 166.33C282.832 166.33 219.869 136.913 213.171 139.438C206.091 142.106 229.603 162.583 243.127 169.402C256.65 176.22 288.438 194.711 288.438 194.711C288.438 194.711 296.677 171.824 282.832 166.33Z" fill="#FDB49A"/>
<path d="M324.508 129.447H242.687C238.239 129.447 234.634 132.881 234.634 137.117V292.038C234.634 296.274 238.239 299.707 242.687 299.707H324.508C328.955 299.707 332.561 296.274 332.561 292.038V137.116C332.561 132.88 328.956 129.447 324.508 129.447Z" fill="#2B398E" fill-opacity="0.9"/>
<path d="M324.509 134.949H305.887C303.526 134.949 301.418 136.357 300.613 138.471C299.808 140.586 297.699 141.994 295.338 141.994H271.858C269.497 141.994 267.389 140.586 266.583 138.471C265.778 136.357 263.67 134.949 261.309 134.949H242.688C241.43 134.949 240.411 135.919 240.411 137.117V277.73C240.411 278.926 241.43 279.898 242.688 279.898H324.509C325.765 279.898 326.783 278.928 326.783 277.731V137.116C326.783 135.919 325.764 134.949 324.509 134.949Z" fill="white"/>
<path d="M286.263 135.965C286.263 137.367 285.07 138.504 283.597 138.504C282.125 138.504 280.931 137.367 280.931 135.965C280.931 134.562 282.125 133.426 283.597 133.426C285.07 133.426 286.263 134.562 286.263 135.965Z" fill="white"/>
<path d="M292.837 137.478C293.715 137.478 294.426 136.8 294.426 135.965C294.426 135.129 293.715 134.452 292.837 134.452C291.96 134.452 291.249 135.129 291.249 135.965C291.249 136.8 291.96 137.478 292.837 137.478Z" fill="white"/>
<path d="M274.357 137.478C275.235 137.478 275.946 136.8 275.946 135.965C275.946 135.129 275.235 134.452 274.357 134.452C273.48 134.452 272.769 135.129 272.769 135.965C272.769 136.8 273.48 137.478 274.357 137.478Z" fill="white"/>
<path d="M326.782 161.994H240.411V236.599H326.782V161.994Z" fill="#E7EDF3"/>
<path d="M326.782 243.522H240.411V270.174H326.782V243.522Z" fill="#E7EDF3"/>
<path d="M295.373 285.04H271.822C270.19 285.04 268.866 286.3 268.866 287.855V291.962C268.866 293.516 270.189 294.777 271.822 294.777H295.373C297.005 294.777 298.329 293.517 298.329 291.962V287.855C298.328 286.3 297.005 285.04 295.373 285.04Z" fill="#1B75BA"/>
<path d="M314.256 172.093H252.94C249.85 172.093 247.345 174.478 247.345 177.422V214.612C247.345 217.555 249.85 219.941 252.94 219.941H314.256C317.346 219.941 319.851 217.555 319.851 214.612V177.422C319.85 174.478 317.345 172.093 314.256 172.093Z" fill="#BA0855" fill-opacity="0.5"/>
<path d="M284.576 224.739H250.677C248.836 224.739 247.344 226.16 247.344 227.914C247.344 229.666 248.836 231.087 250.677 231.087H284.576C286.416 231.087 287.909 229.666 287.909 227.914C287.909 226.16 286.417 224.739 284.576 224.739Z" fill="#CED2D6"/>
<path d="M299.053 249.942H265.154C263.314 249.942 261.821 251.362 261.821 253.115C261.821 254.868 263.313 256.29 265.154 256.29H299.053C300.894 256.29 302.387 254.869 302.387 253.115C302.387 251.363 300.895 249.942 299.053 249.942Z" fill="#CED2D6"/>
<path d="M284.576 151.574H250.677C248.836 151.574 247.344 152.995 247.344 154.748C247.344 156.501 248.836 157.922 250.677 157.922H284.576C286.416 157.922 287.909 156.502 287.909 154.748C287.909 152.995 286.417 151.574 284.576 151.574Z" fill="#E7EDF3"/>
<path d="M316.518 151.574H304.612C302.772 151.574 301.279 152.995 301.279 154.749C301.279 156.502 302.771 157.922 304.612 157.922H316.518C318.358 157.922 319.851 156.502 319.851 154.749C319.85 152.995 318.358 151.574 316.518 151.574Z" fill="#E7EDF3"/>
<path d="M303.467 183.485H263.727V208.549H303.467V183.485Z" fill="#27A8DF"/>
<path d="M283.597 201.764L303.467 189.232V183.485H263.727V189.232L283.597 201.764Z" fill="#64CAED"/>
<path d="M308.629 183.485C308.629 186.199 306.318 188.4 303.468 188.4C300.617 188.4 298.307 186.199 298.307 183.485C298.307 180.77 300.617 178.57 303.468 178.57C306.318 178.57 308.629 180.77 308.629 183.485Z" fill="#7429EF" fill-opacity="0.5"/>
<path d="M303.285 180.778C303.632 180.778 303.939 180.821 304.206 180.905C304.474 180.989 304.702 181.103 304.891 181.248C305.079 181.393 305.222 181.564 305.32 181.761C305.417 181.958 305.465 182.169 305.465 182.395C305.465 183.003 305.104 183.582 304.38 184.133L303.185 185.046H305.374C305.411 185.109 305.446 185.19 305.479 185.289C305.512 185.387 305.528 185.494 305.528 185.61C305.528 185.819 305.48 185.968 305.383 186.058C305.286 186.148 305.157 186.193 305 186.193H301.834C301.7 186.106 301.595 185.994 301.519 185.858C301.443 185.722 301.405 185.562 301.405 185.376C301.405 185.179 301.447 185.013 301.532 184.877C301.618 184.741 301.712 184.632 301.816 184.551L303.075 183.526C303.233 183.399 303.364 183.285 303.467 183.183C303.57 183.082 303.654 182.991 303.718 182.91C303.782 182.829 303.828 182.754 303.855 182.684C303.883 182.614 303.896 182.548 303.896 182.484C303.896 182.322 303.821 182.194 303.673 182.102C303.523 182.009 303.339 181.962 303.12 181.962C302.876 181.962 302.66 181.999 302.468 182.071C302.277 182.144 302.117 182.22 301.989 182.302C301.885 182.232 301.8 182.146 301.733 182.041C301.666 181.937 301.633 181.815 301.633 181.676C301.633 181.375 301.783 181.15 302.08 181.003C302.379 180.852 302.78 180.778 303.285 180.778Z" fill="white"/>
<path d="M319.85 249.942H304.625V264.442H319.85V249.942Z" fill="#BA0855" fill-opacity="0.5"/>
<path d="M312.237 258.102C313.683 258.102 314.855 256.986 314.855 255.61C314.855 254.233 313.683 253.116 312.237 253.116C310.792 253.116 309.619 254.232 309.619 255.61C309.619 256.987 310.792 258.102 312.237 258.102Z" fill="white"/>
<path d="M312.237 258.436C309.48 258.436 307.245 260.565 307.245 263.19V264.443H317.229V263.19C317.229 260.565 314.994 258.436 312.237 258.436Z" fill="white"/>
<path d="M234.64 238.433C234.64 238.433 210.754 239.046 207.84 248.454C204.926 257.862 239.415 267.387 243.326 267.1C247.238 266.814 242.764 254.962 234.64 251.237V238.433Z" fill="#FDB49A"/>
<path d="M353.034 234.394C352.692 232.782 352.36 231.332 352.082 230.109C351.138 225.955 348.24 222.791 343.608 222.57C336.971 222.252 330.567 224.751 325.218 228.164C309.358 238.284 278.405 247.257 278.405 247.257C278.405 247.257 282.27 258.33 303.403 255.901C309.98 253.606 319.641 251.181 328.701 250.701C328.702 250.71 330.655 273.263 344.607 270.174C358.663 267.061 355.569 246.314 353.034 234.394Z" fill="#FDB49A"/>
<path d="M283.749 253.115C283.788 253.106 293.259 250.941 296.545 249.571C299.477 248.35 299.374 242.378 293.294 242.198C284.862 245.306 278.405 247.258 278.405 247.258C278.405 247.258 279.506 250.52 283.749 253.115Z" fill="#7429EF" fill-opacity="0.5"/>
<path d="M242.287 258.279C240.929 257.75 231.34 254.189 230.244 258.668C229.469 261.834 232.403 264.106 234.513 265.298C238.828 266.506 242.247 267.179 243.327 267.1C245.686 266.928 244.991 262.546 242.287 258.279Z" fill="#7429EF" fill-opacity="0.5"/>
<path d="M416.369 293.618C416.369 293.618 437.787 288.982 451.646 294.777C465.504 300.571 471.079 318.195 480.544 323.99C490.008 329.784 511.182 340.566 511.182 340.566C511.182 340.566 506.112 400.12 462.17 412.03C462.17 412.03 434.881 393.359 429.428 392.394C423.976 391.428 409.905 388.159 389.674 378.834C375.381 372.245 377.668 346.038 377.668 346.038C377.668 346.038 404.03 301.394 416.369 293.618Z" fill="#BA0855" fill-opacity="0.5"/>
<path opacity="0.5" d="M225.353 247.552C229.264 247.664 234.64 251.238 234.64 251.238V238.434C234.64 238.434 223.721 238.718 215.747 241.809C220.179 243.081 226.929 246.273 225.353 247.552Z" fill="#FDB49A"/>
<path d="M234.637 217.127C234.637 217.127 209.315 217.778 206.226 227.75C203.136 237.724 246.777 252.477 250.177 250.197C255.83 246.406 243.25 234.65 234.637 230.702V217.127Z" fill="#FDB49A"/>
<path d="M247.76 240.511C245.215 239.202 237.318 235.543 235.687 239.65C233.738 244.56 241.146 248.458 241.146 248.458C241.146 248.458 242.165 248.961 243.482 249.57C246.952 250.395 249.462 250.677 250.178 250.197C253.004 248.302 251.273 244.417 247.76 240.511Z" fill="#7429EF" fill-opacity="0.5"/>
<path opacity="0.5" d="M234.637 230.701V217.127C234.637 217.127 225.892 217.354 218.052 219.564C220.204 220.319 223.445 221.753 225.914 222.884C227.436 223.582 227.627 225.562 226.275 226.526L226.214 226.57C230.943 227.663 234.637 230.701 234.637 230.701Z" fill="#FDB49A"/>
<path d="M234.637 193.265C234.637 193.265 209.315 193.914 206.226 203.888C203.136 213.862 246.777 228.614 250.177 226.334C255.83 222.544 243.25 210.788 234.637 206.839V193.265Z" fill="#FDB49A"/>
<path d="M250.177 226.334C252.775 224.593 251.518 221.169 248.57 217.594C248.57 217.594 237.637 211.394 235.687 216.303C233.745 221.194 241.086 225.079 241.141 225.109C245.809 226.383 249.31 226.917 250.177 226.334Z" fill="#7429EF" fill-opacity="0.5"/>
<path opacity="0.5" d="M307.912 250.43C304.9 254.202 297.715 255.56 293.589 256.038C296.355 256.333 299.595 256.338 303.403 255.901C309.98 253.606 319.641 251.181 328.701 250.701C328.702 250.707 329.706 262.28 335.403 267.71C330.705 261.682 331.753 248.277 332.199 243.522C327.074 250.014 311.255 250.718 307.912 250.43Z" fill="#FDB49A"/>
<path opacity="0.5" d="M453.227 363.912C445.675 372.004 430.569 373.203 421.128 370.506C411.687 367.808 395.323 348.927 406.056 333.642C414.702 321.328 417.564 300.773 418.351 293.243C417.094 293.462 416.37 293.618 416.37 293.618C404.031 301.394 377.669 346.038 377.669 346.038C377.669 346.038 375.382 372.245 389.675 378.834C409.906 388.159 423.977 391.428 429.429 392.394C434.882 393.359 462.171 412.03 462.171 412.03C468.01 410.448 473.157 408.018 477.702 405.004C458.311 396.336 452.075 374.608 453.227 363.912Z" fill="#BA0855" fill-opacity="0.5"/>
<path d="M392.918 276.956C392.918 276.956 368.127 319.838 355.523 326.788L377.669 346.038C377.669 346.038 408.162 332.262 416.369 293.618C408.146 288.714 392.918 276.956 392.918 276.956Z" fill="#7429EF" fill-opacity="0.5"/>
<path d="M381.23 338.195C380.88 338.195 380.529 338.09 380.23 337.874L366.468 327.891C365.743 327.365 365.603 326.379 366.155 325.688C366.707 324.997 367.745 324.865 368.469 325.39L382.231 335.372C382.956 335.898 383.096 336.884 382.544 337.574C382.219 337.982 381.727 338.195 381.23 338.195Z" fill="#D6441D"/>
<path d="M389.462 329.858C389.112 329.858 388.761 329.754 388.462 329.537L374.7 319.554C373.975 319.028 373.834 318.042 374.387 317.351C374.938 316.659 375.976 316.527 376.701 317.053L390.463 327.035C391.188 327.562 391.328 328.547 390.776 329.238C390.451 329.645 389.96 329.858 389.462 329.858Z" fill="#D6441D"/>
<path d="M398.29 318.322C397.941 318.322 397.59 318.217 397.291 318L383.528 308.018C382.803 307.491 382.663 306.506 383.216 305.814C383.768 305.123 384.804 304.991 385.529 305.516L399.292 315.498C400.017 316.025 400.157 317.01 399.604 317.702C399.281 318.108 398.789 318.322 398.29 318.322Z" fill="#D6441D"/>
<path d="M404.404 306.9C404.055 306.9 403.703 306.795 403.404 306.578L389.642 296.596C388.916 296.07 388.777 295.084 389.329 294.394C389.882 293.702 390.919 293.57 391.643 294.095L405.405 304.078C406.131 304.604 406.27 305.59 405.718 306.281C405.393 306.687 404.901 306.9 404.404 306.9Z" fill="#D6441D"/>
<path d="M408.433 296.922C408.084 296.922 407.733 296.817 407.434 296.6L393.672 286.618C392.947 286.091 392.807 285.105 393.359 284.415C393.91 283.723 394.949 283.592 395.673 284.117L409.434 294.099C410.16 294.626 410.3 295.612 409.747 296.302C409.423 296.708 408.93 296.922 408.433 296.922Z" fill="#D6441D"/>
<path opacity="0.5" d="M393.022 321.81C382.597 325.045 371.803 319.317 366.743 315.997C362.625 321.029 358.689 325.042 355.522 326.789L377.668 346.039C377.668 346.039 398.551 336.584 410.403 311.416C405.36 315.642 399.176 319.9 393.022 321.81Z" fill="#7429EF" fill-opacity="0.5"/>
</g>
<mask id="mask4_23_839" style="mask-type:luminance" maskUnits="userSpaceOnUse" x="0" y="0" width="420" height="400">
<path d="M420 0H0V400H420V0Z" fill="white"/>
</mask>
<g mask="url(#mask4_23_839)">
<path d="M137.685 116.466C137.685 116.466 112.727 124.838 99.875 136.234C87.023 147.63 62.4412 207.422 62.4412 207.422L-9.53418 260.954C-9.53418 260.954 -8.6925 292.217 24.5539 307.848C37.1791 300.634 90.3662 255.909 90.3662 255.909C138.179 253.257 150.038 210.096 157.244 205.454C162.906 161.597 137.685 116.466 137.685 116.466Z" fill="#FDB49A"/>
<path opacity="0.5" d="M93.6203 233.795C93.6203 233.795 83.3227 248.775 76.3003 256.041C69.2779 263.306 44.5341 255.077 36.1735 253.618C27.8139 252.16 25.4736 299.292 28.1482 301.522C28.5951 301.894 30.0281 302.318 32.0811 302.767C51.1617 288.875 90.3653 255.91 90.3653 255.91C112.908 254.659 127.453 244.404 137.292 233.427L107.732 225.378L93.6203 233.795Z" fill="#FDB49A"/>
<path d="M234.541 114.51C232.735 112.215 225.723 115.495 223.777 116.148C205.014 122.439 169.832 143.917 151.68 151.682C151.356 151.821 147.441 153.19 147.441 153.506L149.946 170.801C149.946 170.801 163.712 167.086 179.816 159.949C218.664 142.73 236.341 116.794 234.541 114.51Z" fill="#FDB49A"/>
<path opacity="0.5" d="M177.427 155.761C177.678 156.134 179.719 157.43 182.147 158.881C187.395 156.455 192.25 153.88 196.695 151.232C193.483 151.59 191.052 151.279 191.052 151.279L190.872 131.575C185.068 134.639 179.217 137.79 173.65 140.743C174.876 147.214 177.025 155.161 177.427 155.761Z" fill="#FDB49A"/>
<path d="M137.685 116.466C137.685 116.466 200.648 87.0497 207.346 89.5745C214.427 92.2433 190.914 112.72 177.39 119.538C163.867 126.357 132.079 144.848 132.079 144.848C132.079 144.848 123.84 121.961 137.685 116.466Z" fill="#FDB49A"/>
<path d="M177.717 79.5833H95.8959C91.4481 79.5833 87.8428 83.0169 87.8428 87.2529V242.174C87.8428 246.409 91.4481 249.843 95.8959 249.843H177.717C182.165 249.843 185.77 246.41 185.77 242.174V87.2529C185.769 83.0169 182.164 79.5833 177.717 79.5833Z" fill="#4C2A4B"/>
<path d="M177.717 85.0857H159.096C156.735 85.0857 154.626 86.4937 153.822 88.6081C153.017 90.7225 150.908 92.1305 148.546 92.1305H125.067C122.705 92.1305 120.597 90.7225 119.792 88.6081C118.987 86.4937 116.878 85.0857 114.517 85.0857H95.896C94.6394 85.0857 93.6196 86.0561 93.6196 87.2537V227.867C93.6196 229.063 94.6385 230.035 95.896 230.035H177.717C178.974 230.035 179.992 229.065 179.992 227.868V87.2529C179.992 86.0561 178.974 85.0857 177.717 85.0857Z" fill="white"/>
<path d="M136.806 88.6409C138.279 88.6409 139.472 87.5041 139.472 86.1017C139.472 84.6993 138.279 83.5625 136.806 83.5625C135.334 83.5625 134.14 84.6993 134.14 86.1017C134.14 87.5041 135.334 88.6409 136.806 88.6409Z" fill="white"/>
<path d="M147.634 86.1017C147.634 86.9369 146.922 87.6145 146.045 87.6145C145.169 87.6145 144.457 86.9369 144.457 86.1017C144.457 85.2665 145.169 84.5889 146.045 84.5889C146.923 84.5889 147.634 85.2665 147.634 86.1017Z" fill="white"/>
<path d="M125.978 86.1017C125.978 86.9369 126.689 87.6145 127.566 87.6145C128.443 87.6145 129.155 86.9369 129.155 86.1017C129.155 85.2665 128.444 84.5889 127.566 84.5889C126.689 84.5889 125.978 85.2665 125.978 86.1017Z" fill="white"/>
<path d="M179.992 112.13H93.6201V186.736H179.992V112.13Z" fill="#E7EDF3"/>
<path d="M179.992 193.659H93.6201V220.31H179.992V193.659Z" fill="#E7EDF3"/>
<path d="M148.582 235.177H125.031C123.399 235.177 122.075 236.437 122.075 237.992V242.098C122.075 243.653 123.398 244.914 125.031 244.914H148.582C150.214 244.914 151.538 243.654 151.538 242.098V237.992C151.538 236.437 150.214 235.177 148.582 235.177Z" fill="#6B3B6B"/>
<path d="M167.464 122.23H106.148C103.058 122.23 100.553 124.615 100.553 127.558V164.749C100.553 167.692 103.058 170.078 106.148 170.078H167.464C170.553 170.078 173.059 167.692 173.059 164.749V127.558C173.059 124.615 170.554 122.23 167.464 122.23Z" fill="#8ED7FF"/>
<path d="M153.194 145.791C151.67 143.978 148.775 143.978 147.251 145.791L140.703 153.582L129.612 140.383C128.088 138.57 125.193 138.57 123.669 140.383L104.213 163.535H132.339H149.067H168.105L153.194 145.791Z" fill="#54C0EF"/>
<path d="M146.077 138.476C146.077 141.084 143.857 143.198 141.118 143.198C138.38 143.198 136.16 141.084 136.16 138.476C136.16 135.868 138.38 133.754 141.118 133.754C143.857 133.754 146.077 135.868 146.077 138.476Z" fill="#FDD935"/>
<path d="M130.655 134.638C130.655 133.069 129.32 131.798 127.673 131.798C127.149 131.798 126.657 131.927 126.228 132.154C125.608 130.832 124.219 129.909 122.601 129.909C120.676 129.909 119.072 131.213 118.706 132.944C118.503 132.891 118.293 132.854 118.073 132.854C116.733 132.854 115.646 133.889 115.646 135.166H130.601C130.636 134.994 130.655 134.818 130.655 134.638Z" fill="white"/>
<path d="M165.699 141.194C165.699 139.478 164.239 138.088 162.438 138.088C161.865 138.088 161.326 138.23 160.858 138.478C160.181 137.032 158.662 136.023 156.892 136.023C154.787 136.023 153.032 137.45 152.633 139.342C152.411 139.285 152.181 139.244 151.94 139.244C150.474 139.244 149.287 140.375 149.287 141.771H165.639C165.677 141.584 165.699 141.391 165.699 141.194Z" fill="white"/>
<path d="M137.785 174.875H103.886C102.045 174.875 100.553 176.296 100.553 178.05C100.553 179.802 102.045 181.223 103.886 181.223H137.785C139.625 181.223 141.118 179.802 141.118 178.05C141.118 176.297 139.625 174.875 137.785 174.875Z" fill="#CED2D6"/>
<path d="M137.785 101.71H103.886C102.045 101.71 100.553 103.131 100.553 104.884C100.553 106.637 102.045 108.058 103.886 108.058H137.785C139.625 108.058 141.118 106.638 141.118 104.884C141.118 103.132 139.625 101.71 137.785 101.71Z" fill="#E7EDF3"/>
<path d="M169.726 101.71H157.82C155.98 101.71 154.487 103.131 154.487 104.884C154.487 106.637 155.979 108.058 157.82 108.058H169.726C171.566 108.058 173.059 106.638 173.059 104.884C173.059 103.132 171.566 101.71 169.726 101.71Z" fill="#E7EDF3"/>
<path d="M173.059 200.078H100.554V214.579H173.059V200.078Z" fill="#8ED7FF"/>
<path d="M77.7224 181.786C77.7224 181.786 93.2128 180.67 103.607 171.442C114.002 162.215 123.769 150.911 129.645 151.582C134.453 152.13 132.26 168.458 121.858 179.165C111.455 189.873 108.545 207.679 100.309 215.551C92.9004 222.634 83.6268 231.383 74.5287 221.646C68.3682 215.051 67.3526 209.236 69.2283 200.866C70.674 194.414 72.7563 186.686 77.7224 181.786Z" fill="#FDB49A"/>
<path d="M185.777 163.518C185.777 163.518 207.839 164.085 210.53 172.774C213.221 181.464 175.201 194.318 172.237 192.33C167.311 189.028 178.272 178.786 185.776 175.345L185.777 163.518Z" fill="#FDB49A"/>
<path d="M185.777 189.533C185.777 189.533 207.839 190.099 210.53 198.788C213.221 207.478 181.367 216.275 177.753 216.01C174.14 215.746 178.272 204.799 185.776 201.358L185.777 189.533Z" fill="#FDB49A"/>
<path d="M30.2082 225.607C30.2082 225.607 42.9048 252.51 55.2377 263.807C52.784 268.49 49.839 274.048 49.839 274.048L59.6544 268.905L71.9411 278.916L47.3845 297.937C47.3845 297.937 15.9752 272.624 6.65039 244.617C12.5405 239.512 30.2082 225.607 30.2082 225.607Z" fill="white"/>
<path d="M115.647 163.518C115.647 163.518 122.948 154.314 127.152 153.592C129.789 153.238 131.848 155.61 129.646 161.192C127.445 166.774 124.368 170.167 124.368 170.167C124.368 170.167 115.571 172.264 115.647 163.518Z" fill="#F9D3B7"/>
<path d="M181.807 183.232C181.387 183.169 180.964 183.238 180.573 183.395C179.115 183.983 175.426 185.751 172.481 189.532C171.997 190.779 172.815 191.482 173.935 191.933C174.836 192.295 180.807 190.528 183.126 189.817C183.755 189.624 184.276 189.198 184.55 188.626C185.304 187.047 186.204 183.894 181.807 183.232Z" fill="#F9D3B7"/>
<path d="M184.418 207.79C184.08 207.768 183.75 207.851 183.451 208.003C182.339 208.568 179.546 210.22 177.495 213.417C177.203 214.438 177.905 214.94 178.827 215.222C179.568 215.449 184.17 213.642 185.955 212.922C186.439 212.727 186.82 212.354 186.995 211.882C187.475 210.578 187.953 208.017 184.418 207.79Z" fill="#F9D3B7"/>
<path opacity="0.5" d="M185.777 163.518V175.345L191.054 172.841C191.054 172.841 188.365 171.491 188.415 169.211C188.449 167.714 190.249 165.395 191.485 163.975C188.177 163.582 185.777 163.518 185.777 163.518Z" fill="#FDB49A"/>
<path opacity="0.5" d="M194.397 190.397C189.678 189.635 185.777 189.533 185.777 189.533V201.359C185.777 201.359 187.284 200.894 188.63 200.146C185.01 197.006 191.401 192.314 194.397 190.397Z" fill="#FDB49A"/>
<path opacity="0.5" d="M118.483 183.209C118.483 183.209 110.673 189.629 107.295 196.226C103.916 202.821 92.2805 222.507 79.8569 225.376C87.1733 228.027 94.3453 221.254 100.309 215.552C107.575 208.606 110.703 193.93 118.485 183.217L118.483 183.209Z" fill="#FDB49A"/>
<path d="M14.7276 256.041C14.7058 257.864 14.7226 259.649 14.7746 261.395C27.6006 281.982 47.3843 297.937 47.3843 297.937L71.94 278.916L59.6533 268.905L49.8379 274.048C49.8379 274.048 52.7821 268.491 55.2366 263.807C53.0492 261.804 50.8526 259.304 48.7148 256.556L48.3864 256.43C48.3864 256.43 32.1433 266.59 14.7276 256.041Z" fill="#E7EDF3"/>
<path d="M11.9271 240.218C11.9271 240.218 23.3788 277.943 54.4261 292.482L-42.8048 373.082C-42.8048 373.082 -79.9848 347.654 -95.6836 296.63C-79.1591 287.311 11.9271 240.218 11.9271 240.218Z" fill="#2B398E" fill-opacity="0.9"/>
<path d="M48.3874 265.338C48.3874 267.308 46.7107 268.905 44.6427 268.905C42.5746 268.905 40.8979 267.308 40.8979 265.338C40.8979 263.369 42.5746 261.772 44.6427 261.772C46.7107 261.772 48.3874 263.369 48.3874 265.338Z" fill="#2B398E" fill-opacity="0.9"/>
<path opacity="0.5" d="M20.3009 258.786L20.1614 258.704C20.1614 258.704 23.387 293.762 2.09555 312.449C-11.9845 324.806 -45.0461 341.334 -65.8311 351.114C-53.4957 365.761 -42.805 373.081 -42.805 373.081L54.4259 292.481C37.9207 284.753 26.9537 270.47 20.3009 258.786Z" fill="#2B398E" fill-opacity="0.9"/>
</g>
<mask id="mask5_23_839" style="mask-type:luminance" maskUnits="userSpaceOnUse" x="0" y="0" width="420" height="400">
<path d="M420 0H0V400H420V0Z" fill="white"/>
</mask>
<g mask="url(#mask5_23_839)">
<path d="M227.05 70.7672H259.898C261.842 70.7672 263.419 72.2688 263.419 74.1208V92.7528V102.7V114.41L253.015 102.7H227.05C225.105 102.7 223.528 101.198 223.528 99.3464V74.1208C223.528 72.2688 225.105 70.7672 227.05 70.7672Z" fill="#8ED7FF"/>
<path d="M232.573 85.2304C231.64 84.364 232.155 82.8544 233.445 82.676L238.169 82.0224C238.682 81.9512 239.124 81.6455 239.353 81.2031L241.465 77.1263C242.043 76.0135 243.709 76.0135 244.285 77.1263L246.398 81.2031C246.627 81.6447 247.07 81.9512 247.582 82.0224L252.306 82.676C253.595 82.8544 254.111 84.364 253.178 85.2304L249.76 88.4039C249.389 88.7479 249.22 89.244 249.308 89.7296L250.115 94.2104C250.335 95.4336 248.987 96.3664 247.834 95.7888L243.608 93.6736C243.151 93.444 242.603 93.444 242.145 93.6736L237.92 95.7888C236.767 96.3664 235.418 95.4336 235.638 94.2104L236.446 89.7296C236.533 89.244 236.364 88.7479 235.994 88.4039L232.573 85.2304Z" fill="white"/>
</g>
<mask id="mask6_23_839" style="mask-type:luminance" maskUnits="userSpaceOnUse" x="0" y="0" width="420" height="400">
<path d="M420 0H0V400H420V0Z" fill="white"/>
</mask>
<g mask="url(#mask6_23_839)">
<path d="M344.156 165.27C351.309 158.458 351.309 147.414 344.156 140.602C337.004 133.79 325.407 133.79 318.254 140.602C311.102 147.414 311.102 158.458 318.255 165.27C325.407 172.082 337.004 172.082 344.156 165.27Z" fill="#7429EF" fill-opacity="0.5"/>
<path d="M340.109 146.326C334.176 143.718 331.209 150.238 331.209 150.238C331.209 150.238 328.242 143.718 322.307 146.326C316.374 148.934 323.905 160.237 331.209 162.193C338.512 160.237 346.044 148.934 340.109 146.326Z" fill="white"/>
</g>
<mask id="mask7_23_839" style="mask-type:luminance" maskUnits="userSpaceOnUse" x="0" y="0" width="420" height="400">
<path d="M420 0H0V400H420V0Z" fill="white"/>
</mask>
<g mask="url(#mask7_23_839)">
<path d="M173.734 270.547H101.357C92.9643 270.547 86.1611 277.026 86.1611 285.019V288.224C86.1611 296.217 92.9643 302.696 101.357 302.696H173.734C182.126 302.696 188.929 296.217 188.929 288.224V285.019C188.929 277.027 182.126 270.547 173.734 270.547Z" fill="#7429EF" fill-opacity="0.5"/>
<path d="M119.34 277.328C112.109 274.15 108.493 282.096 108.493 282.096C108.493 282.096 104.876 274.149 97.6449 277.328C90.4133 280.507 99.592 294.282 108.493 296.666C117.393 294.282 126.572 280.507 119.34 277.328Z" fill="white"/>
<path d="M135.489 290.985C136.65 290.985 137.581 290.699 138.28 290.129C138.978 289.558 139.328 288.771 139.328 287.769C139.128 287.924 138.76 288.106 138.225 288.314C137.689 288.522 137.004 288.625 136.169 288.625C135.333 288.625 134.576 288.513 133.894 288.288C133.214 288.063 132.628 287.73 132.138 287.29C131.648 286.849 131.266 286.309 130.995 285.669C130.722 285.03 130.586 284.286 130.586 283.438C130.586 282.695 130.722 281.99 130.995 281.325C131.267 280.659 131.675 280.071 132.22 279.562C132.765 279.052 133.441 278.646 134.249 278.342C135.057 278.04 135.996 277.889 137.067 277.889C139.209 277.889 140.893 278.572 142.119 279.938C143.344 281.303 143.958 283.249 143.958 285.773C143.958 287.208 143.767 288.47 143.385 289.559C143.004 290.649 142.473 291.556 141.792 292.282C141.112 293.009 140.299 293.554 139.355 293.917C138.411 294.28 137.367 294.462 136.224 294.462C134.77 294.462 133.636 294.271 132.82 293.891C132.003 293.511 131.594 292.931 131.594 292.154C131.594 291.79 131.68 291.44 131.853 291.103C132.025 290.766 132.229 290.511 132.466 290.338C132.956 290.546 133.469 290.705 134.005 290.818C134.539 290.929 135.034 290.985 135.489 290.985ZM137.231 285.305C137.576 285.305 137.926 285.236 138.28 285.098C138.634 284.959 138.928 284.769 139.164 284.526V284.215C139.146 283.23 138.965 282.512 138.62 282.062C138.275 281.613 137.767 281.388 137.095 281.388C136.495 281.388 136.028 281.566 135.693 281.92C135.356 282.274 135.189 282.754 135.189 283.359C135.189 283.947 135.379 284.418 135.761 284.773C136.141 285.128 136.632 285.305 137.231 285.305Z" fill="white"/>
<path d="M150.684 290.985C151.846 290.985 152.777 290.699 153.476 290.129C154.174 289.558 154.524 288.771 154.524 287.769C154.324 287.924 153.956 288.106 153.421 288.314C152.885 288.522 152.2 288.625 151.365 288.625C150.529 288.625 149.772 288.513 149.09 288.288C148.41 288.063 147.824 287.73 147.334 287.29C146.844 286.849 146.463 286.309 146.19 285.669C145.918 285.03 145.782 284.286 145.782 283.438C145.782 282.695 145.918 281.99 146.19 281.325C146.463 280.659 146.871 280.071 147.416 279.562C147.96 279.052 148.637 278.646 149.445 278.342C150.253 278.04 151.192 277.889 152.263 277.889C154.405 277.889 156.089 278.572 157.315 279.938C158.54 281.303 159.152 283.249 159.152 285.773C159.152 287.208 158.962 288.47 158.58 289.559C158.198 290.649 157.668 291.556 156.987 292.282C156.307 293.009 155.493 293.554 154.55 293.917C153.606 294.28 152.562 294.462 151.419 294.462C149.965 294.462 148.831 294.271 148.015 293.891C147.198 293.511 146.789 292.931 146.789 292.154C146.789 291.79 146.875 291.44 147.048 291.103C147.219 290.766 147.424 290.511 147.66 290.338C148.15 290.546 148.663 290.705 149.199 290.818C149.735 290.929 150.23 290.985 150.684 290.985ZM152.427 285.305C152.772 285.305 153.121 285.236 153.476 285.098C153.83 284.959 154.124 284.769 154.36 284.526V284.215C154.342 283.23 154.16 282.512 153.816 282.062C153.471 281.613 152.963 281.388 152.291 281.388C151.691 281.388 151.224 281.566 150.889 281.92C150.553 282.274 150.385 282.754 150.385 283.359C150.385 283.947 150.574 284.418 150.957 284.773C151.337 285.128 151.828 285.305 152.427 285.305Z" fill="white"/>
<path d="M165.88 290.985C167.041 290.985 167.972 290.699 168.671 290.129C169.369 289.558 169.719 288.771 169.719 287.769C169.519 287.924 169.152 288.106 168.616 288.314C168.081 288.522 167.395 288.625 166.56 288.625C165.724 288.625 164.968 288.513 164.285 288.288C163.605 288.063 163.02 287.73 162.529 287.29C162.039 286.849 161.658 286.309 161.386 285.669C161.114 285.03 160.978 284.286 160.978 283.438C160.978 282.695 161.114 281.99 161.386 281.325C161.658 280.659 162.066 280.071 162.611 279.562C163.156 279.052 163.832 278.646 164.64 278.342C165.448 278.04 166.387 277.889 167.459 277.889C169.601 277.889 171.285 278.572 172.511 279.938C173.736 281.303 174.349 283.249 174.349 285.773C174.349 287.208 174.158 288.47 173.776 289.559C173.394 290.649 172.864 291.556 172.183 292.282C171.503 293.009 170.69 293.554 169.746 293.917C168.802 294.28 167.758 294.462 166.615 294.462C165.162 294.462 164.028 294.271 163.211 293.891C162.394 293.511 161.986 292.931 161.986 292.154C161.986 291.79 162.071 291.44 162.244 291.103C162.416 290.766 162.621 290.511 162.857 290.338C163.347 290.546 163.86 290.705 164.396 290.818C164.931 290.929 165.425 290.985 165.88 290.985ZM167.622 285.305C167.967 285.305 168.317 285.236 168.671 285.098C169.025 284.959 169.32 284.769 169.556 284.526V284.215C169.537 283.23 169.356 282.512 169.011 282.062C168.666 281.613 168.158 281.388 167.486 281.388C166.886 281.388 166.419 281.566 166.084 281.92C165.748 282.274 165.58 282.754 165.58 283.359C165.58 283.947 165.77 284.418 166.152 284.773C166.532 285.128 167.023 285.305 167.622 285.305Z" fill="white"/>
<path d="M172.051 271.627L150.444 254.138V271.627H172.051Z" fill="#7429EF" fill-opacity="0.5"/>
</g>
<mask id="mask8_23_839" style="mask-type:luminance" maskUnits="userSpaceOnUse" x="0" y="0" width="420" height="400">
<path d="M420 0H0V400H420V0Z" fill="white"/>
</mask>
<g mask="url(#mask8_23_839)">
<path d="M377.256 70.2192H288.142C285.898 70.2192 284.08 71.9512 284.08 74.088V105.154V108.758V123.732L307.369 108.758H377.255C379.499 108.758 381.317 107.026 381.317 104.889V74.0888C381.317 71.9512 379.499 70.2192 377.256 70.2192Z" fill="#BA0855" fill-opacity="0.5"/>
<path d="M318.147 75.2776H288.853V103.177H318.147V75.2776Z" fill="#7429EF" fill-opacity="0.5"/>
<path d="M303.5 90.9776C306.281 90.9776 308.536 88.8296 308.536 86.1808C308.536 83.5312 306.281 81.384 303.5 81.384C300.717 81.384 298.463 83.5312 298.463 86.1808C298.463 88.8296 300.717 90.9776 303.5 90.9776Z" fill="white"/>
<path d="M303.5 91.6193C298.195 91.6193 293.895 95.7145 293.895 100.766V103.176H313.104V100.766C313.103 95.7145 308.804 91.6193 303.5 91.6193Z" fill="white"/>
<path d="M343.991 76.744H326.064C324.042 76.744 322.403 78.3048 322.403 80.2304C322.403 82.156 324.042 83.7168 326.064 83.7168H343.991C346.013 83.7168 347.652 82.156 347.652 80.2304C347.652 78.3048 346.013 76.744 343.991 76.744Z" fill="#401486"/>
<path d="M371.382 92.1296H326.064C324.042 92.1296 322.403 93.6904 322.403 95.616C322.403 97.5416 324.042 99.1024 326.064 99.1024H371.382C373.404 99.1024 375.043 97.5416 375.043 95.616C375.043 93.6912 373.404 92.1296 371.382 92.1296Z" fill="#401486"/>
</g>
<mask id="mask9_23_839" style="mask-type:luminance" maskUnits="userSpaceOnUse" x="0" y="0" width="420" height="400">
<path d="M420 0H0V400H420V0Z" fill="white"/>
</mask>
<g mask="url(#mask9_23_839)">
<path d="M302.125 316.79H234.209C231.238 316.79 228.83 319.083 228.83 321.912V350.51C228.83 353.34 231.238 355.633 234.209 355.633H302.125C305.095 355.633 307.504 353.339 307.504 350.51V321.912C307.504 319.083 305.095 316.79 302.125 316.79Z" fill="#4C2A4B"/>
<path d="M251.84 321.99C243.447 321.99 236.643 328.47 236.643 336.464C236.643 344.458 243.447 350.938 251.84 350.938C260.234 350.938 267.038 344.458 267.038 336.464H251.84V321.99Z" fill="#64CAED"/>
<path d="M255.016 321.99V333.441H267.039C267.038 327.117 261.655 321.99 255.016 321.99Z" fill="white"/>
<path d="M286.207 323.16H274.057C272.552 323.16 271.333 324.322 271.333 325.755C271.333 327.189 272.552 328.35 274.057 328.35H286.207C287.712 328.35 288.932 327.189 288.932 325.755C288.932 324.322 287.712 323.16 286.207 323.16Z" fill="#8C528E"/>
<path d="M296.984 332.985H274.057C272.552 332.985 271.333 334.146 271.333 335.58C271.333 337.014 272.552 338.175 274.057 338.175H296.984C298.489 338.175 299.709 337.014 299.709 335.58C299.709 334.146 298.489 332.985 296.984 332.985Z" fill="#8C528E"/>
<path d="M296.984 342.809H274.057C272.552 342.809 271.333 343.97 271.333 345.404C271.333 346.838 272.552 347.999 274.057 347.999H296.984C298.489 347.999 299.709 346.838 299.709 345.404C299.709 343.971 298.489 342.809 296.984 342.809Z" fill="#8C528E"/>
<path d="M307.504 321.913V301.82C307.504 301.82 284.922 317.781 285.672 318.221C286.421 318.66 307.504 321.913 307.504 321.913Z" fill="#4C2A4B"/>
</g>
<mask id="mask10_23_839" style="mask-type:luminance" maskUnits="userSpaceOnUse" x="0" y="0" width="420" height="400">
<path d="M420 0H0V400H420V0Z" fill="white"/>
</mask>
<g mask="url(#mask10_23_839)">
<path d="M378.162 146.782H374.16V142.97C374.16 141.888 373.239 141.01 372.102 141.01C370.966 141.01 370.044 141.888 370.044 142.97V146.782H366.043C364.907 146.782 363.985 147.659 363.985 148.742C363.985 149.824 364.907 150.702 366.043 150.702H370.044V154.512C370.044 155.594 370.966 156.472 372.102 156.472C373.239 156.472 374.16 155.594 374.16 154.512V150.702H378.162C379.299 150.702 380.22 149.824 380.22 148.742C380.22 147.659 379.299 146.782 378.162 146.782Z" fill="#64CAED"/>
</g>
<mask id="mask11_23_839" style="mask-type:luminance" maskUnits="userSpaceOnUse" x="0" y="0" width="420" height="400">
<path d="M420 0H0V400H420V0Z" fill="white"/>
</mask>
<g mask="url(#mask11_23_839)">
<path d="M224.177 54.4848H220.175V50.6736C220.175 49.5912 219.253 48.7136 218.117 48.7136C216.98 48.7136 216.059 49.5912 216.059 50.6736V54.4848H212.057C210.921 54.4848 209.999 55.3624 209.999 56.4448C209.999 57.5272 210.921 58.4048 212.057 58.4048H216.059V62.216C216.059 63.2984 216.98 64.176 218.117 64.176C219.253 64.176 220.175 63.2984 220.175 62.216V58.4048H224.177C225.313 58.4048 226.235 57.5272 226.235 56.4448C226.235 55.3624 225.313 54.4848 224.177 54.4848Z" fill="#7429EF" fill-opacity="0.5"/>
</g>
<mask id="mask12_23_839" style="mask-type:luminance" maskUnits="userSpaceOnUse" x="0" y="0" width="420" height="400">
<path d="M420 0H0V400H420V0Z" fill="white"/>
</mask>
<g mask="url(#mask12_23_839)">
<path d="M61.3261 181.705H57.3252V177.894C57.3252 176.811 56.4037 175.934 55.2672 175.934C54.1307 175.934 53.2092 176.811 53.2092 177.894V181.705H49.2074C48.0709 181.705 47.1494 182.582 47.1494 183.665C47.1494 184.747 48.0709 185.625 49.2074 185.625H53.2092V189.435C53.2092 190.518 54.1307 191.395 55.2672 191.395C56.4037 191.395 57.3252 190.518 57.3252 189.435V185.625H61.3261C62.4626 185.625 63.3841 184.747 63.3841 183.665C63.3841 182.582 62.4626 181.705 61.3261 181.705Z" fill="#4C2A4B"/>
</g>
<mask id="mask13_23_839" style="mask-type:luminance" maskUnits="userSpaceOnUse" x="0" y="0" width="420" height="400">
<path d="M420 0H0V400H420V0Z" fill="white"/>
</mask>
<g mask="url(#mask13_23_839)">
<path d="M333.801 325.755H329.799V321.945C329.799 320.862 328.877 319.985 327.741 319.985C326.604 319.985 325.683 320.862 325.683 321.945V325.755H321.682C320.545 325.755 319.624 326.633 319.624 327.715C319.624 328.798 320.545 329.675 321.682 329.675H325.683V333.486C325.683 334.569 326.604 335.446 327.741 335.446C328.877 335.446 329.799 334.569 329.799 333.486V329.675H333.801C334.937 329.675 335.859 328.798 335.859 327.715C335.859 326.633 334.937 325.755 333.801 325.755Z" fill="#7429EF" fill-opacity="0.5"/>
</g>
<mask id="mask14_23_839" style="mask-type:luminance" maskUnits="userSpaceOnUse" x="0" y="0" width="420" height="400">
<path d="M420 0H0V400H420V0Z" fill="white"/>
</mask>
<g mask="url(#mask14_23_839)">
<path d="M208.501 265.75H204.499V261.94C204.499 260.858 203.578 259.98 202.441 259.98C201.305 259.98 200.383 260.858 200.383 261.94V265.75H196.382C195.245 265.75 194.324 266.628 194.324 267.71C194.324 268.793 195.245 269.67 196.382 269.67H200.383V273.482C200.383 274.564 201.305 275.442 202.441 275.442C203.578 275.442 204.499 274.564 204.499 273.482V269.67H208.501C209.638 269.67 210.559 268.793 210.559 267.71C210.559 266.628 209.638 265.75 208.501 265.75Z" fill="white"/>
</g>
<mask id="mask15_23_839" style="mask-type:luminance" maskUnits="userSpaceOnUse" x="0" y="0" width="420" height="400">
<path d="M420 0H0V400H420V0Z" fill="white"/>
</mask>
<g mask="url(#mask15_23_839)">
<path d="M101.069 71.072C96.8434 71.072 93.4053 67.7976 93.4053 63.7736C93.4053 59.7496 96.8434 56.4752 101.069 56.4752C105.294 56.4752 108.732 59.7496 108.732 63.7736C108.732 67.7976 105.294 71.072 101.069 71.072ZM101.069 59.6752C98.6956 59.6752 96.7653 61.5136 96.7653 63.7736C96.7653 66.0336 98.6956 67.872 101.069 67.872C103.442 67.872 105.372 66.0336 105.372 63.7736C105.372 61.5136 103.442 59.6752 101.069 59.6752Z" fill="#8ED7FF"/>
</g>
<mask id="mask16_23_839" style="mask-type:luminance" maskUnits="userSpaceOnUse" x="0" y="0" width="420" height="400">
<path d="M420 0H0V400H420V0Z" fill="white"/>
</mask>
<g mask="url(#mask16_23_839)">
<path d="M371.649 221.182C367.423 221.182 363.985 217.908 363.985 213.884C363.985 209.86 367.423 206.586 371.649 206.586C375.874 206.586 379.312 209.86 379.312 213.884C379.312 217.909 375.874 221.182 371.649 221.182ZM371.649 209.786C369.276 209.786 367.345 211.624 367.345 213.884C367.345 216.144 369.276 217.982 371.649 217.982C374.022 217.982 375.952 216.144 375.952 213.884C375.952 211.624 374.022 209.786 371.649 209.786Z" fill="#4C2A4B"/>
</g>
<mask id="mask17_23_839" style="mask-type:luminance" maskUnits="userSpaceOnUse" x="0" y="0" width="420" height="400">
<path d="M420 0H0V400H420V0Z" fill="white"/>
</mask>
<g mask="url(#mask17_23_839)">
<path d="M220.439 309.438C216.214 309.438 212.775 306.163 212.775 302.139C212.775 298.115 216.214 294.841 220.439 294.841C224.664 294.841 228.102 298.115 228.102 302.139C228.102 306.163 224.664 309.438 220.439 309.438ZM220.439 298.041C218.066 298.041 216.135 299.879 216.135 302.139C216.135 304.399 218.066 306.238 220.439 306.238C222.812 306.238 224.742 304.399 224.742 302.139C224.742 299.879 222.812 298.041 220.439 298.041Z" fill="#64CAED"/>
</g>
<mask id="mask18_23_839" style="mask-type:luminance" maskUnits="userSpaceOnUse" x="0" y="0" width="420" height="400">
<path d="M420 0H0V400H420V0Z" fill="white"/>
</mask>
<g mask="url(#mask18_23_839)">
<path d="M102.036 98.1736H61.106C58.7624 98.1736 56.8623 99.9832 56.8623 102.215V141.196C56.8623 143.428 58.7624 145.238 61.106 145.238H102.036C104.379 145.238 106.28 143.428 106.28 141.196V102.215C106.28 99.9832 104.38 98.1736 102.036 98.1736Z" fill="#7429EF" fill-opacity="0.5"/>
<path d="M95.6618 103.285C96.8387 103.285 97.7929 104.194 97.7929 105.314V136.134C97.7929 137.254 96.8387 138.163 95.6618 138.163C94.485 138.163 93.5308 137.254 93.5308 136.134V105.314C93.5308 104.194 94.485 103.285 95.6618 103.285Z" fill="white"/>
<path d="M92.3799 135.906V120.723V105.54C84.7208 118.376 75.3716 113.286 75.3716 113.286V120.723V128.161C75.3716 128.161 84.7208 123.07 92.3799 135.906Z" fill="white"/>
<path d="M74.0308 113.121H67.735C65.5015 113.121 63.6904 114.846 63.6904 116.973V124.475C63.6904 126.602 65.5015 128.327 67.735 128.327H74.0308V113.121Z" fill="white"/>
<path d="M74.0307 136.786V131.283C74.0307 130.172 73.0848 129.272 71.9189 129.272C70.753 129.272 69.8071 130.173 69.8071 131.283V136.786C69.8071 137.898 70.753 138.798 71.9189 138.798C73.0856 138.798 74.0307 137.897 74.0307 136.786Z" fill="white"/>
<path d="M103.17 98.1736H117.858L103.17 115.881V98.1736Z" fill="#7429EF" fill-opacity="0.5"/>
</g>
<mask id="mask19_23_839" style="mask-type:luminance" maskUnits="userSpaceOnUse" x="0" y="0" width="420" height="400">
<path d="M420 0H0V400H420V0Z" fill="white"/>
</mask>
<g mask="url(#mask19_23_839)">
<path d="M193.641 319.711H161.077C158.866 319.711 157.072 321.419 157.072 323.526V349.874C157.072 351.981 158.866 353.689 161.077 353.689H193.641C195.853 353.689 197.646 351.981 197.646 349.874V323.526C197.646 321.419 195.853 319.711 193.641 319.711Z" fill="#8ED7FF"/>
<path d="M176.134 342.174C175.398 342.174 174.713 342.072 174.081 341.868C173.447 341.664 172.9 341.359 172.438 340.951C171.976 340.544 171.613 340.039 171.348 339.436C171.083 338.834 170.95 338.141 170.95 337.358C170.95 336.381 171.12 335.522 171.463 334.78C171.805 334.038 172.271 333.415 172.862 332.91C173.452 332.406 174.136 332.022 174.915 331.762C175.693 331.502 176.527 331.37 177.417 331.37C178.238 331.37 179.016 331.468 179.752 331.664C180.487 331.859 181.129 332.145 181.677 332.519C182.344 332.959 182.677 333.506 182.677 334.157C182.677 334.206 182.677 334.279 182.677 334.377C182.677 334.474 182.669 334.565 182.652 334.646L182.113 339.045C182.181 339.078 182.283 339.102 182.421 339.118C182.558 339.135 182.669 339.143 182.754 339.143C183.525 339.143 184.131 338.798 184.576 338.105C185.022 337.412 185.243 336.512 185.243 335.404C185.243 334.475 185.046 333.624 184.653 332.85C184.259 332.077 183.716 331.413 183.023 330.858C182.33 330.305 181.5 329.873 180.534 329.563C179.568 329.254 178.512 329.098 177.365 329.098C176.031 329.098 174.807 329.302 173.696 329.71C172.584 330.117 171.63 330.683 170.835 331.408C170.039 332.134 169.424 332.989 168.987 333.974C168.551 334.961 168.333 336.031 168.333 337.188C168.333 338.312 168.525 339.322 168.91 340.218C169.294 341.114 169.829 341.88 170.513 342.515C171.197 343.15 172.005 343.635 172.938 343.97C173.871 344.303 174.892 344.47 176.004 344.47C176.774 344.47 177.403 344.438 177.891 344.373C178.378 344.307 178.81 344.25 179.186 344.202C179.305 344.381 179.413 344.601 179.507 344.862C179.601 345.122 179.648 345.366 179.648 345.595C179.648 345.938 179.588 346.238 179.468 346.499C179.349 346.759 179.139 346.979 178.84 347.159C178.54 347.338 178.134 347.477 177.621 347.574C177.108 347.672 176.466 347.721 175.697 347.721C174.379 347.721 173.041 347.525 171.681 347.134C170.321 346.743 169.084 346.128 167.972 345.289C166.86 344.45 165.954 343.362 165.252 342.026C164.551 340.69 164.2 339.078 164.2 337.187C164.2 335.461 164.537 333.9 165.214 332.507C165.889 331.114 166.817 329.938 167.998 328.976C169.178 328.014 170.569 327.274 172.168 326.752C173.767 326.231 175.491 325.97 177.339 325.97C179.1 325.97 180.717 326.194 182.188 326.642C183.659 327.09 184.925 327.722 185.986 328.537C187.046 329.352 187.872 330.346 188.462 331.518C189.053 332.691 189.348 333.995 189.348 335.429C189.348 337.612 188.775 339.302 187.628 340.5C186.482 341.698 184.857 342.296 182.753 342.296C182.24 342.296 181.671 342.226 181.047 342.088C180.422 341.95 179.862 341.734 179.366 341.441C179.006 341.637 178.557 341.807 178.019 341.954C177.481 342.1 176.852 342.174 176.134 342.174ZM178.572 334.866C178.47 334.802 178.323 334.744 178.136 334.695C177.948 334.646 177.7 334.622 177.392 334.622C177.118 334.622 176.853 334.674 176.596 334.781C176.339 334.887 176.113 335.05 175.917 335.27C175.72 335.49 175.562 335.77 175.442 336.113C175.322 336.455 175.263 336.862 175.263 337.334C175.263 337.872 175.399 338.292 175.673 338.593C175.947 338.894 176.358 339.045 176.906 339.045C177.214 339.045 177.462 339.008 177.65 338.935C177.838 338.862 178.017 338.776 178.188 338.678L178.572 334.866Z" fill="white"/>
<path d="M197.646 323.526V309.471L178.93 319.711L197.646 323.526Z" fill="#8ED7FF"/>
</g>
</g>
<defs>
<clipPath id="clip0_23_839">
<rect width="420" height="400" fill="white"/>
</clipPath>
</defs>
</svg>
