<svg width="500" height="500" viewBox="0 0 500 500" fill="none" xmlns="http://www.w3.org/2000/svg">
<path d="M402.738 55.546C398.405 53.045 394.744 54.27 393.581 58.157C392.459 55.979 390.781 54.033 388.901 52.947C385.507 50.987 382.744 52.562 382.733 56.462L382.728 58.253L378.171 55.622C375.792 54.249 373.861 55.354 373.853 58.087C373.845 60.82 375.765 64.144 378.143 65.518L416.75 87.808C419.129 89.181 421.065 88.083 421.072 85.349C421.08 82.616 419.156 79.284 416.778 77.911L412.221 75.28L412.23 71.984C412.246 65.943 407.997 58.582 402.738 55.546Z" fill="#E6E6E6"/>
<path d="M360.519 63.023C357.409 61.228 354.782 62.107 353.946 64.897C353.141 63.333 351.936 61.937 350.587 61.158C348.151 59.751 346.168 60.881 346.16 63.681L346.156 64.966L342.885 63.078C341.178 62.092 339.791 62.886 339.786 64.848C339.781 66.81 341.158 69.196 342.865 70.182L370.575 86.18C372.282 87.166 373.672 86.377 373.677 84.416C373.683 82.454 372.302 80.063 370.595 79.077L367.324 77.189L367.331 74.824C367.344 70.485 364.293 65.202 360.519 63.023Z" fill="#E6E6E6"/>
<g opacity="0.1">
<path d="M74.7091 348.374L82.0821 352.36C83.5471 353.152 85.3181 353.125 86.7591 352.29L190.636 292.044C192.253 291.106 192.218 288.759 190.573 287.87L180.842 282.61L74.6461 344.2C73.0291 345.138 73.0641 347.485 74.7091 348.374Z" fill="black"/>
</g>
<path opacity="0.1" d="M247.326 419.587C262.071 428.1 262.149 441.902 247.5 450.415C232.85 458.929 209.023 458.929 194.277 450.415C179.533 441.902 179.455 428.1 194.104 419.587C208.753 411.075 232.581 411.074 247.326 419.587Z" fill="black"/>
<path opacity="0.1" d="M333.594 390.016C348.339 398.529 348.417 412.331 333.769 420.844C319.119 429.358 295.292 429.358 280.546 420.844C265.801 412.331 265.724 398.529 280.373 390.016C295.022 381.504 318.85 381.503 333.594 390.016Z" fill="black"/>
<path opacity="0.1" d="M423.985 387.272C438.73 395.785 438.808 409.587 424.159 418.1C409.509 426.613 385.682 426.613 370.936 418.1C356.192 409.587 356.114 395.785 370.763 387.272C385.413 378.76 409.24 378.76 423.985 387.272Z" fill="black"/>
<path opacity="0.1" d="M380.878 322.119C395.623 330.632 395.701 344.434 381.052 352.947C366.402 361.46 342.575 361.461 327.829 352.947C313.084 344.434 313.007 330.632 327.656 322.119C342.306 313.606 366.134 313.606 380.878 322.119Z" fill="black"/>
<path d="M440.591 321.147L435.814 317.227C435.523 309.698 435.228 301.766 436.479 294.336C437.73 286.905 440.649 279.554 445.964 274.213C448.191 271.976 450.952 270.068 454.088 269.711C457.224 269.354 460.724 270.934 461.804 273.9C462.934 277.003 461.228 280.372 459.413 283.13C455.542 289.011 450.923 294.377 447.13 300.309C443.338 306.242 440.681 314.106 440.591 321.147Z" fill="#BA68C8"/>
<path d="M440.591 322.179L445.368 326.098C448.898 318.647 453.771 311.741 460.491 306.962C462.791 305.326 465.26 303.87 467.187 301.808C469.115 299.746 470.461 296.891 469.901 294.125C469.182 290.575 465.413 288.229 461.791 288.208C458.169 288.187 454.773 290.026 451.967 292.316C443.349 299.348 438.42 311.27 440.591 322.179Z" fill="#BA68C8"/>
<path opacity="0.3" d="M440.591 322.179L445.368 326.098C448.898 318.647 453.771 311.741 460.491 306.962C462.791 305.326 465.26 303.87 467.187 301.808C469.115 299.746 470.461 296.891 469.901 294.125C469.182 290.575 465.413 288.229 461.791 288.208C458.169 288.187 454.773 290.026 451.967 292.316C443.349 299.348 438.42 311.27 440.591 322.179Z" fill="black"/>
<path d="M437.899 319.352C437.897 319.352 437.895 319.352 437.891 319.352C437.663 319.348 437.481 319.159 437.485 318.931C437.68 307.766 440.186 287.143 454.783 274.466C454.956 274.316 455.217 274.336 455.367 274.507C455.517 274.679 455.498 274.941 455.326 275.091C449.164 280.442 438.76 293.255 438.312 318.947C438.308 319.171 438.124 319.352 437.899 319.352Z" fill="white"/>
<path d="M442.904 324.49C442.891 324.49 442.877 324.489 442.864 324.488C442.637 324.466 442.47 324.264 442.493 324.037C443.47 313.999 447.85 300.176 463.167 291.324C463.36 291.21 463.616 291.276 463.731 291.475C463.846 291.672 463.778 291.925 463.58 292.039C448.567 300.716 444.273 314.273 443.315 324.117C443.294 324.33 443.115 324.49 442.904 324.49Z" fill="white"/>
<path d="M56.8901 295.567C53.5991 292.801 49.9491 290.461 46.8461 287.486C44.7281 285.456 42.7791 282.847 42.9241 279.917C43.0591 277.199 45.1011 274.795 47.6291 273.788C50.1571 272.78 53.0591 273.024 55.6041 273.988C58.1491 274.952 60.3841 276.586 62.4591 278.347C73.8011 287.971 81.1901 302.123 82.6031 316.93C82.7651 318.627 82.8311 320.434 82.0211 321.934C81.1531 323.543 79.2751 324.547 77.4541 324.376C72.7671 323.934 72.1771 317.836 70.7601 314.46C68.8181 309.833 66.1761 305.5 62.9551 301.652C61.1151 299.453 59.0851 297.412 56.8901 295.567Z" fill="#BA68C8"/>
<path d="M78.2801 319.582C78.1021 319.582 77.9401 319.461 77.8961 319.281C76.1871 312.234 69.0991 288.426 49.6681 277.952C49.4761 277.849 49.4041 277.609 49.5081 277.417C49.6111 277.225 49.8501 277.154 50.0431 277.257C69.7611 287.887 76.9341 311.968 78.6641 319.095C78.7151 319.307 78.5851 319.521 78.3731 319.572C78.3421 319.579 78.3111 319.582 78.2801 319.582Z" fill="#F0F0F0"/>
<path d="M81.836 329.437C81.879 332.326 80.162 336.252 77.889 338.035C75.635 339.803 72.794 340.717 69.944 341.027C67.042 341.343 64.109 341.071 61.215 340.691C59.786 340.504 58.175 340.188 57.706 338.555C57.458 337.694 57.685 336.767 58.194 336.03C58.408 335.721 58.649 335.413 58.913 335.115C59.449 334.509 58.955 333.564 58.152 333.666C57.344 333.768 56.532 333.835 55.717 333.84C53.834 333.851 51.911 333.51 50.282 332.565C49.059 331.855 48.034 330.817 47.305 329.605C46.682 328.568 46.293 327.189 46.974 326.189C47.365 325.615 48.027 325.296 48.664 325.021C49.233 324.776 49.807 324.549 50.387 324.338C51.157 324.058 51.075 322.949 50.273 322.786L47.545 322.232C46.787 322.078 45.996 321.909 45.397 321.42C44.442 320.641 44.23 319.275 44.228 318.042C44.225 316.403 44.471 314.773 44.534 313.135C44.598 311.497 44.467 309.807 43.76 308.328C48.375 306.924 53.257 306.196 58.072 306.49C59.51 306.578 60.982 306.754 62.259 307.419C64.079 308.368 64.86 310.175 65.096 312.254C65.141 312.648 65.703 312.69 65.821 312.311L66.847 309.022C67.156 308.031 68.188 307.477 69.195 307.728C70.714 308.107 72.161 308.908 73.45 309.901C74.841 310.972 75.756 312.563 75.955 314.307C76.224 316.665 76.282 319.096 76.143 321.462C76.107 322.082 76.855 322.396 77.279 321.942L77.345 321.871C77.722 321.466 78.225 321.169 78.777 321.13C80.236 321.026 80.884 322.398 81.221 323.608C81.709 325.361 81.807 327.519 81.836 329.437Z" fill="#BA68C8"/>
<path opacity="0.2" d="M81.836 329.437C81.879 332.326 80.162 336.252 77.889 338.035C75.635 339.803 72.794 340.717 69.944 341.027C67.042 341.343 64.109 341.071 61.215 340.691C59.786 340.504 58.175 340.188 57.706 338.555C57.458 337.694 57.685 336.767 58.194 336.03C58.408 335.721 58.649 335.413 58.913 335.115C59.449 334.509 58.955 333.564 58.152 333.666C57.344 333.768 56.532 333.835 55.717 333.84C53.834 333.851 51.911 333.51 50.282 332.565C49.059 331.855 48.034 330.817 47.305 329.605C46.682 328.568 46.293 327.189 46.974 326.189C47.365 325.615 48.027 325.296 48.664 325.021C49.233 324.776 49.807 324.549 50.387 324.338C51.157 324.058 51.075 322.949 50.273 322.786L47.545 322.232C46.787 322.078 45.996 321.909 45.397 321.42C44.442 320.641 44.23 319.275 44.228 318.042C44.225 316.403 44.471 314.773 44.534 313.135C44.598 311.497 44.467 309.807 43.76 308.328C48.375 306.924 53.257 306.196 58.072 306.49C59.51 306.578 60.982 306.754 62.259 307.419C64.079 308.368 64.86 310.175 65.096 312.254C65.141 312.648 65.703 312.69 65.821 312.311L66.847 309.022C67.156 308.031 68.188 307.477 69.195 307.728C70.714 308.107 72.161 308.908 73.45 309.901C74.841 310.972 75.756 312.563 75.955 314.307C76.224 316.665 76.282 319.096 76.143 321.462C76.107 322.082 76.855 322.396 77.279 321.942L77.345 321.871C77.722 321.466 78.225 321.169 78.777 321.13C80.236 321.026 80.884 322.398 81.221 323.608C81.709 325.361 81.807 327.519 81.836 329.437Z" fill="black"/>
<path d="M75.7511 338.053C75.7121 337.958 73.8061 333.423 69.7841 327.79C69.7621 327.679 69.6951 327.584 69.5931 327.527C69.4671 327.353 69.3441 327.18 69.2141 327.004C68.5631 319.45 70.4761 313.713 70.4951 313.656C70.5651 313.449 70.4551 313.226 70.2491 313.155C70.0431 313.087 69.8191 313.195 69.7481 313.402C69.7291 313.457 67.9681 318.734 68.3451 325.851C63.8591 320.035 57.2441 313.501 48.2391 309.549C48.0381 309.463 47.8071 309.552 47.7191 309.752C47.6311 309.952 47.7221 310.184 47.9221 310.272C57.2101 314.349 63.9171 321.215 68.3371 327.138C61.3431 325.287 54.8031 327.851 54.5131 327.967C54.3111 328.048 54.2131 328.278 54.2941 328.481C54.3561 328.635 54.5041 328.728 54.6601 328.728C54.7091 328.728 54.7591 328.719 54.8071 328.699C54.8781 328.671 62.0071 325.871 69.1021 328.186C73.0901 333.76 74.9811 338.258 75.0201 338.351C75.0831 338.504 75.2301 338.596 75.3851 338.596C75.4351 338.596 75.4861 338.587 75.5351 338.567C75.7371 338.485 75.8331 338.254 75.7511 338.053Z" fill="#F0F0F0"/>
<path d="M189.744 67.677L189.751 67.67C189.042 65.183 183.993 60.455 178.968 60.554C178.786 60.553 177.883 60.645 177.557 60.83L79.9561 116.36C78.2971 117.304 77.0161 118.722 76.2041 120.38C75.5891 121.637 75.2361 123.027 75.2361 124.475V335.596C75.2361 340.974 81.4371 346.106 87.2591 343.637C87.2741 343.631 87.2841 343.616 87.2981 343.61C87.4231 343.564 87.5501 343.528 87.6721 343.459L185.279 287.838C188.193 286.177 189.993 283.081 189.993 279.726V68.694C189.994 68.319 189.893 67.982 189.744 67.677Z" fill="#37474F"/>
<path d="M88.8521 146.79C88.8521 145.112 89.7531 143.562 91.2121 142.732L181.837 91.173C183.393 90.288 185.325 91.412 185.325 93.202V263.442C185.325 265.115 184.421 266.67 182.967 267.499L92.3411 319.141C90.7851 320.028 88.8511 318.904 88.8511 317.113L88.8521 146.79Z" fill="#BA68C8"/>
<path d="M75.2361 124.475V335.596C75.2361 340.974 81.4371 346.106 87.2591 343.637C87.2741 343.631 87.2841 343.616 87.2981 343.61C85.8221 344.144 84.1821 343.082 84.1821 341.431V130.31C84.1821 128.44 84.7581 126.66 85.7591 125.154L76.2031 120.38C75.5891 121.637 75.2361 123.027 75.2361 124.475Z" fill="#263238"/>
<path d="M178.969 60.554C178.787 60.553 177.884 60.645 177.558 60.83L79.9561 116.36C78.2971 117.304 77.0161 118.722 76.2041 120.38L85.7601 125.154C86.5551 123.958 87.6111 122.93 88.9031 122.195L186.505 66.666C187.734 65.966 189.183 66.531 189.744 67.677L189.751 67.67C189.043 65.183 183.994 60.455 178.969 60.554Z" fill="#455A64"/>
<path d="M149.118 101.528C149.804 101.132 150.371 101.439 150.374 102.226C150.376 103.014 149.812 103.991 149.126 104.387L129.977 115.443C129.291 115.839 128.738 115.506 128.736 114.718C128.734 113.931 129.283 112.979 129.969 112.583L149.118 101.528Z" fill="#263238"/>
<path d="M125.051 115.423C125.737 115.027 126.29 115.342 126.292 116.13C126.294 116.918 125.745 117.887 125.059 118.283C124.374 118.679 123.805 118.355 123.803 117.567C123.801 116.78 124.366 115.819 125.051 115.423Z" fill="#263238"/>
<path d="M137.308 99.92C138.678 99.129 139.783 99.7591 139.787 101.333C139.791 102.907 138.693 104.843 137.324 105.633C135.955 106.424 134.82 105.777 134.815 104.203C134.811 102.63 135.939 100.711 137.308 99.92Z" fill="#263238"/>
<path d="M137.315 298.673C140.104 297.063 142.355 298.345 142.364 301.55C142.373 304.755 140.137 308.698 137.348 310.309C134.559 311.92 132.247 310.602 132.238 307.397C132.229 304.192 134.526 300.284 137.315 298.673Z" fill="#263238"/>
<path d="M151.828 184.79L155.086 182.968C161.433 179.419 169.345 180.37 174.671 185.321L201.925 210.66C201.925 210.66 212.243 191.867 214.138 185.686C214.738 183.729 213.587 181.627 213.024 179.659C212.462 177.691 211.938 175.621 212.367 173.619C212.923 171.023 212.531 168.309 211.762 165.737C211.481 164.795 212.207 163.857 213.188 163.914C213.288 163.92 213.387 163.927 213.484 163.935C214.211 163.996 214.945 164.239 215.469 164.745C215.995 165.253 216.26 165.968 216.481 166.666C217.05 168.458 217.441 170.307 217.647 172.175C219.176 168.676 220.036 164.634 219.862 160.819C219.794 159.326 219.594 157.807 219.936 156.352C220.277 154.896 221.325 153.479 222.802 153.249C223.553 154.293 224.099 155.525 224.417 156.771C225.256 156.461 226.396 156.376 227.163 156.837C227.93 157.298 228.47 158.119 228.59 159.006C230.779 159.16 232.667 161.105 233.558 163.111C234.449 165.116 234.523 167.386 234.386 169.576C233.938 176.737 231.33 183.749 226.989 189.462C223.458 202.869 220.32 217.973 215.305 229.718C212.853 235.459 205.747 237.492 200.545 234.042C181.061 221.122 165.186 207.719 165.186 207.719L151.828 184.79Z" fill="#8C5554"/>
<path d="M151.828 184.79L155.086 182.968C161.433 179.419 169.345 180.37 174.671 185.321L196.137 205.279C193.999 216.193 183.731 223.77 183.731 223.77L165.188 207.719L151.828 184.79Z" fill="#E0E0E0"/>
<path opacity="0.2" d="M199.184 223.223C199.089 217.79 200.231 214.699 201.926 210.661L200.499 209.334C199.18 211.028 196.611 215.58 199.184 223.223Z" fill="black"/>
<path opacity="0.2" d="M220.218 186.106C221.642 184.553 222.439 182.441 222.396 180.334C222.354 178.227 221.472 176.149 219.986 174.655C222.161 175.555 223.735 177.701 223.831 180.052C223.928 182.404 222.312 185.031 220.218 186.106Z" fill="black"/>
<path d="M173.38 262.026L114.978 262.983C114.978 262.983 111.643 281.176 110.695 308.682L173.219 273.053L173.38 262.026Z" fill="#455A64"/>
<path d="M152.267 180.837L157.82 181.424C161.931 181.859 165.635 184.115 167.884 187.584C173.599 196.4 176.257 209.892 174.72 224.495C172.805 242.686 173.38 262.026 173.38 262.026C149.253 279.642 118.807 266.813 114.978 262.983L116.769 240.679C116.971 238.168 116.544 235.65 115.548 233.336C113.27 228.044 109.206 217.629 108.659 209.559C107.893 198.262 113.063 188.783 113.063 188.783L134.222 180.836H152.267V180.837Z" fill="#F0F0F0"/>
<path d="M134.135 166.818V181.256C134.135 183.165 134.904 185.019 136.331 186.288C140.084 189.626 145.179 191.384 150.232 191.07C151.246 191.007 152.315 190.838 153.096 190.187C154.19 189.276 154.416 187.626 154.017 186.259C153.818 185.575 153.492 184.945 153.105 184.347C152.308 183.113 151.828 181.702 151.828 180.233V166.818H134.135Z" fill="#8C5554"/>
<path d="M135.18 166.914L151.828 166.818V179.087C148.076 178.361 144.418 177.397 141.301 175.236C138.419 173.237 136.256 170.248 135.18 166.914Z" fill="#733D3C"/>
<path d="M167.403 142.389C169.752 142.469 172.12 141.699 173.973 140.254C175.032 139.428 175.918 138.385 176.575 137.214C177.141 136.206 176.207 135.008 175.07 135.218C173.785 135.456 172.45 135.472 171.192 135.26C174.167 131.387 175.494 126.375 174.8 121.579C174.634 120.435 173.373 119.772 172.335 120.281C167.034 122.885 161.027 124.171 155.151 123.754C151.993 123.53 148.881 122.862 145.725 122.62C142.569 122.378 139.276 122.594 136.456 124.032C133.636 125.469 131.387 128.333 131.391 131.498C130.644 130.424 129.555 129.855 128.258 129.687C126.961 129.518 125.6 129.921 124.604 130.768C126.43 131.769 128.213 132.782 130.039 133.783C128.168 133.115 125.813 134.577 124.882 136.331C123.951 138.085 123.903 140.158 123.878 142.145C123.844 144.785 123.811 147.441 124.234 150.046C124.657 152.652 125.565 155.232 127.231 157.28C128.632 159.003 130.548 160.301 132.668 160.963C135.522 161.855 138.645 161.585 141.495 160.681C144.346 159.778 146.965 158.273 149.499 156.685C155.836 152.712 161.912 147.469 167.403 142.389Z" fill="#263238"/>
<path d="M167.802 137.126C169.63 147.991 168.411 159.351 164.317 169.58C163.365 171.958 162.133 174.42 159.909 175.69C157.577 177.021 154.692 176.743 152.037 176.343C147.761 175.699 143.454 174.819 139.606 172.846C135.758 170.873 132.377 167.673 131.001 163.574C128.172 164.251 125.215 162.944 123.466 160.62C121.716 158.296 121.087 155.298 121.024 152.39C120.983 150.527 121.367 148.329 123.039 147.509C124.595 146.746 126.463 147.602 127.809 148.693C130.012 150.477 131.655 152.943 132.453 155.663C133.684 151.127 135.599 146.75 136.83 142.213C137.314 140.43 137.912 138.484 139.469 137.488C141.373 136.269 143.855 136.969 146.05 137.512C152.743 139.169 161.218 139.177 167.802 137.126Z" fill="#8C5554"/>
<path d="M154.577 150.896L159.882 159.826L153.557 161.014L154.577 150.896Z" fill="#733D3C"/>
<path d="M147.461 164.091C149.063 164.87 150.665 165.649 152.267 166.428C151.567 167.52 149.806 167.995 148.623 167.464C147.44 166.933 147.11 165.34 147.461 164.091Z" fill="#733D3C"/>
<path opacity="0.3" d="M147.461 164.091C149.063 164.87 150.665 165.649 152.267 166.428C151.567 167.52 149.806 167.995 148.623 167.464C147.44 166.933 147.11 165.34 147.461 164.091Z" fill="black"/>
<path d="M150.292 167.622C149.714 167.724 149.119 167.687 148.623 167.464C147.695 167.047 147.298 165.976 147.337 164.931C148.019 164.934 148.703 165.157 149.231 165.59C149.841 166.088 150.214 166.84 150.292 167.622Z" fill="#733D3C"/>
<path d="M145.418 151.252C145.317 152.25 146.045 153.141 147.043 153.242C148.041 153.343 148.932 152.615 149.033 151.617C149.134 150.619 148.406 149.728 147.408 149.627C146.409 149.526 145.518 150.253 145.418 151.252Z" fill="#263238"/>
<path d="M160.651 152.196C160.55 153.194 161.278 154.085 162.276 154.186C163.274 154.287 164.165 153.559 164.266 152.561C164.366 151.563 163.639 150.672 162.641 150.571C161.643 150.47 160.752 151.197 160.651 152.196Z" fill="#263238"/>
<path d="M163.135 145.18C164.377 146.238 165.62 147.296 166.862 148.354C167.354 147.444 167.097 146.171 166.365 145.439C165.634 144.707 164.046 144.689 163.135 145.18Z" fill="#263238"/>
<path d="M147.68 143.403C146.251 144.192 144.823 144.981 143.394 145.77C143.094 144.78 143.6 143.584 144.462 143.013C145.326 142.441 146.885 142.74 147.68 143.403Z" fill="#263238"/>
<path d="M110.582 235.957L104.999 256.395L126.661 274.551C128.203 275.844 130.167 276.521 132.178 276.46C134.414 276.392 136.678 276.363 138.797 276.841C140.492 277.223 142.144 277.783 143.837 278.174C145.028 278.449 146.254 278.641 147.471 278.624C148.557 278.609 149.357 279.705 148.88 280.68C148.697 281.054 148.444 281.393 148.146 281.657C147.29 282.416 146.131 282.733 144.998 282.891C143.2 283.142 141.354 283.046 139.592 282.61C141.155 284.652 143.818 285.935 146.257 286.751C148.695 287.567 151.243 288.028 153.667 288.886C154.568 289.205 155.499 289.616 156.046 290.4C156.592 291.184 156.561 292.441 155.747 292.943C154.707 293.585 153.29 292.637 152.154 293.086C152.229 293.77 152.328 294.412 152.122 295.069C151.917 295.726 151.505 296.334 150.913 296.685C150.321 297.035 149.541 297.094 148.944 296.751C147.982 298.377 146.204 299.423 144.363 299.846C142.522 300.269 140.593 300.121 138.735 299.778C131.017 298.351 126.129 291.629 120.077 286.632C119.244 285.944 97.907 274.051 86.986 267.978C83.263 265.908 81.414 261.59 82.475 257.464L89.445 230.374L110.582 235.957Z" fill="#8C5554"/>
<path opacity="0.2" d="M91.689 255.946C94.032 254.849 101.509 253.952 104.998 256.395L105.571 254.297C103.301 253.121 97.189 251.113 91.689 255.946Z" fill="black"/>
<path d="M113.273 188.701L110.209 189.571C103.887 191.367 98.8509 196.154 96.7359 202.377L86.9529 231.171C95.7759 240.443 111.628 237.601 111.628 237.601L114.768 222.946C125.835 203.656 115.666 191.842 113.273 188.701Z" fill="#E0E0E0"/>
<path d="M377.268 333.395C376.48 330.861 375.618 328.268 375.798 325.621C375.623 325.667 375.446 325.705 375.27 325.746C373.19 326.231 371.043 326.367 368.902 326.41C368.678 326.414 368.453 326.419 368.229 326.422C368.803 329.572 368.392 332.805 368.191 336C367.989 339.195 368.025 342.53 369.4 345.422C369.76 346.179 370.235 346.922 370.957 347.346C371.707 347.786 372.651 347.824 373.484 347.573C374.317 347.323 375.051 346.809 375.682 346.21C377.076 344.886 378.026 343.102 378.346 341.206C378.789 338.589 378.057 335.929 377.268 333.395Z" fill="#F28F8F"/>
<path d="M377.268 333.395C376.48 330.861 375.618 328.268 375.798 325.621C375.623 325.667 375.446 325.705 375.27 325.746C375.477 328.781 375.553 331.825 375.489 334.867C375.47 335.782 375.434 336.719 375.083 337.564C374.732 338.409 373.998 339.154 373.09 339.258C372.078 339.374 371.116 338.663 370.621 337.774C370.126 336.884 369.999 335.843 369.881 334.831C369.555 332.024 369.228 329.217 368.902 326.41C368.678 326.415 368.453 326.419 368.229 326.422C368.803 329.572 368.393 332.805 368.191 336C367.989 339.195 368.025 342.53 369.4 345.422C369.76 346.179 370.235 346.922 370.957 347.346C371.707 347.786 372.651 347.824 373.484 347.574C374.317 347.324 375.051 346.81 375.682 346.211C377.076 344.887 378.026 343.103 378.346 341.207C378.789 338.589 378.057 335.929 377.268 333.395Z" fill="#455A64"/>
<path d="M348.03 322.017C347.788 321.181 347.408 320.396 347.001 319.624C346.894 319.421 346.785 319.218 346.676 319.016C343.967 319.498 341.005 319.666 338.4 320.55C337.526 323.263 336.647 325.99 335.346 328.526C334.5 330.176 333.458 331.747 332.192 333.096C331.512 333.82 330.771 334.484 329.955 335.054C329.05 335.686 327.965 336.351 327.817 337.445C327.694 338.35 328.318 339.227 329.116 339.67C329.914 340.113 330.854 340.209 331.765 340.262C333.721 340.375 335.715 340.329 337.592 339.764C339.468 339.199 341.23 338.066 342.242 336.388C342.73 335.58 343.027 334.682 343.281 333.765C343.54 332.828 343.756 331.872 344.081 330.969C344.292 330.383 344.549 329.818 344.897 329.297C345.799 327.947 347.248 326.958 347.909 325.493C347.944 325.415 347.987 325.341 348.018 325.259C348.406 324.23 348.335 323.074 348.03 322.017Z" fill="#F28F8F"/>
<path d="M347.91 325.493C347.249 326.959 345.8 327.947 344.898 329.297C344.55 329.818 344.293 330.382 344.082 330.969C343.757 331.872 343.541 332.829 343.282 333.765L344.605 334.105C347.095 332.919 347.896 331.585 347.896 331.585C347.959 329.178 347.931 326.7 347.91 325.493Z" fill="#37474F"/>
<path d="M343.281 333.765L344.604 334.105L344.081 330.968C343.756 331.872 343.541 332.828 343.281 333.765Z" fill="#263238"/>
<path d="M348.03 322.017C347.788 321.181 347.408 320.396 347.001 319.624C347.02 320.876 346.521 322.152 345.848 323.237C344.952 324.682 343.756 325.926 342.896 327.392C341.849 329.177 341.306 331.277 339.93 332.823C338.591 334.327 336.511 335.137 334.508 334.934C333.766 334.859 332.99 334.622 332.521 334.042C332.309 333.78 332.199 333.434 332.193 333.096C331.513 333.82 330.772 334.484 329.956 335.054C329.051 335.686 327.966 336.351 327.818 337.445C327.695 338.35 328.319 339.227 329.117 339.67C329.915 340.113 330.855 340.209 331.766 340.262C333.722 340.375 335.716 340.329 337.593 339.764C339.469 339.199 341.231 338.066 342.243 336.388C342.731 335.58 343.028 334.682 343.282 333.765C343.541 332.828 343.757 331.872 344.082 330.969C344.293 330.383 344.55 329.818 344.898 329.297C345.8 327.947 347.249 326.959 347.91 325.493C347.945 325.415 347.988 325.341 348.019 325.259C348.406 324.23 348.335 323.074 348.03 322.017Z" fill="#455A64"/>
<path d="M338.354 179.126C338.709 179.956 339.685 180.351 340.154 181.123C340.514 181.715 340.521 182.505 340.17 183.102C339.819 183.699 339.127 184.079 338.434 184.053C337.742 184.027 337.079 183.597 336.774 182.974C336.645 183.705 336.592 184.461 336.763 185.183C336.934 185.905 337.429 186.592 338.142 186.797C337.056 187.809 336.766 189.492 337.261 190.891C337.756 192.29 339.129 193.334 340.609 193.437C340.325 195.453 341.639 197.632 343.3 198.807C344.962 199.982 347.096 200.351 349.123 200.163C351.15 199.974 353.093 199.269 354.956 198.451C357.786 199.443 360.834 200.06 363.819 199.773C365.73 199.59 367.729 199.077 369.053 197.687C370.377 196.296 370.686 193.82 369.271 192.523C370.047 193.156 371.397 193.026 372.281 192.554C373.164 192.082 373.717 191.054 373.622 190.056C373.528 189.059 372.792 188.152 371.835 187.855C372.474 187.429 372.968 186.594 372.856 185.834C372.744 185.074 372.165 184.402 371.43 184.179C371.607 184.815 371.463 185.652 370.936 186.049C370.409 186.446 369.636 186.481 369.074 186.135C368.526 185.797 368.219 185.162 368.119 184.527C368.018 183.892 368.096 183.244 368.155 182.603C368.36 180.39 368.337 178.095 367.517 176.03C366.697 173.964 364.95 172.159 362.761 171.778C361.939 169.22 360.099 166.982 357.768 165.646C355.437 164.311 352.602 163.881 349.98 164.466C347.776 164.958 345.628 166.275 344.743 168.353C343.819 168.138 342.796 168.087 341.847 168.108C340.898 168.128 339.92 168.411 339.24 169.073C338.56 169.735 338.254 170.822 338.669 171.675C338.959 172.271 339.577 172.808 339.43 173.454C339.303 174.009 338.67 174.282 338.366 174.763C338.079 175.216 338.12 175.817 338.333 176.309C338.546 176.802 338.909 177.211 339.261 177.616C339.585 177.989 339.926 178.476 339.745 178.935C339.556 179.413 338.607 179.575 338.354 179.126Z" fill="#263238"/>
<path d="M341.862 221.984C341.715 224.277 341.568 226.571 341.42 228.864C336.244 250.211 337.785 282.109 337.785 282.109L337.948 321.003C339.435 321.919 341.271 322.322 342.974 321.936C344.677 321.55 346.214 320.475 347.162 319.008C348.042 309.442 352.489 294.412 351.155 282.672C352.934 273.423 354.268 260.261 354.268 260.261L358.626 283.028L367.697 326.962C371.699 328.652 375.257 327.496 376.413 325.939C375.482 301.706 375.879 290.054 372.144 278.848C373.3 248.788 374.226 235.189 366.902 224.861V220.973L341.862 221.984Z" fill="#BA68C8"/>
<path opacity="0.1" d="M341.862 221.984C341.715 224.277 341.568 226.571 341.42 228.864C336.244 250.211 337.785 282.109 337.785 282.109L337.948 321.003C339.435 321.919 341.271 322.322 342.974 321.936C344.677 321.55 346.214 320.475 347.162 319.008C348.042 309.442 352.489 294.412 351.155 282.672C352.934 273.423 354.268 260.261 354.268 260.261L358.626 283.028L367.697 326.962C371.699 328.652 375.257 327.496 376.413 325.939C375.482 301.706 375.879 290.054 372.144 278.848C373.3 248.788 374.226 235.189 366.902 224.861V220.973L341.862 221.984Z" fill="black"/>
<path opacity="0.3" d="M341.862 221.984C341.715 224.277 341.568 226.571 341.42 228.864C336.244 250.211 337.785 282.109 337.785 282.109L337.948 321.003C339.435 321.919 341.271 322.322 342.974 321.936C344.677 321.55 346.214 320.475 347.162 319.008C348.042 309.442 352.489 294.412 351.155 282.672C352.934 273.423 354.268 260.261 354.268 260.261L358.626 283.028L367.697 326.962C371.699 328.652 375.257 327.496 376.413 325.939C375.482 301.706 375.879 290.054 372.144 278.848C373.3 248.788 374.226 235.189 366.902 224.861V220.973L341.862 221.984Z" fill="white"/>
<path opacity="0.2" d="M344.43 244.322C345.18 246.694 347.422 248.681 349.861 249.171L352.396 259.679C352.656 260.756 352.826 261.853 352.905 262.958L353.306 268.576C353.905 263.84 354.268 260.26 354.268 260.26L351.854 247.646C349.175 247.133 346.557 246.029 344.43 244.322Z" fill="black"/>
<path d="M343.042 234.619C340.685 233.141 338.927 230.253 339.283 227.493C339.283 227.493 343.685 229.805 345.66 228.572L344.647 226.634C347.341 226.634 350.268 227.569 352.307 229.329C356.414 228.702 360.686 227.332 364.541 225.781C365.704 225.313 366.858 224.803 368.078 224.515C369.298 224.227 370.609 224.175 371.782 224.618C372.955 225.06 373.961 226.061 374.181 227.295C374.41 228.576 373.766 229.893 372.81 230.776C371.854 231.659 370.623 232.178 369.398 232.617C364.325 234.438 345.399 236.097 343.042 234.619Z" fill="#F28F8F"/>
<path d="M373.502 200.268C372.527 198.549 370.769 197.421 368.801 197.25L361.124 196.585L358.538 196.361V188.046L349.554 191.514V196.316H347.255H345.019H344.511C341.111 196.316 338.07 198.432 336.889 201.62L329.099 222.64L337.793 224.859L340.188 218.326C340.227 218.71 340.27 219.093 340.326 219.465C340.601 221.284 341.371 223.093 342.788 224.266C344.101 225.352 345.825 225.791 347.505 226.075C351.792 226.8 356.214 226.717 360.471 225.831C362.418 225.426 364.42 224.778 365.932 223.541V225.218L374.178 227.295L375.573 209.6C375.831 206.353 375.109 203.102 373.502 200.268Z" fill="#F28F8F"/>
<path opacity="0.2" d="M340.144 213.837C340.091 213.806 340.046 213.767 339.995 213.733C338.978 215.572 338.203 217.544 337.711 219.598C335.327 219.099 332.716 219.867 330.981 221.576C330.584 221.967 330.218 222.394 329.866 222.836L337.793 224.86L340.188 218.327C340.036 216.839 340.008 215.292 340.144 213.837Z" fill="black"/>
<path d="M337.96 223.946C337.332 222.276 335.777 220.99 334.019 220.686C332.261 220.382 330.253 221.279 329.1 222.641C328.127 223.789 328.261 225.358 328.85 226.742C329.774 228.913 332.405 230.195 334.685 229.586C336.965 228.978 338.792 226.155 337.96 223.946Z" fill="#F28F8F"/>
<path opacity="0.2" d="M337.96 223.946C337.531 222.806 336.666 221.855 335.604 221.263C334.643 222.17 333.972 223.382 333.78 224.691C333.549 226.263 333.987 227.922 334.964 229.175C335.026 229.254 335.103 229.32 335.169 229.396C337.21 228.546 338.731 225.993 337.96 223.946Z" fill="black"/>
<path d="M348.927 234.896C348.927 234.892 348.926 234.889 348.925 234.885C348.925 234.884 348.925 234.883 348.925 234.882C348.924 234.876 348.924 234.87 348.922 234.864C348.92 234.854 348.918 234.843 348.915 234.832C348.912 234.822 348.909 234.812 348.906 234.801C348.903 234.791 348.899 234.781 348.895 234.77C348.891 234.76 348.887 234.749 348.882 234.739C348.878 234.729 348.873 234.718 348.868 234.708C348.863 234.698 348.858 234.687 348.852 234.676C348.852 234.675 348.851 234.675 348.851 234.674L342.877 223.247C342.872 223.236 342.866 223.226 342.86 223.215C342.854 223.204 342.847 223.192 342.84 223.181C342.833 223.17 342.826 223.158 342.819 223.146C342.812 223.134 342.804 223.122 342.796 223.11C342.788 223.098 342.78 223.086 342.771 223.073C342.763 223.061 342.754 223.048 342.745 223.036C342.736 223.024 342.727 223.011 342.718 222.999C342.709 222.987 342.7 222.975 342.691 222.963C342.682 222.952 342.674 222.94 342.665 222.929C342.657 222.919 342.649 222.908 342.64 222.898C342.633 222.889 342.626 222.881 342.619 222.872C342.612 222.863 342.604 222.854 342.597 222.846C342.591 222.839 342.585 222.832 342.579 222.825C342.574 222.819 342.568 222.813 342.563 222.806C342.558 222.8 342.552 222.794 342.547 222.788C342.542 222.782 342.536 222.775 342.53 222.769C342.526 222.764 342.521 222.759 342.517 222.755C342.513 222.751 342.509 222.746 342.505 222.742C342.501 222.737 342.497 222.733 342.493 222.728C342.489 222.723 342.485 222.719 342.48 222.714C342.476 222.709 342.472 222.705 342.467 222.7C342.463 222.696 342.459 222.692 342.455 222.688C342.451 222.684 342.448 222.68 342.444 222.676C342.44 222.672 342.436 222.668 342.433 222.664C342.429 222.66 342.426 222.656 342.422 222.652C342.418 222.648 342.415 222.644 342.411 222.64C342.407 222.636 342.404 222.632 342.4 222.629C342.396 222.625 342.392 222.621 342.388 222.617C342.384 222.613 342.38 222.609 342.376 222.605C342.372 222.601 342.368 222.597 342.363 222.592C342.358 222.587 342.355 222.584 342.35 222.58C342.346 222.576 342.342 222.572 342.337 222.568C342.333 222.564 342.328 222.56 342.324 222.556C342.317 222.549 342.311 222.543 342.304 222.536C342.296 222.529 342.289 222.521 342.281 222.514C342.273 222.507 342.266 222.5 342.258 222.492C342.229 222.465 342.2 222.438 342.171 222.412C342.165 222.406 342.158 222.401 342.152 222.395C342.146 222.389 342.139 222.384 342.133 222.378C342.126 222.372 342.12 222.367 342.114 222.361C342.108 222.356 342.101 222.35 342.095 222.345C342.091 222.341 342.087 222.338 342.082 222.334C342.078 222.33 342.074 222.327 342.069 222.323C342.065 222.32 342.061 222.316 342.056 222.313C342.052 222.31 342.048 222.306 342.044 222.302C342.04 222.299 342.036 222.295 342.031 222.292C342.027 222.288 342.022 222.285 342.018 222.282C342.014 222.279 342.01 222.275 342.006 222.272C342.002 222.269 341.998 222.265 341.994 222.262C341.99 222.259 341.986 222.255 341.982 222.252C341.978 222.249 341.974 222.245 341.97 222.242C341.966 222.239 341.962 222.235 341.958 222.232C341.954 222.229 341.95 222.225 341.946 222.222C341.941 222.219 341.937 222.215 341.933 222.212C341.928 222.208 341.923 222.204 341.918 222.2C341.913 222.196 341.908 222.192 341.903 222.189C341.898 222.185 341.893 222.181 341.888 222.177C341.883 222.173 341.878 222.17 341.873 222.166C341.868 222.162 341.863 222.158 341.858 222.154C341.851 222.149 341.844 222.144 341.837 222.139C341.83 222.134 341.823 222.129 341.816 222.124C341.809 222.119 341.802 222.114 341.795 222.109C341.787 222.104 341.78 222.098 341.772 222.093C341.762 222.086 341.752 222.079 341.742 222.073C341.732 222.066 341.722 222.06 341.713 222.053C341.702 222.046 341.691 222.038 341.68 222.031C341.668 222.023 341.655 222.015 341.643 222.007C341.63 221.999 341.618 221.991 341.605 221.984C341.592 221.976 341.579 221.968 341.565 221.96C341.557 221.955 341.549 221.951 341.542 221.946L334.572 217.922C334.566 217.919 334.561 217.916 334.555 217.912C334.541 217.904 334.528 217.897 334.515 217.89C334.502 217.883 334.489 217.876 334.476 217.869C334.463 217.862 334.45 217.856 334.438 217.85C334.425 217.844 334.413 217.838 334.4 217.832C334.388 217.826 334.375 217.821 334.363 217.816C334.35 217.811 334.338 217.805 334.326 217.801C334.314 217.796 334.302 217.791 334.29 217.787C334.277 217.782 334.265 217.778 334.252 217.774C334.239 217.77 334.226 217.766 334.214 217.763C334.205 217.761 334.197 217.759 334.188 217.757C334.187 217.757 334.186 217.757 334.186 217.756C334.182 217.755 334.178 217.754 334.175 217.753C334.16 217.75 334.147 217.748 334.133 217.747C334.115 217.745 334.099 217.745 334.084 217.745C334.036 217.747 334.001 217.761 333.978 217.787L333.13 218.735C333.135 218.729 333.152 218.735 333.159 218.731C333.089 218.782 333.083 218.895 333.181 219.083L339.155 230.51C339.37 230.921 339.961 231.498 340.486 231.801L347.456 235.825C347.816 236.033 348.032 236.04 348.065 235.892C348.06 235.914 348.064 235.942 348.051 235.957L348.899 235.009C348.91 234.997 348.918 234.982 348.923 234.965C348.927 234.953 348.929 234.94 348.929 234.927C348.928 234.919 348.928 234.908 348.927 234.896ZM333.289 218.715C333.309 218.716 333.314 218.703 333.338 218.708C333.339 218.708 333.339 218.708 333.34 218.709C333.346 218.71 333.358 218.718 333.365 218.72C333.333 218.711 333.315 218.717 333.289 218.715ZM341.715 223.766C341.741 223.797 341.775 223.827 341.799 223.858C341.775 223.827 341.741 223.796 341.715 223.766ZM348.074 235.85C348.071 235.79 348.052 235.717 348.002 235.622C348.045 235.705 348.069 235.774 348.077 235.831C348.077 235.832 348.077 235.832 348.077 235.833C348.078 235.84 348.074 235.843 348.074 235.85Z" fill="#455A64"/>
<path opacity="0.15" d="M348.927 234.896C348.927 234.892 348.926 234.889 348.925 234.885V234.882C348.924 234.876 348.924 234.87 348.922 234.864C348.92 234.854 348.918 234.843 348.915 234.832C348.912 234.822 348.909 234.812 348.906 234.801C348.903 234.791 348.899 234.781 348.895 234.77C348.891 234.76 348.887 234.749 348.882 234.739C348.878 234.729 348.873 234.718 348.868 234.708C348.863 234.698 348.858 234.687 348.852 234.676L348.851 234.674L342.877 223.247L342.029 224.195L348.003 235.622C348.046 235.705 348.07 235.774 348.078 235.831V235.833C348.085 235.889 348.075 235.932 348.05 235.96L348.898 235.012C348.909 235 348.917 234.985 348.922 234.968C348.926 234.956 348.928 234.943 348.928 234.93C348.928 234.919 348.928 234.908 348.927 234.896Z" fill="white"/>
<path opacity="0.2" d="M342.858 223.215C342.852 223.204 342.845 223.192 342.838 223.181C342.831 223.17 342.824 223.158 342.817 223.146C342.81 223.134 342.802 223.122 342.794 223.11C342.786 223.098 342.778 223.086 342.769 223.073C342.761 223.061 342.752 223.048 342.743 223.036C342.734 223.024 342.725 223.011 342.716 222.999C342.707 222.987 342.698 222.975 342.689 222.963C342.68 222.952 342.672 222.94 342.663 222.929C342.655 222.919 342.647 222.908 342.638 222.898C342.631 222.889 342.624 222.881 342.617 222.872C342.61 222.863 342.602 222.854 342.595 222.846C342.589 222.839 342.583 222.832 342.577 222.825C342.572 222.819 342.566 222.813 342.561 222.806C342.556 222.8 342.55 222.794 342.545 222.788C342.54 222.782 342.534 222.775 342.528 222.769C342.524 222.764 342.519 222.759 342.515 222.755C342.511 222.751 342.507 222.746 342.503 222.742C342.499 222.737 342.495 222.733 342.491 222.728C342.487 222.723 342.483 222.719 342.478 222.714C342.474 222.709 342.47 222.705 342.465 222.7C342.461 222.696 342.457 222.692 342.453 222.688C342.449 222.684 342.446 222.68 342.442 222.676C342.438 222.672 342.434 222.668 342.431 222.664C342.427 222.66 342.424 222.656 342.42 222.652C342.416 222.648 342.413 222.644 342.409 222.64C342.405 222.636 342.402 222.632 342.398 222.629C342.394 222.625 342.39 222.621 342.386 222.617C342.382 222.613 342.378 222.609 342.374 222.605C342.37 222.601 342.366 222.597 342.361 222.592C342.356 222.587 342.353 222.584 342.348 222.58C342.344 222.576 342.34 222.572 342.335 222.568C342.331 222.564 342.326 222.56 342.322 222.556C342.315 222.549 342.309 222.543 342.302 222.536C342.294 222.529 342.287 222.521 342.279 222.514C342.271 222.507 342.264 222.5 342.256 222.492C342.227 222.465 342.198 222.438 342.169 222.412C342.163 222.406 342.156 222.401 342.15 222.395C342.144 222.389 342.137 222.384 342.131 222.378C342.124 222.372 342.118 222.367 342.112 222.361C342.106 222.356 342.099 222.35 342.093 222.345C342.089 222.341 342.085 222.338 342.08 222.334C342.076 222.33 342.072 222.327 342.067 222.323C342.063 222.32 342.059 222.316 342.054 222.313C342.05 222.31 342.046 222.306 342.042 222.302C342.038 222.299 342.034 222.295 342.029 222.292C342.025 222.288 342.02 222.285 342.016 222.282C342.012 222.279 342.008 222.275 342.004 222.272C342 222.269 341.996 222.265 341.992 222.262C341.988 222.259 341.984 222.255 341.98 222.252C341.976 222.249 341.972 222.245 341.968 222.242C341.964 222.239 341.96 222.235 341.956 222.232C341.952 222.229 341.948 222.225 341.944 222.222C341.939 222.219 341.935 222.215 341.931 222.212C341.926 222.208 341.921 222.204 341.916 222.2C341.911 222.196 341.906 222.192 341.901 222.189C341.896 222.185 341.891 222.181 341.886 222.177C341.881 222.173 341.876 222.17 341.871 222.166C341.866 222.162 341.861 222.158 341.856 222.154C341.849 222.149 341.842 222.144 341.835 222.139C341.828 222.134 341.821 222.129 341.814 222.124C341.807 222.119 341.8 222.114 341.793 222.109C341.785 222.104 341.778 222.098 341.77 222.093C341.76 222.086 341.75 222.079 341.74 222.073C341.73 222.066 341.72 222.06 341.711 222.053C341.7 222.046 341.689 222.038 341.678 222.031C341.666 222.023 341.653 222.015 341.641 222.007C341.628 221.999 341.616 221.991 341.603 221.984C341.59 221.976 341.577 221.968 341.563 221.96C341.555 221.955 341.547 221.951 341.54 221.946L334.57 217.922C334.564 217.919 334.559 217.916 334.553 217.912C334.539 217.904 334.526 217.897 334.513 217.89C334.5 217.883 334.487 217.876 334.474 217.869C334.461 217.862 334.448 217.856 334.436 217.85C334.423 217.844 334.411 217.838 334.398 217.832C334.386 217.826 334.373 217.821 334.361 217.816C334.348 217.811 334.336 217.805 334.324 217.801C334.312 217.796 334.3 217.791 334.288 217.787C334.275 217.782 334.263 217.778 334.25 217.774C334.237 217.77 334.224 217.766 334.212 217.763C334.203 217.761 334.195 217.759 334.186 217.757L334.184 217.756C334.18 217.755 334.176 217.754 334.173 217.753C334.158 217.75 334.145 217.748 334.131 217.747C334.113 217.745 334.097 217.745 334.082 217.745C334.034 217.747 333.999 217.761 333.976 217.787L333.128 218.735C333.165 218.693 333.237 218.682 333.337 218.703L333.339 218.704C333.439 218.726 333.569 218.78 333.723 218.869L340.693 222.893C340.822 222.967 340.956 223.059 341.088 223.162L341.089 223.163C341.221 223.266 341.351 223.379 341.471 223.496C341.591 223.613 341.703 223.734 341.798 223.852L341.799 223.853C341.894 223.971 341.972 224.085 342.027 224.19L342.875 223.242C342.87 223.236 342.864 223.226 342.858 223.215Z" fill="white"/>
<path d="M334.557 221.721C334.485 222.319 334.213 223.385 334.274 223.985C334.457 225.78 335.161 227.548 336.405 228.855C336.672 229.135 336.972 229.4 337.337 229.529C337.702 229.658 338.144 229.628 338.431 229.368C338.736 229.091 338.796 228.642 338.824 228.231C338.867 227.617 338.883 226.994 338.744 226.395C338.605 225.796 338.295 225.217 337.794 224.86C337.429 224.6 336.989 224.472 336.573 224.305C336.157 224.138 335.815 223.857 335.488 223.501L334.557 221.721Z" fill="#F28F8F"/>
<path d="M367.847 198.949L368.801 197.25L361.124 196.585C359.919 198.161 358.4 199.497 356.671 200.47C354.491 201.698 351.993 202.354 349.491 202.355C348.574 202.355 347.594 202.245 346.886 201.662C345.936 200.879 345.766 199.435 346.153 198.266C346.389 197.551 346.793 196.914 347.255 196.316H345.019C342.336 198.702 340.26 201.811 338.877 205.125C338.258 206.607 337.783 208.194 337.887 209.797C337.99 211.4 338.757 213.027 340.144 213.837C339.973 215.668 340.052 217.648 340.327 219.467C340.602 221.286 341.372 223.095 342.789 224.268C344.102 225.354 345.826 225.793 347.506 226.077C351.793 226.802 356.215 226.719 360.472 225.833C362.419 225.428 364.421 224.78 365.933 223.543V206.264C365.934 203.701 366.592 201.182 367.847 198.949Z" fill="#455A64"/>
<path opacity="0.2" d="M357.909 188.289C355.217 193.513 353.542 193.626 349.554 194.093V191.514L357.909 188.289Z" fill="black"/>
<path opacity="0.2" d="M367.847 198.949L368.801 197.25L361.124 196.585C359.919 198.161 358.4 199.497 356.671 200.47C354.491 201.698 351.993 202.354 349.491 202.355C348.574 202.355 347.594 202.245 346.886 201.662C345.936 200.879 345.766 199.435 346.153 198.266C346.389 197.551 346.793 196.914 347.255 196.316H345.019C342.336 198.702 340.26 201.811 338.877 205.125C338.258 206.607 337.783 208.194 337.887 209.797C337.99 211.4 338.757 213.027 340.144 213.837C339.973 215.668 340.052 217.648 340.327 219.467C340.602 221.286 341.372 223.095 342.789 224.268C344.102 225.354 345.826 225.793 347.506 226.077C351.793 226.802 356.215 226.719 360.472 225.833C362.419 225.428 364.421 224.78 365.933 223.543V206.264C365.934 203.701 366.592 201.182 367.847 198.949Z" fill="white"/>
<path d="M341.623 176.21C340.841 180.138 340.79 184.212 341.481 188.158C341.741 189.645 342.174 191.225 343.35 192.17C344.801 193.335 346.876 193.161 348.722 192.927C350.734 192.672 352.778 192.408 354.637 191.598C356.496 190.788 358.179 189.34 358.788 187.406C359.751 188.039 361.129 187.715 361.94 186.896C362.751 186.078 363.072 184.88 363.102 183.729C363.129 182.683 362.857 181.503 361.96 180.964C361.349 180.597 360.562 180.617 359.898 180.877C359.235 181.137 358.677 181.61 358.178 182.119C357.925 182.377 357.677 182.651 357.358 182.82C357.039 182.989 356.625 183.034 356.329 182.827C355.963 182.572 355.912 182.06 355.89 181.615C355.801 179.8 355.616 177.917 354.688 176.355C353.76 174.793 351.884 173.651 350.13 174.125C349.326 174.342 348.601 174.873 347.768 174.896C347.103 174.914 346.477 174.603 345.894 174.281C345.883 174.275 345.872 174.269 345.861 174.263C343.971 173.216 342.045 174.089 341.623 176.21Z" fill="#F28F8F"/>
<path d="M347.285 181.107L344.895 185.13L347.745 185.665L347.285 181.107Z" fill="#F28F8F"/>
<path opacity="0.1" d="M347.285 181.107L344.895 185.13L347.745 185.665L347.285 181.107Z" fill="black"/>
<path d="M350.492 187.051C349.77 187.402 349.048 187.753 348.327 188.104C348.642 188.596 349.436 188.81 349.969 188.571C350.501 188.331 350.65 187.613 350.492 187.051Z" fill="#F28F8F"/>
<path opacity="0.3" d="M350.492 187.051C349.77 187.402 349.048 187.753 348.327 188.104C348.642 188.596 349.436 188.81 349.969 188.571C350.501 188.331 350.65 187.613 350.492 187.051Z" fill="black"/>
<path d="M349.216 188.642C349.476 188.688 349.745 188.671 349.968 188.571C350.386 188.383 350.565 187.901 350.547 187.43C350.24 187.431 349.932 187.532 349.694 187.727C349.419 187.951 349.251 188.289 349.216 188.642Z" fill="#F28F8F"/>
<path opacity="0.1" d="M349.216 188.642C349.476 188.688 349.745 188.671 349.968 188.571C350.386 188.383 350.565 187.901 350.547 187.43C350.24 187.431 349.932 187.532 349.694 187.727C349.419 187.951 349.251 188.289 349.216 188.642Z" fill="black"/>
<path d="M351.412 181.266C351.457 181.716 351.129 182.117 350.68 182.162C350.23 182.207 349.829 181.879 349.784 181.43C349.739 180.98 350.067 180.579 350.516 180.534C350.965 180.489 351.367 180.817 351.412 181.266Z" fill="#263238"/>
<path d="M344.549 181.692C344.594 182.142 344.266 182.543 343.817 182.588C343.367 182.633 342.966 182.305 342.921 181.856C342.876 181.406 343.204 181.005 343.653 180.96C344.102 180.914 344.504 181.242 344.549 181.692Z" fill="#263238"/>
<path d="M343.43 178.531C342.87 179.008 342.311 179.485 341.751 179.961C341.529 179.551 341.645 178.978 341.975 178.648C342.304 178.318 343.02 178.31 343.43 178.531Z" fill="#263238"/>
<path d="M350.393 177.73C351.037 178.085 351.68 178.441 352.324 178.796C352.459 178.35 352.231 177.811 351.843 177.554C351.453 177.297 350.751 177.432 350.393 177.73Z" fill="#263238"/>
<path d="M425.189 286.943L427.042 290.85L422.611 295.724L422.933 307.365L437.218 294.961C438.534 293.818 438.923 291.936 438.167 290.365L433.808 281.304L425.189 286.943Z" fill="#733D3C"/>
<path d="M424.833 287.883C430.505 287.386 434.372 281.506 434.372 281.506C429.297 271.114 424.866 259.554 416.005 262.313L424.833 287.883Z" fill="white"/>
<path opacity="0.1" d="M419.786 273.263L424.833 287.882C426.677 287.721 428.325 286.988 429.716 286.075C427.687 280.993 424.198 276.502 419.786 273.263Z" fill="black"/>
<path d="M402.69 410.096C402.155 411.783 400.305 412.748 398.541 412.888C396.777 413.028 395.034 412.532 393.293 412.217C389.394 411.511 385.635 412.211 381.747 412.119C380.471 412.089 379.184 412.03 377.95 411.706C376.715 411.382 375.524 410.77 374.703 409.793C374.218 409.216 373.886 408.499 373.768 407.758C373.577 408.871 373.97 410.061 374.703 410.933C375.524 411.91 376.715 412.522 377.95 412.846C379.184 413.17 380.471 413.229 381.747 413.259C385.635 413.35 389.394 412.65 393.293 413.357C395.034 413.672 396.777 414.168 398.541 414.028C400.305 413.888 402.155 412.923 402.69 411.236C402.874 410.655 402.886 410.048 402.825 409.439C402.799 409.661 402.759 409.881 402.69 410.096Z" fill="#37474F"/>
<path d="M402.59 406.865C402.351 405.684 402.112 404.503 401.873 403.323C401.747 402.699 401.614 402.058 401.273 401.52C400.932 400.982 400.331 400.561 399.696 400.619C397.561 400.335 394.559 399.562 392.785 400.783C390.008 402.695 386.606 403.683 383.237 403.556C381.473 403.49 379.707 403.128 377.955 403.343C376.203 403.558 374.38 404.533 373.859 406.22C373.705 406.719 373.687 407.244 373.768 407.758C373.886 408.499 374.218 409.216 374.703 409.793C375.524 410.77 376.715 411.382 377.95 411.706C379.184 412.03 380.471 412.089 381.747 412.119C385.635 412.21 389.394 411.51 393.293 412.217C395.034 412.533 396.777 413.028 398.541 412.888C400.305 412.748 402.155 411.783 402.69 410.096C402.758 409.881 402.799 409.661 402.825 409.439C402.926 408.593 402.761 407.712 402.59 406.865Z" fill="#455A64"/>
<path d="M392.267 397.073L392.114 401.687C392.082 402.668 392.829 403.509 393.809 403.574C395.394 403.679 396.937 403.672 398.46 403.529C399.756 403.407 400.768 402.356 400.838 401.057L401.021 397.649L392.267 397.073Z" fill="#733D3C"/>
<path d="M422.396 394.618C422.348 395.303 422.184 395.979 421.778 396.524C421.269 397.208 420.438 397.593 419.6 397.75C417.575 398.129 415.366 397.22 414.195 395.525C413.615 394.685 413.284 393.696 412.735 392.836C411.973 391.642 410.829 390.751 409.705 389.889C408.581 389.027 407.431 388.146 406.652 386.963C405.898 385.819 405.551 384.32 406.068 383.059C405.96 383.213 405.862 383.375 405.782 383.55C405.174 384.875 405.534 386.487 406.33 387.707C407.126 388.926 408.299 389.835 409.446 390.723C410.593 391.611 411.76 392.53 412.538 393.761C413.098 394.648 413.435 395.667 414.027 396.533C415.222 398.28 417.476 399.218 419.542 398.827C420.397 398.665 421.244 398.268 421.764 397.563C422.312 396.819 422.428 395.839 422.41 394.912C422.409 394.814 422.401 394.716 422.396 394.618Z" fill="#37474F"/>
<path d="M420.997 388.826C419.595 386.367 416.701 384.578 414.47 382.837C413.204 381.849 411.746 381.005 410.145 380.873C408.544 380.74 406.791 381.474 406.116 382.932C406.097 382.974 406.087 383.018 406.069 383.061C405.552 384.321 405.898 385.82 406.653 386.965C407.433 388.148 408.582 389.029 409.706 389.891C410.83 390.753 411.974 391.644 412.736 392.838C413.285 393.699 413.615 394.687 414.196 395.527C415.367 397.222 417.576 398.131 419.601 397.752C420.439 397.595 421.27 397.21 421.779 396.526C422.185 395.981 422.348 395.306 422.397 394.62C422.413 394.398 422.416 394.174 422.412 393.954C422.375 392.162 421.884 390.382 420.997 388.826Z" fill="#455A64"/>
<path d="M414.913 386.694V390.888C418.74 392.487 421.439 390.6 421.439 390.6L421.832 386.826L414.913 386.694Z" fill="#733D3C"/>
<path d="M422.934 310.604C424.192 314.378 422.646 332.306 421.912 349.501C424.638 356.001 423.904 374.454 422.331 387.559C422.331 387.559 419.605 389.236 414.677 387.559L408.491 351.388L407.633 330.944C407.633 330.944 406.08 349.082 404.298 360.719C405.976 369.631 405.556 371.308 401.415 398.72C401.415 398.72 397.169 401.188 392.136 398.72C389.794 360.208 390.655 325.112 391.099 312.492L422.934 310.604Z" fill="#37474F"/>
<path opacity="0.3" d="M408.156 343.394L407.456 326.721C411.765 326.721 415.764 323.5 418.805 320.446C415.883 325.65 410.222 327.956 410.222 327.956L408.156 343.394Z" fill="black"/>
<path d="M390.442 280.861V313.514C409.668 321.57 422.128 314.293 423.82 310.507C422.934 297.215 426.076 281.667 425.834 275.061C425.592 268.455 424.782 261.014 414.54 262.506L403.648 263.568L398.122 264.911L390.442 280.861Z" fill="white"/>
<path opacity="0.1" d="M390.442 285.066L398.32 276.398C396.466 285.875 390.442 292.592 390.442 292.592V285.066Z" fill="black"/>
<path d="M380.235 279.087L376.566 282.907L367.771 271.247C369.452 266.624 369.84 263.221 369.92 261.583C369.949 260.987 369.477 260.492 368.881 260.492C368.48 260.492 368.114 260.723 367.941 261.086L366.313 264.513C365.838 264.357 365.462 263.989 365.295 263.517L364.976 262.613C364.763 262.008 364.654 261.371 364.654 260.729V258.472C364.654 257.095 363.181 256.243 361.968 256.895C360.771 257.538 359.904 258.366 359.307 259.094C358.601 259.954 358.221 261.033 358.221 262.145V265.19C358.221 265.973 358.358 266.749 358.625 267.484L360.214 271.855C360.359 272.253 360.541 272.637 360.758 273.001L372.112 292.026C373.849 294.937 377.806 295.548 380.341 293.297L387.571 286.877L380.235 279.087Z" fill="#8C5554"/>
<path d="M374.318 287.593C374.318 287.593 374.921 284.615 376.567 282.907L375.555 281.565C374.793 282.974 373.715 285.721 374.318 287.593Z" fill="#733D3C"/>
<path d="M379.331 279.112L389.656 268.956C391.955 266.694 394.941 265.262 398.144 264.886L398.329 264.864C402.701 274.438 396.922 279.113 396.922 279.113L387.323 287.934C381.215 284.691 379.331 279.112 379.331 279.112Z" fill="white"/>
<path d="M398.424 241.142C397.699 240.488 398.198 239.437 398.198 239.437C397.682 239.623 397.042 239.5 396.576 239.211C396.11 238.922 395.807 238.368 395.865 237.823C395.923 237.278 396.37 236.784 396.914 236.719C396.407 236.643 395.984 236.279 395.674 235.871C395.364 235.463 395.22 234.933 395.282 234.424C395.398 233.475 396.201 232.718 397.103 232.402C398.005 232.086 398.992 232.134 399.941 232.248C399.585 231.27 400.178 229.961 401.137 229.557C401.985 229.2 402.991 229.458 403.745 229.984C404.499 230.511 405.052 231.271 405.59 232.017C407.692 230.963 410.209 230.707 412.391 231.584C414.573 232.461 416.345 234.306 417.134 236.522C418.855 237.02 420.246 238.564 420.744 240.284C421.243 242.005 421.02 243.871 420.434 245.564C419.847 247.257 418.913 248.804 417.965 250.324C417.514 251.046 417.059 251.764 416.604 252.483C416.032 253.385 414.572 255.628 414 256.531C411.513 257.799 408.326 257.496 405.947 256.036C403.567 254.576 401.873 252.185 400.776 249.617C399.678 247.049 398.958 243.882 398.424 241.142Z" fill="#263238"/>
<path d="M397.176 246.736L395.456 249.726L397.158 250.355C397.102 249.149 397.107 247.942 397.176 246.736Z" fill="#733D3C"/>
<path d="M398.424 241.142C397.906 242.78 397.283 244.855 397.176 246.736C397.107 247.941 397.102 249.149 397.158 250.354C397.236 252.051 397.423 253.742 397.748 255.409C397.924 256.31 398.153 257.241 398.744 257.943C399.412 258.737 400.464 259.128 401.498 259.21C402.532 259.293 403.567 259.102 404.587 258.913V263.817C408.309 264.694 411.392 265.082 414.31 262.836L414 256.529C412.438 256.785 410.784 256.575 408.762 255.702C406.191 254.315 405.471 252.099 405.832 250.86C406.211 251.485 407.13 251.729 407.843 251.566C408.556 251.404 409.146 250.873 409.512 250.24C409.878 249.607 410.042 248.878 410.135 248.153C410.248 247.27 410.244 246.31 409.754 245.567C409.151 244.654 407.899 244.304 406.842 244.585C405.785 244.866 404.928 245.682 404.391 246.634C404.221 246.935 404.08 247.249 403.96 247.573C403.742 248.16 402.889 248.053 402.832 247.429C402.703 246.028 402.951 244.59 403.57 243.326C403.111 243.525 402.696 243.661 402.196 243.645C401.696 243.629 401.186 243.428 400.88 243.032C400.574 242.636 400.522 242.035 400.829 241.639C399.594 242.263 398.424 241.142 398.424 241.142Z" fill="#8C5554"/>
<path d="M310.068 413.467C309.595 414.46 308.094 415.377 306.451 415.648C304.808 415.919 303.137 415.563 301.488 415.333C299.036 414.991 296.546 414.927 294.08 415.144C292.544 415.279 291.012 415.522 289.471 415.473C287.93 415.425 286.346 415.056 285.138 414.1C284.28 413.421 283.664 412.402 283.511 411.336C283.311 412.727 284.023 414.182 285.138 415.064C286.347 416.021 287.93 416.389 289.471 416.437C291.012 416.485 292.545 416.242 294.08 416.108C296.546 415.892 299.036 415.955 301.488 416.297C303.137 416.527 304.926 417 306.568 416.729C308.211 416.458 309.712 415.541 310.185 414.548L310.068 413.467Z" fill="#455A64"/>
<path d="M292.087 410.537C293.469 410.537 292.961 408.491 294.276 407.121C293.741 407.152 293.204 407.161 292.666 407.16C291.485 408.862 291.153 410.537 292.087 410.537Z" fill="white"/>
<path d="M294.958 410.43C296.348 410.43 295.983 407.992 297.349 406.57C297.038 406.677 296.722 406.771 296.403 406.843C296.131 406.904 295.856 406.951 295.581 406.991C294.364 408.715 294.013 410.43 294.958 410.43Z" fill="white"/>
<path d="M308.639 405.756C308.546 405.305 308.29 404.904 307.92 404.63L300.45 404.444C299.686 405.464 298.563 406.152 297.349 406.57C295.983 407.992 296.348 410.43 294.958 410.43C294.013 410.43 294.364 408.714 295.581 406.99C295.149 407.054 294.713 407.095 294.276 407.12C292.961 408.49 293.469 410.536 292.087 410.536C291.153 410.536 291.485 408.861 292.667 407.159C292.318 407.158 291.969 407.154 291.621 407.149C291.305 407.144 290.985 407.123 290.666 407.097C287.92 409.269 287.686 411.626 288.04 415.324C288.513 415.408 288.994 415.459 289.471 415.474C291.012 415.522 292.545 415.279 294.08 415.145C296.546 414.929 299.036 414.992 301.488 415.334C303.137 415.564 304.808 415.92 306.451 415.649C308.094 415.378 309.595 414.461 310.068 413.468L308.639 405.756Z" fill="#455A64"/>
<path d="M290.665 407.097C289.409 406.995 288.138 406.802 286.931 407.097C285.416 407.467 283.965 408.513 283.57 410.022C283.457 410.456 283.449 410.9 283.511 411.337C283.663 412.404 284.28 413.423 285.138 414.101C285.972 414.761 286.986 415.136 288.04 415.324C287.685 411.626 287.919 409.269 290.665 407.097Z" fill="white"/>
<path d="M300.237 402.316V405.915C300.237 406.732 300.899 407.394 301.716 407.394H305.482C306.791 407.394 307.864 406.356 307.907 405.047L307.996 402.316H300.237Z" fill="#FFA8A7"/>
<path d="M325.128 400.715C324.679 401.614 323.863 402.221 322.862 402.301C321.881 402.38 320.826 402.124 319.994 401.596C318.698 400.774 318.193 399.479 317.309 398.312C316.428 397.149 315.298 396.198 314.185 395.262C313.009 394.272 311.83 393.203 311.2 391.801C311.021 391.403 310.906 390.971 310.846 390.532C310.732 391.344 310.862 392.215 311.2 392.967C311.83 394.369 313.009 395.438 314.185 396.428C315.298 397.365 316.427 398.315 317.309 399.478C318.193 400.644 318.698 401.939 319.994 402.762C320.825 403.29 321.881 403.546 322.862 403.467C323.863 403.387 324.679 402.78 325.128 401.881C325.282 401.572 325.29 400.656 325.264 399.875C325.247 400.246 325.206 400.559 325.128 400.715Z" fill="#455A64"/>
<path d="M316.642 392.816C316.535 393.003 316.416 393.221 316.46 393.432C316.504 393.643 316.665 393.826 316.868 393.897C317.154 393.996 317.476 393.875 317.708 393.68C317.939 393.485 318.104 393.225 318.291 392.987C318.786 392.355 319.46 391.863 320.213 391.585C320.582 391.448 320.97 391.364 321.362 391.331C321.051 391.047 320.739 390.763 320.428 390.479C319.841 390.515 319.259 390.647 318.726 390.897C317.855 391.302 317.117 391.983 316.642 392.816Z" fill="white"/>
<path d="M316.841 389.848C315.972 390.255 315.234 390.935 314.758 391.769C314.651 391.956 314.532 392.174 314.576 392.385C314.62 392.596 314.78 392.779 314.984 392.85C315.27 392.949 315.592 392.828 315.824 392.633C316.056 392.438 316.22 392.178 316.407 391.939C316.902 391.307 317.576 390.816 318.329 390.537C318.93 390.315 319.579 390.234 320.217 390.288C319.909 390.007 319.601 389.726 319.293 389.446C318.458 389.361 317.601 389.492 316.841 389.848Z" fill="white"/>
<path d="M318.704 388.912C317.815 388.121 316.878 387.373 315.771 386.953C314.433 386.445 312.773 386.517 311.741 387.509C310.947 388.272 310.698 389.424 310.848 390.532C310.907 390.971 311.023 391.403 311.202 391.801C311.441 392.334 311.76 392.818 312.128 393.269C312.486 390.052 315.279 388.547 318.704 388.912Z" fill="white"/>
<path d="M325.203 397.56C325.12 396.408 325.058 395.411 324.472 394.415L322.656 392.51C322.224 392.116 321.793 391.723 321.361 391.329C320.969 391.362 320.581 391.446 320.212 391.583C319.459 391.862 318.786 392.353 318.29 392.985C318.103 393.223 317.939 393.483 317.707 393.678C317.475 393.873 317.153 393.994 316.867 393.895C316.663 393.824 316.503 393.641 316.459 393.43C316.415 393.219 316.534 393.002 316.641 392.814C317.116 391.981 317.855 391.3 318.724 390.893C319.257 390.643 319.839 390.511 320.426 390.475C320.356 390.411 320.286 390.347 320.216 390.283C319.578 390.229 318.929 390.31 318.328 390.532C317.575 390.811 316.902 391.302 316.406 391.934C316.219 392.172 316.055 392.433 315.823 392.628C315.592 392.823 315.269 392.945 314.983 392.845C314.779 392.774 314.619 392.592 314.575 392.38C314.531 392.169 314.65 391.952 314.757 391.764C315.233 390.931 315.971 390.25 316.84 389.843C317.6 389.487 318.457 389.357 319.292 389.439C319.281 389.429 319.269 389.418 319.258 389.408C319.075 389.241 318.89 389.074 318.703 388.908C315.279 388.542 312.486 390.048 312.127 393.265C312.727 394 313.457 394.645 314.186 395.258C315.299 396.195 316.428 397.145 317.31 398.308C318.194 399.474 318.699 400.769 319.995 401.592C320.826 402.12 321.882 402.376 322.863 402.297C323.864 402.217 324.68 401.61 325.129 400.711C325.207 400.555 325.247 400.242 325.265 399.871C325.304 399.034 325.227 397.888 325.203 397.56Z" fill="#455A64"/>
<path d="M318.649 391.872L318.863 395.733C321.301 397.139 323.863 396.374 324.718 395.484L324.878 391.872H318.649Z" fill="#FFA8A7"/>
<path d="M323.451 308.395C323.245 307.98 323.111 307.531 323.082 307.065L322.874 303.751L299.256 305.267C298.944 306.924 298.627 308.953 298.318 311.251C306.658 313.471 315.819 312.417 323.451 308.395Z" fill="#FF9192"/>
<path d="M322.989 295.021L328.02 304.739L323.451 312.392L328.503 320.385L336.134 308.539C337.179 306.917 337.454 304.92 336.914 303.068C334.5 294.785 331.956 289.575 331.956 289.575L322.989 295.021Z" fill="#FFA8A7"/>
<path d="M318.991 276.247C324.781 275.17 328.089 277.1 332.983 290.196C330.984 294.676 322.506 296.33 322.506 296.33L318.991 276.247Z" fill="#BA68C8"/>
<path opacity="0.4" d="M318.991 276.247C324.781 275.17 328.089 277.1 332.983 290.196C330.984 294.676 322.506 296.33 322.506 296.33L318.991 276.247Z" fill="white"/>
<path d="M299.452 262.641L297.501 266.033L299.638 266.823L299.452 262.641Z" fill="#FF9192"/>
<path d="M299.232 261.129C299.545 258.154 300.416 255.348 302.354 253.925C301.683 257.825 303.025 262.287 304.585 264.573C304.774 263.593 305.289 262.694 306.027 262.022C306.766 261.35 307.881 261.039 308.799 261.43C309.448 261.706 309.929 262.295 310.193 262.949C310.708 264.224 310.413 265.787 309.468 266.786C308.523 267.785 306.978 268.166 305.677 267.722C306.116 270.379 308.384 272.544 311.013 273.126C312.736 273.508 314.536 273.279 316.186 272.634L316.992 276.644C313.727 280.127 308.149 277.787 308.149 277.787L307.414 273.842C300.993 274.223 300.394 274.114 299.687 270.577C299.298 268.634 298.85 264.755 299.232 261.129Z" fill="#FFA8A7"/>
<path d="M298.465 254C299.526 251.356 301.914 249.38 304.589 248.401C307.265 247.422 310.204 247.359 313.025 247.756C314.766 248.001 316.501 248.423 318.057 249.24C319.614 250.056 321.017 251.362 321.779 252.946L322.109 250.208C322.79 250.347 323.378 250.875 323.59 251.537C323.802 252.199 323.559 253.036 323.085 253.544H323.342C328.099 253.544 331.955 257.4 331.955 262.157V276.78C327.284 276.78 323.498 272.994 323.498 268.323V264.962C322.381 267.412 320.803 269.707 318.631 271.298C317.882 271.846 317.053 272.295 316.184 272.634C314.534 273.279 312.733 273.508 311.011 273.126C308.382 272.543 306.114 270.378 305.675 267.722C306.977 268.166 308.521 267.785 309.466 266.786C310.411 265.787 310.707 264.224 310.191 262.949C309.927 262.295 309.446 261.707 308.797 261.43C307.879 261.038 306.763 261.35 306.025 262.022C305.287 262.694 304.772 263.593 304.583 264.573C303.023 262.287 301.681 257.825 302.352 253.925C300.414 255.348 299.543 258.153 299.23 261.129C297.778 259.137 297.536 256.316 298.465 254Z" fill="#BA68C8"/>
<path opacity="0.4" d="M298.465 254C299.526 251.356 301.914 249.38 304.589 248.401C307.265 247.422 310.204 247.359 313.025 247.756C314.766 248.001 316.501 248.423 318.057 249.24C319.614 250.056 321.017 251.362 321.779 252.946L322.109 250.208C322.79 250.347 323.378 250.875 323.59 251.537C323.802 252.199 323.559 253.036 323.085 253.544H323.342C328.099 253.544 331.955 257.4 331.955 262.157V276.78C327.284 276.78 323.498 272.994 323.498 268.323V264.962C322.381 267.412 320.803 269.707 318.631 271.298C317.882 271.846 317.053 272.295 316.184 272.634C314.534 273.279 312.733 273.508 311.011 273.126C308.382 272.543 306.114 270.378 305.675 267.722C306.977 268.166 308.521 267.785 309.466 266.786C310.411 265.787 310.707 264.224 310.191 262.949C309.927 262.295 309.446 261.707 308.797 261.43C307.879 261.038 306.763 261.35 306.025 262.022C305.287 262.694 304.772 263.593 304.583 264.573C303.023 262.287 301.681 257.825 302.352 253.925C300.414 255.348 299.543 258.153 299.23 261.129C297.778 259.137 297.536 256.316 298.465 254Z" fill="black"/>
<path d="M308.149 277.787L301.829 279.03C300.432 281.586 299.009 283.987 297.612 286.543C296.56 288.469 295.477 290.516 295.557 292.708C295.642 295.042 297.184 297.261 299.342 298.154L298.612 306.784C308.537 309.817 320.668 307.152 323.333 304.854C324.117 301.237 324.811 297.391 325.594 293.774C326.103 291.424 326.614 289.057 326.663 286.653C326.712 284.249 326.269 281.778 324.995 279.74C324.982 279.72 324.97 279.699 324.957 279.679C323.319 277.107 320.211 275.87 317.2 276.349L308.149 277.787Z" fill="#BA68C8"/>
<path opacity="0.1" d="M308.149 277.787L301.829 279.03C300.432 281.586 299.009 283.987 297.612 286.543C296.56 288.469 295.477 290.516 295.557 292.708C295.642 295.042 297.184 297.261 299.342 298.154L298.612 306.784C308.537 309.817 320.668 307.152 323.333 304.854C324.117 301.237 324.811 297.391 325.594 293.774C326.103 291.424 326.614 289.057 326.663 286.653C326.712 284.249 326.269 281.778 324.995 279.74C324.982 279.72 324.97 279.699 324.957 279.679C323.319 277.107 320.211 275.87 317.2 276.349L308.149 277.787Z" fill="black"/>
<path d="M323.818 308.999C323.674 308.81 323.556 308.606 323.452 308.395C315.82 312.417 306.659 313.471 298.319 311.252C296.538 324.502 295.008 346.939 295.948 361.741C296.729 378.972 299.9 403.372 299.9 403.372C304.036 404.613 307.137 403.854 308.309 402.958C309.687 385.865 312.72 374.147 310.377 362.844C311.939 354.941 312.95 345.015 312.95 345.015L314.145 362.476L318.188 393.171C322.14 395.193 325.448 392.803 325.448 392.803C328.389 375.25 329.491 363.356 326.918 354.645C330.844 325.841 331.044 318.471 323.818 308.999Z" fill="#BA68C8"/>
<path opacity="0.5" d="M323.818 308.999C323.674 308.81 323.556 308.606 323.452 308.395C315.82 312.417 306.659 313.471 298.319 311.252C296.538 324.502 295.008 346.939 295.948 361.741C296.729 378.972 299.9 403.372 299.9 403.372C304.036 404.613 307.137 403.854 308.309 402.958C309.687 385.865 312.72 374.147 310.377 362.844C311.939 354.941 312.95 345.015 312.95 345.015L314.145 362.476L318.188 393.171C322.14 395.193 325.448 392.803 325.448 392.803C328.389 375.25 329.491 363.356 326.918 354.645C330.844 325.841 331.044 318.471 323.818 308.999Z" fill="black"/>
<path opacity="0.3" d="M314.688 341.563L316.855 332.47C319.382 332.056 323.334 330.402 325.411 326.935C322.441 329.237 318.683 330.632 314.926 330.632L312.95 345.014L313.371 351.16L313.541 348.923C313.727 346.444 314.112 343.982 314.688 341.563Z" fill="black"/>
<path d="M285.295 279.635C282.255 279.577 278.963 279.288 275.5 278.556C275.5 278.556 267.78 269.656 265.529 265.705C266.065 263.584 266.606 261.498 267.143 259.387C267.325 258.671 267.286 257.91 267.013 257.223C266.631 256.262 266.16 255.286 265.615 254.48C264.858 253.363 263.731 252.428 262.4 252.209C261.069 251.989 259.557 252.642 259.056 253.894C258.717 254.74 258.87 255.72 259.26 256.543C259.65 257.367 260.256 258.065 260.855 258.753C259.581 260.955 259.573 264.047 260.726 266.315L267.5 283.839C268.33 285.987 270.225 287.544 272.494 287.94L283.37 289.841C284.546 288.574 288.026 287.292 288.397 285.603C288.81 283.719 286.002 281.427 285.295 279.635Z" fill="#FFA8A7"/>
<path d="M300.842 278.915C296.93 279.1 291.059 279.745 285.295 279.635C286.003 281.428 286.182 283.431 285.768 285.315C285.397 287.004 284.545 288.574 283.37 289.842L296.947 292.215C299.859 292.724 302.802 290.785 303.506 287.914C303.928 286.194 304.38 284.753 304.641 283.078C304.991 280.81 303.133 278.807 300.842 278.915Z" fill="#BA68C8"/>
<path opacity="0.4" d="M300.842 278.915C296.93 279.1 291.059 279.745 285.295 279.635C286.003 281.428 286.182 283.431 285.768 285.315C285.397 287.004 284.545 288.574 283.37 289.842L296.947 292.215C299.859 292.724 302.802 290.785 303.506 287.914C303.928 286.194 304.38 284.753 304.641 283.078C304.991 280.81 303.133 278.807 300.842 278.915Z" fill="white"/>
<path d="M245.816 321.056L247.669 324.963L243.238 329.837L243.56 341.478L257.845 329.074C259.161 327.931 259.55 326.049 258.794 324.478L254.435 315.417L245.816 321.056Z" fill="#FFBEA7"/>
<path d="M250.22 328.447C250.22 328.447 248.219 326.789 247.669 324.963L246.565 326.177C247.144 327.066 248.307 328.027 250.22 328.447Z" fill="#E39D84"/>
<path d="M245.46 321.996C251.133 321.499 254.999 315.618 254.999 315.618C249.924 305.226 245.493 293.666 236.632 296.425L245.46 321.996Z" fill="#BA68C8"/>
<path opacity="0.2" d="M245.46 321.996C251.133 321.499 254.999 315.618 254.999 315.618C249.924 305.226 245.493 293.666 236.632 296.425L245.46 321.996Z" fill="black"/>
<path d="M223.317 444.209C222.781 445.896 220.932 446.861 219.168 447.001C217.404 447.141 215.661 446.645 213.92 446.33C210.021 445.624 206.262 446.324 202.374 446.232C201.098 446.202 199.811 446.143 198.577 445.819C197.343 445.495 196.151 444.883 195.33 443.906C194.845 443.329 194.513 442.612 194.395 441.871C194.204 442.984 194.597 444.174 195.33 445.046C196.151 446.023 197.342 446.635 198.577 446.959C199.812 447.283 201.098 447.342 202.374 447.372C206.262 447.464 210.021 446.763 213.92 447.47C215.661 447.785 217.404 448.281 219.168 448.141C220.932 448.001 222.782 447.036 223.317 445.349C223.501 444.769 223.513 444.161 223.452 443.552C223.426 443.774 223.386 443.994 223.317 444.209Z" fill="#455A64"/>
<path d="M223.217 440.979C222.978 439.798 222.739 438.617 222.5 437.437C222.374 436.812 222.241 436.172 221.9 435.634C221.559 435.096 220.958 434.674 220.323 434.733C218.188 434.449 215.186 433.676 213.412 434.898C210.635 436.809 207.233 437.797 203.864 437.671C202.1 437.605 200.334 437.243 198.582 437.458C196.83 437.673 195.007 438.649 194.486 440.335C194.332 440.834 194.314 441.359 194.395 441.873C194.513 442.614 194.845 443.331 195.33 443.908C196.151 444.886 197.342 445.497 198.577 445.821C199.811 446.145 201.098 446.204 202.374 446.234C206.262 446.326 210.021 445.625 213.92 446.332C215.661 446.647 217.404 447.143 219.168 447.003C220.932 446.863 222.782 445.898 223.317 444.211C223.385 443.996 223.426 443.776 223.452 443.554C223.554 442.706 223.389 441.825 223.217 440.979Z" fill="#455A64"/>
<path d="M212.895 431.186L212.742 435.8C212.71 436.781 213.457 437.622 214.437 437.687C216.022 437.792 217.566 437.785 219.088 437.642C220.383 437.52 221.396 436.469 221.466 435.17L221.649 431.763L212.895 431.186Z" fill="#FFA8A7"/>
<path d="M243.023 428.732C242.975 429.418 242.811 430.093 242.405 430.638C241.896 431.322 241.066 431.707 240.227 431.864C238.202 432.243 235.993 431.334 234.822 429.639C234.242 428.799 233.911 427.81 233.362 426.95C232.6 425.756 231.456 424.865 230.332 424.003C229.208 423.141 228.058 422.26 227.279 421.077C226.525 419.933 226.178 418.434 226.695 417.173C226.587 417.327 226.489 417.489 226.409 417.664C225.801 418.989 226.161 420.602 226.957 421.821C227.753 423.04 228.926 423.949 230.073 424.837C231.22 425.726 232.388 426.644 233.165 427.875C233.725 428.762 234.062 429.781 234.654 430.647C235.849 432.394 238.103 433.332 240.169 432.941C241.024 432.779 241.872 432.382 242.391 431.677C242.939 430.933 243.055 429.953 243.037 429.026C243.036 428.927 243.028 428.829 243.023 428.732Z" fill="#455A64"/>
<path d="M241.624 422.939C240.221 420.48 237.328 418.691 235.097 416.95C233.831 415.962 232.373 415.118 230.772 414.986C229.171 414.853 227.418 415.587 226.743 417.045C226.724 417.087 226.714 417.131 226.696 417.173C226.179 418.433 226.525 419.933 227.28 421.077C228.06 422.26 229.209 423.141 230.333 424.003C231.457 424.865 232.601 425.756 233.363 426.95C233.912 427.811 234.242 428.799 234.823 429.639C235.994 431.334 238.203 432.243 240.228 431.864C241.067 431.707 241.897 431.322 242.406 430.638C242.812 430.093 242.975 429.417 243.024 428.732C243.04 428.51 243.044 428.287 243.039 428.066C243.003 426.275 242.511 424.495 241.624 422.939Z" fill="#455A64"/>
<path d="M235.541 420.807V425.001C239.368 426.6 242.067 424.713 242.067 424.713L242.46 420.939L235.541 420.807Z" fill="#FFA8A7"/>
<path d="M243.561 344.718C244.819 348.492 243.273 366.42 242.539 383.614C245.265 390.114 244.531 408.567 242.958 421.672C242.958 421.672 240.232 423.35 235.304 421.672L229.118 385.501L228.26 365.057C228.26 365.057 226.707 383.195 224.925 394.832C226.602 403.744 226.183 405.421 222.042 432.833C222.042 432.833 217.796 435.302 212.763 432.833C210.421 394.321 211.282 359.225 211.726 346.605L243.561 344.718Z" fill="#455A64"/>
<path opacity="0.3" d="M228.783 377.507L228.083 360.834C232.392 360.834 236.391 357.613 239.432 354.559C236.51 359.763 230.849 362.069 230.849 362.069L228.783 377.507Z" fill="black"/>
<path d="M211.069 314.974V347.627C230.295 355.683 242.755 348.406 244.447 344.619C243.561 331.327 246.702 315.779 246.461 309.174C246.219 302.568 245.409 295.127 235.167 296.619L224.275 297.681L218.749 299.024L211.069 314.974Z" fill="#BA68C8"/>
<path d="M184.631 303.943L183.891 304.113L189.207 301.043L189.947 300.874L184.631 303.943Z" fill="#455A64"/>
<path d="M178.507 290.334L183.824 287.264L178.507 290.334Z" fill="#455A64"/>
<path d="M178.507 290.334L183.516 301.466L184.631 303.943L189.947 300.874L183.824 287.264L178.507 290.334Z" fill="#BA68C8"/>
<path d="M190.731 300.908L184.26 286.526C184.165 286.314 183.949 286.219 183.783 286.315L177.857 289.737C177.819 289.759 177.789 289.791 177.763 289.826C177.757 289.834 177.751 289.843 177.745 289.852C177.728 289.88 177.717 289.912 177.706 289.943C177.703 289.954 177.696 289.963 177.693 289.974C177.692 289.976 177.693 289.978 177.692 289.981C177.683 290.024 177.681 290.07 177.684 290.116C177.685 290.128 177.686 290.141 177.688 290.153C177.695 290.202 177.706 290.252 177.727 290.299L184.198 304.681C184.22 304.73 184.25 304.772 184.283 304.808C184.294 304.819 184.306 304.827 184.317 304.837C184.341 304.858 184.366 304.877 184.393 304.891C184.408 304.899 184.423 304.903 184.438 304.908C184.464 304.917 184.49 304.922 184.516 304.924C184.532 304.925 184.548 304.925 184.564 304.923C184.602 304.919 184.64 304.911 184.675 304.891L190.601 301.47C190.768 301.373 190.826 301.12 190.731 300.908ZM183.824 287.264L189.948 300.874L184.632 303.943L183.517 301.466L178.508 290.333L183.824 287.264Z" fill="#455A64"/>
<path d="M184.437 304.908C184.422 304.903 184.407 304.898 184.392 304.891C184.365 304.877 184.341 304.858 184.316 304.837C184.305 304.827 184.292 304.819 184.282 304.808C184.249 304.772 184.219 304.73 184.197 304.681L177.726 290.299C177.705 290.252 177.693 290.202 177.687 290.153C177.685 290.141 177.684 290.128 177.683 290.116C177.68 290.07 177.682 290.024 177.691 289.981C177.692 289.979 177.691 289.977 177.692 289.974C177.695 289.963 177.701 289.954 177.705 289.943C177.716 289.911 177.727 289.879 177.744 289.852C177.75 289.843 177.755 289.834 177.762 289.826C177.788 289.791 177.818 289.759 177.856 289.737L183.782 286.315C183.807 286.301 183.833 286.29 183.859 286.284L183.119 286.454C183.092 286.46 183.066 286.47 183.041 286.485L177.115 289.907C177.077 289.929 177.047 289.96 177.021 289.996C177.015 290.005 177.009 290.013 177.003 290.022C176.98 290.059 176.961 290.099 176.951 290.144C176.951 290.146 176.951 290.148 176.95 290.151C176.943 290.182 176.939 290.213 176.938 290.246C176.938 290.259 176.941 290.272 176.942 290.285C176.943 290.298 176.944 290.31 176.946 290.323C176.953 290.372 176.964 290.421 176.985 290.469L183.456 304.851C183.537 305.031 183.702 305.128 183.854 305.093L184.594 304.923C184.584 304.925 184.573 304.922 184.562 304.924C184.546 304.926 184.53 304.926 184.514 304.925C184.489 304.922 184.463 304.917 184.437 304.908Z" fill="#37474F"/>
<path d="M177.971 292.658L177.455 295.24C177.278 296.126 177.308 297.041 177.543 297.914L179.89 306.635L190.827 327.415C192.6 330.784 197.064 331.597 199.911 329.069L207.256 322.547L199.415 314.223L195.494 318.305L185.367 304.892L187.256 301.564C187.703 300.776 187.898 299.87 187.813 298.968L187.554 296.208C187.51 295.738 187.126 295.372 186.655 295.351C186.184 295.33 185.77 295.657 185.682 296.12L185.227 298.525C185.165 298.852 185.017 299.157 184.798 299.407C184.098 300.207 182.873 300.264 182.103 299.531L180.284 297.8L177.971 292.658Z" fill="#FFBEA7"/>
<path d="M193.091 323.311C193.091 323.311 193.736 320.129 195.494 318.303L194.412 316.869C193.599 318.375 192.447 321.311 193.091 323.311Z" fill="#E39D84"/>
<path d="M198.448 314.249L209.481 303.396C211.937 300.98 215.128 299.449 218.551 299.047L218.749 299.024C223.421 309.255 217.245 314.249 217.245 314.249L206.987 323.674C200.462 320.21 198.448 314.249 198.448 314.249Z" fill="#BA68C8"/>
<path opacity="0.2" d="M198.448 314.249L209.481 303.396C211.937 300.98 215.128 299.449 218.551 299.047L218.749 299.024C223.421 309.255 217.245 314.249 217.245 314.249L206.987 323.674C200.462 320.21 198.448 314.249 198.448 314.249Z" fill="black"/>
<path d="M235.167 291.397C235.818 291.484 236.848 291.159 237.295 290.677C237.741 290.196 237.936 289.493 237.8 288.85C238.445 288.733 239.016 288.27 239.264 287.663C239.511 287.056 239.302 286.208 238.923 285.673C239.856 285.437 240.672 284.772 241.089 283.904C241.506 283.037 241.584 281.914 241.186 281.038C242.212 280.776 243.071 279.941 243.363 278.923C243.654 277.905 243.478 276.583 242.745 275.818C243.641 274.652 243.835 272.987 243.233 271.646C242.631 270.305 241.117 269.333 239.651 269.228C239.877 267.816 239.326 266.304 238.245 265.367C237.164 264.43 235.65 264.168 234.284 264.592C233.816 263.398 232.68 262.492 231.412 262.3C230.144 262.108 228.744 262.502 227.943 263.504C227.319 262.787 226.318 262.418 225.378 262.558C224.438 262.699 223.443 263.219 223.056 264.087C221.847 263.547 220.365 263.671 219.262 264.405C218.159 265.139 217.525 266.488 217.557 267.812C216.582 268.075 215.859 269.071 215.911 270.08C215.963 271.089 216.81 272.105 217.807 272.266C218.751 277.433 220.513 282.559 222.915 287.229C223.995 289.328 225.318 291.458 227.412 292.548C229.676 293.732 233.229 293.058 235.167 291.397Z" fill="#455A64"/>
<path d="M217.03 279.099L214.775 283.019L217.245 283.932L217.03 279.099Z" fill="#E39D84"/>
<path d="M217.807 272.271C216.312 277.676 216.084 283.429 217.159 288.934C217.342 289.871 217.581 290.84 218.195 291.571C218.89 292.397 219.984 292.803 221.06 292.89C222.136 292.976 223.212 292.778 224.274 292.581V297.683C228.146 298.596 232.131 298.958 235.166 296.621V291.4C232.99 292.039 230.621 292.305 228.405 291.823C225.73 290.38 225.193 285.493 225.569 284.204C225.964 284.854 226.92 285.108 227.661 284.939C228.403 284.77 229.017 284.218 229.397 283.56C229.778 282.901 229.948 282.142 230.045 281.388C230.163 280.469 230.159 279.471 229.648 278.698C229.021 277.748 227.719 277.384 226.619 277.677C225.519 277.969 224.628 278.818 224.069 279.809C223.892 280.122 223.745 280.449 223.62 280.786C223.393 281.397 222.506 281.285 222.446 280.636C222.312 279.178 222.57 277.683 223.214 276.367C222.353 276.379 221.543 275.716 221.028 275.027C220.513 274.338 220.351 273.398 220.606 272.576C219.313 272.721 217.807 272.271 217.807 272.271Z" fill="#FFBEA7"/>
<path d="M271.173 51.1489C271.172 50.7999 270.982 50.5169 270.717 50.3659L266.654 48.1089C266.647 48.1049 266.641 48.1019 266.634 48.0979L266.619 48.0899V48.0919C266.359 47.9529 266.033 47.9349 265.741 48.1039L215.893 76.9259C215.388 77.2179 215.003 77.6589 214.773 78.1749C214.619 78.5199 214.533 78.8969 214.534 79.2869L214.563 89.6289L204.936 99.5839C204.072 100.478 203.98 101.825 204.651 102.037L208.491 104.153C208.613 104.284 208.787 104.354 209.017 104.326L214.604 103.645L214.625 111.238C214.626 111.581 214.81 111.858 215.068 112.012L215.067 112.013L215.073 112.016C215.078 112.019 215.083 112.022 215.089 112.025L219.13 114.268C219.149 114.28 219.168 114.29 219.188 114.3C219.202 114.307 219.218 114.312 219.232 114.319C219.483 114.434 219.785 114.443 220.058 114.285L269.906 85.4629C270.749 84.9759 271.267 84.0759 271.264 83.1019L271.173 51.1489ZM218.677 80.9559C218.669 80.9939 218.661 81.0319 218.654 81.0709C218.661 81.0329 218.668 80.9949 218.677 80.9559Z" fill="#BA68C8"/>
<path opacity="0.1" d="M218.698 113.501C218.699 113.838 218.878 114.111 219.128 114.266L215.087 112.023C215.082 112.02 215.077 112.017 215.071 112.014L215.065 112.011L215.066 112.01C214.808 111.856 214.624 111.579 214.623 111.236L214.602 103.643L218.668 103.148L218.698 113.501Z" fill="black"/>
<path opacity="0.2" d="M215.893 76.924L265.741 48.102C266.033 47.934 266.359 47.951 266.619 48.09V48.088L266.634 48.096C266.641 48.1 266.647 48.103 266.654 48.107L270.717 50.364C270.453 50.213 270.115 50.192 269.815 50.366L219.967 79.188C219.439 79.493 219.039 79.96 218.814 80.505L214.774 78.172C215.002 77.658 215.388 77.216 215.893 76.924Z" fill="white"/>
<path opacity="0.1" d="M214.564 89.6279L214.535 79.2859C214.534 78.8959 214.62 78.519 214.774 78.174L218.814 80.507C218.68 80.833 218.608 81.1869 218.609 81.5509L218.638 91.8929L214.564 89.6279Z" fill="white"/>
<path opacity="0.05" d="M204.936 99.5829L214.563 89.6279L218.636 91.8919L209.009 101.847C208.264 102.618 208.093 103.725 208.49 104.152L204.65 102.036C203.98 101.824 204.072 100.477 204.936 99.5829Z" fill="white"/>
<path d="M234.889 83.2189L234.921 94.6369L232.11 96.2599L232.097 91.8049L228.273 94.0129L228.286 98.4679L225.474 100.091L225.442 88.6729L228.254 87.0499L228.266 91.3329L232.089 89.1249L232.077 84.8419L234.889 83.2189Z" fill="white"/>
<path d="M244.643 84.611C244.644 84.831 244.612 85.1429 244.603 85.3939L239.012 88.622C239.238 89.398 239.911 89.525 240.901 88.953C241.657 88.516 242.146 87.989 242.678 87.167L244.099 88.038C243.356 89.423 242.282 90.533 240.823 91.376C238.086 92.956 236.302 92.0369 236.294 89.3939C236.286 86.738 238.081 83.802 240.509 82.4C242.777 81.092 244.635 81.686 244.643 84.611ZM238.964 87.0199L242.116 85.1999C241.964 84.3559 241.366 84.113 240.536 84.593C239.694 85.078 239.11 86.0029 238.964 87.0199Z" fill="white"/>
<path d="M248.572 74.632L248.607 86.735L245.902 88.297L245.867 76.194L248.572 74.632Z" fill="white"/>
<path d="M253.014 72.0679L253.048 84.1709L250.353 85.7269L250.319 73.6239L253.014 72.0679Z" fill="white"/>
<path d="M258.635 71.9359C261.17 70.4729 262.975 71.3299 262.983 73.9859C262.991 76.6659 261.196 79.6139 258.661 81.0779C256.148 82.5289 254.31 81.6779 254.303 78.9979C254.295 76.3419 256.122 73.3869 258.635 71.9359ZM258.654 78.6059C259.57 78.0769 260.271 76.9129 260.267 75.5539C260.263 74.2199 259.558 73.8799 258.642 74.4079C257.726 74.9369 257.025 76.0889 257.029 77.4229C257.033 78.7819 257.738 79.1339 258.654 78.6059Z" fill="white"/>
<path d="M265.521 73.7099C266.469 73.1629 267.131 73.5039 267.134 74.4699C267.137 75.4119 266.478 76.5649 265.531 77.1119C264.583 77.6589 263.91 77.2759 263.907 76.3329C263.904 75.3659 264.573 74.2569 265.521 73.7099Z" fill="white"/>
<path d="M266.583 72.1889L264.442 73.4249L263.9 66.4689L267.106 64.6179L266.583 72.1889Z" fill="white"/>
<path d="M240.518 209.315L213.686 224.709C212.852 225.187 212.19 225.878 211.735 226.688C211.301 227.459 211.055 228.336 211.055 229.252V248.776C211.055 252.291 215.035 255.281 218.966 253.035L223.629 250.371L224.051 251.054C224.069 251.083 224.096 251.096 224.12 251.116L224.117 251.126C224.133 251.136 224.152 251.148 224.168 251.159C224.173 251.161 224.176 251.165 224.181 251.167C224.949 251.675 226.298 252.399 226.602 252.555L226.595 252.535C226.734 252.575 226.896 252.517 226.951 252.359L228.668 247.491L245.795 237.704C247.427 236.771 248.434 235.036 248.434 233.157V213.572C248.432 209.794 242.869 207.967 240.518 209.315Z" fill="#BA68C8"/>
<path opacity="0.2" d="M224.05 251.054C224.068 251.083 224.095 251.096 224.119 251.116L224.116 251.126C224.132 251.136 224.151 251.148 224.167 251.159C224.172 251.161 224.175 251.165 224.18 251.167C224.948 251.675 226.297 252.399 226.601 252.555L226.594 252.535C226.528 252.516 226.467 252.483 226.425 252.416L224.762 249.723L225.091 249.535L223.629 250.371L224.05 251.054Z" fill="white"/>
<path opacity="0.4" d="M216.944 229.646C217.284 228.973 217.753 228.368 218.346 227.889L218.349 227.886C218.547 227.726 218.759 227.581 218.984 227.451L245.816 212.057C246.98 211.389 248.431 212.23 248.431 213.571C248.431 209.793 242.868 207.965 240.518 209.313L213.686 224.707C212.852 225.185 212.19 225.877 211.735 226.686L216.944 229.646Z" fill="white"/>
<path opacity="0.2" d="M216.354 251.519V231.994C216.354 231.785 216.368 231.578 216.395 231.375C216.476 230.767 216.671 230.186 216.944 229.646L211.735 226.687C211.301 227.458 211.055 228.335 211.055 229.251V248.776C211.055 252.291 215.035 255.281 218.966 253.035C217.802 253.7 216.354 252.86 216.354 251.519Z" fill="white"/>
<path d="M229.496 232.742C229.902 232.508 230.23 232.695 230.231 233.161L230.232 233.374L230.249 239.43L230.252 240.453C230.253 240.919 229.928 241.488 229.522 241.722L225.875 243.828C225.469 244.062 225.137 243.873 225.136 243.407L225.115 236.116C225.114 235.65 225.443 235.083 225.849 234.849L229.496 232.742ZM228.128 241.529C228.553 241.283 228.895 240.687 228.893 240.199C228.892 239.71 228.548 239.514 228.122 239.76C227.697 240.006 227.351 240.6 227.353 241.088C227.355 241.576 227.703 241.774 228.128 241.529Z" fill="#BA68C8"/>
<g opacity="0.5">
<path d="M229.496 232.742C229.902 232.508 230.23 232.695 230.231 233.161L230.232 233.374L230.249 239.43L230.252 240.453C230.253 240.919 229.928 241.488 229.522 241.722L225.875 243.828C225.469 244.062 225.137 243.873 225.136 243.407L225.115 236.116C225.114 235.65 225.443 235.083 225.849 234.849L229.496 232.742ZM228.128 241.529C228.553 241.283 228.895 240.687 228.893 240.199C228.892 239.71 228.548 239.514 228.122 239.76C227.697 240.006 227.351 240.6 227.353 241.088C227.355 241.576 227.703 241.774 228.128 241.529Z" fill="white"/>
</g>
<path d="M233.211 222.551C234.806 221.63 236.075 222.448 235.982 224.333L235.833 227.321L240.075 224.872C241.524 224.035 241.838 225.967 240.859 227.334C241.85 227.619 241.559 229.305 240.662 230.385C241.488 230.756 240.759 232.659 239.752 233.449C240.412 233.721 239.845 235.762 238.683 236.432C237.521 237.103 234.666 238.751 234.516 238.838L231.881 240.359C230.983 240.877 230.252 240.461 230.249 239.429L230.232 233.373L231.897 229.329C232.763 227.224 233.219 225.107 233.213 223.22L233.211 222.551Z" fill="white"/>
<path d="M356.253 114.761L329.42 130.155C328.587 130.633 327.924 131.325 327.469 132.134C327.035 132.905 326.789 133.783 326.789 134.698V154.223C326.789 157.738 330.769 160.728 334.7 158.482L339.362 155.818L339.784 156.501C339.802 156.53 339.829 156.543 339.853 156.563L339.849 156.573C339.865 156.583 339.884 156.595 339.9 156.606C339.905 156.608 339.908 156.612 339.913 156.614C340.681 157.122 342.03 157.846 342.334 158.002L342.327 157.982C342.466 158.022 342.628 157.964 342.683 157.806L344.4 152.939L361.527 143.152C363.159 142.22 364.166 140.484 364.166 138.605V119.019C364.166 115.24 358.603 113.412 356.253 114.761Z" fill="#BA68C8"/>
<path opacity="0.2" d="M339.784 156.499C339.802 156.528 339.829 156.541 339.853 156.561L339.849 156.571C339.865 156.581 339.884 156.593 339.9 156.604C339.905 156.606 339.908 156.61 339.913 156.612C340.681 157.12 342.03 157.844 342.334 158L342.327 157.98C342.261 157.961 342.2 157.928 342.158 157.861L340.495 155.168L340.824 154.98L339.361 155.816L339.784 156.499Z" fill="white"/>
<path opacity="0.4" d="M332.678 135.092C333.018 134.419 333.487 133.814 334.08 133.335C334.08 133.335 334.082 133.333 334.084 133.332C334.282 133.172 334.494 133.027 334.719 132.897L361.551 117.503C362.715 116.835 364.166 117.676 364.166 119.017C364.166 115.239 358.603 113.411 356.253 114.76L329.42 130.154C328.587 130.632 327.924 131.324 327.469 132.133L332.678 135.092Z" fill="white"/>
<path opacity="0.2" d="M332.088 156.965V137.44C332.088 137.231 332.102 137.025 332.129 136.821C332.21 136.212 332.405 135.632 332.678 135.092L327.469 132.133C327.035 132.904 326.789 133.782 326.789 134.697V154.222C326.789 157.737 330.769 160.727 334.7 158.481C333.536 159.146 332.088 158.305 332.088 156.965Z" fill="white"/>
<path d="M352.564 127.006C353.742 126.326 354.921 126.162 355.821 126.675C357.629 127.697 357.639 131.047 355.842 134.151L354.796 135.97L348.311 147.202L341.777 143.487L340.724 142.879C338.916 141.856 338.906 138.507 340.703 135.403C341.598 133.853 342.774 132.657 343.951 131.978C345.129 131.298 346.308 131.134 347.208 131.647L348.268 132.243L349.314 130.432C350.21 128.882 351.386 127.686 352.564 127.006Z" fill="white"/>
<path d="M317.18 197.269L290.347 212.663C289.514 213.141 288.851 213.832 288.396 214.642C287.962 215.413 287.716 216.29 287.716 217.206V236.731C287.716 240.246 291.696 243.236 295.627 240.99L300.29 238.326L300.712 239.009C300.73 239.038 300.757 239.051 300.781 239.071L300.778 239.081C300.793 239.091 300.813 239.103 300.829 239.114C300.834 239.116 300.837 239.12 300.842 239.122C301.61 239.63 302.959 240.354 303.263 240.51L303.256 240.49C303.395 240.529 303.557 240.472 303.612 240.314L305.329 235.447L322.456 225.66C324.088 224.727 325.095 222.992 325.095 221.113V201.528C325.093 197.748 319.53 195.92 317.18 197.269Z" fill="#BA68C8"/>
<path opacity="0.2" d="M300.711 239.007C300.729 239.036 300.756 239.049 300.78 239.069L300.777 239.079C300.792 239.089 300.812 239.101 300.828 239.112C300.833 239.114 300.836 239.118 300.841 239.12C301.609 239.628 302.958 240.352 303.262 240.508L303.255 240.488C303.189 240.469 303.128 240.436 303.086 240.369L301.423 237.676L301.752 237.488L300.29 238.324L300.711 239.007Z" fill="white"/>
<path opacity="0.4" d="M293.605 217.6C293.945 216.927 294.414 216.322 295.007 215.843C295.007 215.843 295.009 215.841 295.011 215.84C295.209 215.68 295.421 215.535 295.646 215.405L322.478 200.011C323.642 199.343 325.093 200.184 325.093 201.525C325.093 197.747 319.53 195.919 317.18 197.267L290.347 212.661C289.514 213.139 288.851 213.83 288.396 214.64L293.605 217.6Z" fill="white"/>
<path opacity="0.2" d="M293.015 239.473V219.948C293.015 219.739 293.029 219.532 293.056 219.329C293.137 218.72 293.332 218.14 293.605 217.6L288.396 214.641C287.962 215.412 287.716 216.289 287.716 217.205V236.73C287.716 240.245 291.696 243.235 295.627 240.989C294.463 241.654 293.015 240.814 293.015 239.473Z" fill="white"/>
<path d="M313.49 209.515C314.668 208.835 315.847 208.671 316.747 209.184C318.555 210.206 318.565 213.556 316.768 216.66L315.722 218.479L309.237 229.711L302.703 225.995L301.651 225.387C299.843 224.365 299.833 221.015 301.63 217.911C302.525 216.361 303.701 215.166 304.879 214.486C306.057 213.806 307.236 213.642 308.136 214.155L309.196 214.751L310.242 212.94C311.137 211.39 312.313 210.194 313.49 209.515Z" fill="white"/>
<path d="M418.919 174.288L392.087 189.682C391.254 190.16 390.591 190.852 390.136 191.661C389.702 192.432 389.456 193.31 389.456 194.225V213.75C389.456 217.265 393.436 220.255 397.367 218.009L402.03 215.345L402.452 216.028C402.47 216.057 402.497 216.07 402.521 216.09L402.517 216.1C402.533 216.11 402.552 216.122 402.568 216.133C402.573 216.135 402.576 216.139 402.581 216.141C403.349 216.649 404.698 217.373 405.002 217.529L404.995 217.509C405.134 217.548 405.296 217.491 405.351 217.333L407.068 212.466L424.195 202.679C425.827 201.747 426.834 200.011 426.834 198.132V178.546C426.833 174.768 421.27 172.94 418.919 174.288Z" fill="#BA68C8"/>
<path opacity="0.2" d="M402.451 216.027C402.469 216.056 402.496 216.069 402.52 216.089L402.516 216.099C402.532 216.109 402.551 216.121 402.567 216.132C402.572 216.134 402.575 216.138 402.58 216.14C403.348 216.648 404.697 217.372 405.001 217.528L404.994 217.508C404.928 217.489 404.867 217.456 404.825 217.389L403.162 214.696L403.491 214.508L402.029 215.344L402.451 216.027Z" fill="white"/>
<path opacity="0.4" d="M395.344 194.62C395.684 193.947 396.153 193.342 396.746 192.863C396.746 192.863 396.748 192.861 396.75 192.86C396.948 192.7 397.16 192.555 397.385 192.425L424.217 177.031C425.381 176.363 426.832 177.204 426.832 178.545C426.832 174.767 421.269 172.939 418.918 174.287L392.086 189.681C391.253 190.159 390.59 190.851 390.135 191.66L395.344 194.62Z" fill="white"/>
<path opacity="0.2" d="M394.755 216.493V196.968C394.755 196.759 394.769 196.553 394.796 196.349C394.877 195.74 395.072 195.16 395.345 194.62L390.136 191.661C389.702 192.432 389.456 193.31 389.456 194.225V213.75C389.456 217.265 393.436 220.255 397.367 218.009C396.203 218.673 394.755 217.833 394.755 216.493Z" fill="white"/>
<path d="M408.528 196.992C408.934 196.758 409.262 196.945 409.263 197.411L409.264 197.624L409.281 203.68L409.284 204.703C409.285 205.169 408.96 205.738 408.554 205.972L404.907 208.078C404.501 208.312 404.169 208.123 404.168 207.657L404.147 200.366C404.146 199.9 404.475 199.333 404.881 199.099L408.528 196.992ZM407.16 205.779C407.585 205.533 407.927 204.937 407.926 204.448C407.925 203.959 407.581 203.763 407.155 204.009C406.73 204.255 406.384 204.848 406.385 205.337C406.387 205.826 406.735 206.024 407.16 205.779Z" fill="#BA68C8"/>
<g opacity="0.5">
<path d="M408.528 196.992C408.934 196.758 409.262 196.945 409.263 197.411L409.264 197.624L409.281 203.68L409.284 204.703C409.285 205.169 408.96 205.738 408.554 205.972L404.907 208.078C404.501 208.312 404.169 208.123 404.168 207.657L404.147 200.366C404.146 199.9 404.475 199.333 404.881 199.099L408.528 196.992ZM407.16 205.779C407.585 205.533 407.927 204.937 407.926 204.448C407.925 203.959 407.581 203.763 407.155 204.009C406.73 204.255 406.384 204.848 406.385 205.337C406.387 205.826 406.735 206.024 407.16 205.779Z" fill="white"/>
</g>
<path d="M412.243 186.801C413.838 185.88 415.107 186.698 415.014 188.583L414.865 191.571L419.107 189.122C420.556 188.285 420.87 190.217 419.891 191.584C420.882 191.869 420.591 193.555 419.694 194.635C420.52 195.006 419.791 196.909 418.783 197.699C419.443 197.971 418.876 200.012 417.715 200.682C416.553 201.353 413.698 203.001 413.548 203.088L410.913 204.609C410.015 205.128 409.284 204.711 409.281 203.679L409.264 197.623L410.929 193.579C411.795 191.474 412.251 189.357 412.245 187.47L412.243 186.801Z" fill="white"/>
</svg>
